<ttFont>
    <TTGlyph name=".notdef" xMin="53" yMin="0" xMax="405" yMax="677">
      <contour>
        <pt x="53" y="677" on="1"/>
        <pt x="405" y="677" on="1"/>
        <pt x="405" y="0" on="1"/>
        <pt x="53" y="0" on="1"/>
      </contour>
      <contour>
        <pt x="70" y="640" on="1"/>
        <pt x="178" y="640" on="1"/>
        <pt x="178" y="655" on="1"/>
        <pt x="70" y="655" on="1"/>
      </contour>
      <contour>
        <pt x="91" y="653" on="1"/>
        <pt x="92" y="653" on="1"/>
        <pt x="95" y="653" on="0"/>
        <pt x="95" y="647" on="1"/>
        <pt x="95" y="642" on="0"/>
        <pt x="92" y="642" on="1"/>
        <pt x="91" y="642" on="1"/>
      </contour>
      <contour>
        <pt x="165" y="653" on="1"/>
        <pt x="166" y="653" on="1"/>
        <pt x="169" y="653" on="0"/>
        <pt x="169" y="647" on="1"/>
        <pt x="169" y="642" on="0"/>
        <pt x="166" y="642" on="1"/>
        <pt x="165" y="642" on="1"/>
      </contour>
      <contour>
        <pt x="79" y="653" on="1"/>
        <pt x="80" y="653" on="1"/>
        <pt x="83" y="653" on="0"/>
        <pt x="83" y="649" on="1"/>
        <pt x="83" y="646" on="0"/>
        <pt x="81" y="645" on="1"/>
        <pt x="83" y="642" on="1"/>
        <pt x="82" y="642" on="1"/>
        <pt x="80" y="645" on="1"/>
        <pt x="80" y="642" on="1"/>
        <pt x="79" y="642" on="1"/>
      </contour>
      <contour>
        <pt x="96" y="653" on="1"/>
        <pt x="97" y="653" on="1"/>
        <pt x="100" y="653" on="0"/>
        <pt x="100" y="649" on="1"/>
        <pt x="100" y="646" on="0"/>
        <pt x="98" y="645" on="1"/>
        <pt x="100" y="642" on="1"/>
        <pt x="99" y="642" on="1"/>
        <pt x="97" y="645" on="1"/>
        <pt x="97" y="642" on="1"/>
        <pt x="96" y="642" on="1"/>
      </contour>
      <contour>
        <pt x="156" y="653" on="1"/>
        <pt x="157" y="653" on="1"/>
        <pt x="159" y="645" on="1"/>
        <pt x="159" y="653" on="1"/>
        <pt x="160" y="653" on="1"/>
        <pt x="160" y="642" on="1"/>
        <pt x="159" y="642" on="1"/>
        <pt x="157" y="649" on="1"/>
        <pt x="157" y="642" on="1"/>
        <pt x="156" y="642" on="1"/>
      </contour>
      <contour>
        <pt x="118" y="645" on="1"/>
        <pt x="116" y="645" on="1"/>
        <pt x="116" y="642" on="1"/>
        <pt x="115" y="642" on="1"/>
        <pt x="117" y="653" on="1"/>
        <pt x="118" y="653" on="1"/>
        <pt x="120" y="642" on="1"/>
        <pt x="119" y="642" on="1"/>
      </contour>
      <contour>
        <pt x="138" y="645" on="1"/>
        <pt x="136" y="645" on="1"/>
        <pt x="136" y="642" on="1"/>
        <pt x="135" y="642" on="1"/>
        <pt x="137" y="653" on="1"/>
        <pt x="138" y="653" on="1"/>
        <pt x="140" y="642" on="1"/>
        <pt x="139" y="642" on="1"/>
      </contour>
      <contour>
        <pt x="133" y="646" on="1"/>
        <pt x="131" y="646" on="1"/>
        <pt x="131" y="642" on="1"/>
        <pt x="130" y="642" on="1"/>
        <pt x="130" y="653" on="1"/>
        <pt x="131" y="653" on="1"/>
        <pt x="131" y="647" on="1"/>
        <pt x="133" y="647" on="1"/>
        <pt x="133" y="653" on="1"/>
        <pt x="134" y="653" on="1"/>
        <pt x="134" y="642" on="1"/>
        <pt x="133" y="642" on="1"/>
      </contour>
      <contour>
        <pt x="111" y="653" on="1"/>
        <pt x="112" y="653" on="1"/>
        <pt x="112" y="642" on="1"/>
        <pt x="111" y="642" on="1"/>
        <pt x="111" y="646" on="1"/>
        <pt x="109" y="646" on="1"/>
        <pt x="109" y="642" on="1"/>
        <pt x="108" y="642" on="1"/>
        <pt x="108" y="653" on="1"/>
        <pt x="109" y="653" on="1"/>
        <pt x="109" y="647" on="1"/>
        <pt x="111" y="647" on="1"/>
      </contour>
      <contour>
        <pt x="144" y="653" on="1"/>
        <pt x="145" y="653" on="1"/>
        <pt x="145" y="647" on="1"/>
        <pt x="145" y="642" on="0"/>
        <pt x="143" y="642" on="1"/>
        <pt x="141" y="642" on="0"/>
        <pt x="141" y="646" on="1"/>
        <pt x="141" y="653" on="1"/>
        <pt x="142" y="653" on="1"/>
        <pt x="142" y="647" on="1"/>
        <pt x="142" y="643" on="0"/>
        <pt x="143" y="643" on="1"/>
        <pt x="144" y="643" on="0"/>
        <pt x="144" y="646" on="1"/>
      </contour>
      <contour>
        <pt x="86" y="653" on="1"/>
        <pt x="90" y="653" on="1"/>
        <pt x="90" y="652" on="1"/>
        <pt x="87" y="652" on="1"/>
        <pt x="87" y="647" on="1"/>
        <pt x="90" y="647" on="1"/>
        <pt x="90" y="646" on="1"/>
        <pt x="87" y="646" on="1"/>
        <pt x="87" y="643" on="1"/>
        <pt x="90" y="643" on="1"/>
        <pt x="90" y="642" on="1"/>
        <pt x="86" y="642" on="1"/>
      </contour>
      <contour>
        <pt x="170" y="653" on="1"/>
        <pt x="174" y="653" on="1"/>
        <pt x="174" y="652" on="1"/>
        <pt x="171" y="652" on="1"/>
        <pt x="171" y="647" on="1"/>
        <pt x="174" y="647" on="1"/>
        <pt x="174" y="646" on="1"/>
        <pt x="171" y="646" on="1"/>
        <pt x="171" y="643" on="1"/>
        <pt x="174" y="643" on="1"/>
        <pt x="174" y="642" on="1"/>
        <pt x="170" y="642" on="1"/>
      </contour>
      <contour>
        <pt x="151" y="653" on="1"/>
        <pt x="155" y="653" on="1"/>
        <pt x="155" y="652" on="1"/>
        <pt x="152" y="652" on="1"/>
        <pt x="152" y="647" on="1"/>
        <pt x="155" y="647" on="1"/>
        <pt x="155" y="646" on="1"/>
        <pt x="152" y="646" on="1"/>
        <pt x="152" y="643" on="1"/>
        <pt x="155" y="643" on="1"/>
        <pt x="155" y="642" on="1"/>
        <pt x="151" y="642" on="1"/>
      </contour>
      <contour>
        <pt x="74" y="653" on="1"/>
        <pt x="78" y="653" on="1"/>
        <pt x="78" y="652" on="1"/>
        <pt x="75" y="652" on="1"/>
        <pt x="75" y="646" on="1"/>
        <pt x="78" y="646" on="1"/>
        <pt x="78" y="645" on="1"/>
        <pt x="75" y="645" on="1"/>
        <pt x="75" y="642" on="1"/>
        <pt x="74" y="642" on="1"/>
      </contour>
      <contour>
        <pt x="146" y="651" on="1"/>
        <pt x="146" y="654" on="0"/>
        <pt x="150" y="653" on="1"/>
        <pt x="150" y="652" on="1"/>
        <pt x="147" y="653" on="0"/>
        <pt x="147" y="651" on="1"/>
        <pt x="147" y="648" on="0"/>
        <pt x="150" y="647" on="0"/>
        <pt x="150" y="644" on="1"/>
        <pt x="150" y="641" on="0"/>
        <pt x="146" y="642" on="1"/>
        <pt x="146" y="643" on="1"/>
        <pt x="149" y="641" on="0"/>
        <pt x="149" y="644" on="1"/>
        <pt x="149" y="646" on="0"/>
        <pt x="146" y="648" on="0"/>
      </contour>
      <contour>
        <pt x="107" y="642" on="1"/>
        <pt x="103" y="641" on="0"/>
        <pt x="103" y="648" on="1"/>
        <pt x="103" y="654" on="0"/>
        <pt x="107" y="653" on="1"/>
        <pt x="107" y="652" on="1"/>
        <pt x="104" y="653" on="0"/>
        <pt x="104" y="648" on="1"/>
        <pt x="104" y="641" on="0"/>
        <pt x="107" y="643" on="1"/>
      </contour>
      <contour>
        <pt x="124" y="653" on="1"/>
        <pt x="129" y="653" on="1"/>
        <pt x="129" y="652" on="1"/>
        <pt x="127" y="652" on="1"/>
        <pt x="127" y="642" on="1"/>
        <pt x="126" y="642" on="1"/>
        <pt x="126" y="652" on="1"/>
        <pt x="124" y="652" on="1"/>
      </contour>
      <contour>
        <pt x="92" y="643" on="1"/>
        <pt x="94" y="643" on="0"/>
        <pt x="94" y="647" on="1"/>
        <pt x="94" y="652" on="0"/>
        <pt x="92" y="652" on="1"/>
      </contour>
      <contour>
        <pt x="166" y="643" on="1"/>
        <pt x="168" y="643" on="0"/>
        <pt x="168" y="647" on="1"/>
        <pt x="168" y="652" on="0"/>
        <pt x="166" y="652" on="1"/>
      </contour>
      <contour>
        <pt x="125" y="643" on="1"/>
        <pt x="125" y="642" on="1"/>
        <pt x="121" y="642" on="1"/>
        <pt x="121" y="653" on="1"/>
        <pt x="122" y="653" on="1"/>
        <pt x="122" y="643" on="1"/>
      </contour>
      <contour>
        <pt x="84" y="653" on="1"/>
        <pt x="85" y="653" on="1"/>
        <pt x="85" y="642" on="1"/>
        <pt x="84" y="642" on="1"/>
      </contour>
      <contour>
        <pt x="101" y="653" on="1"/>
        <pt x="102" y="653" on="1"/>
        <pt x="102" y="642" on="1"/>
        <pt x="101" y="642" on="1"/>
      </contour>
      <contour>
        <pt x="80" y="646" on="1"/>
        <pt x="82" y="646" on="0"/>
        <pt x="82" y="649" on="1"/>
        <pt x="82" y="652" on="0"/>
        <pt x="80" y="652" on="1"/>
      </contour>
      <contour>
        <pt x="97" y="646" on="1"/>
        <pt x="99" y="646" on="0"/>
        <pt x="99" y="649" on="1"/>
        <pt x="99" y="652" on="0"/>
        <pt x="97" y="652" on="1"/>
      </contour>
      <contour>
        <pt x="136" y="646" on="1"/>
        <pt x="138" y="646" on="1"/>
        <pt x="137" y="650" on="1"/>
      </contour>
      <contour>
        <pt x="116" y="646" on="1"/>
        <pt x="118" y="646" on="1"/>
        <pt x="117" y="650" on="1"/>
      </contour>
      <contour>
        <pt x="162" y="643" on="1"/>
        <pt x="163" y="643" on="1"/>
        <pt x="163" y="642" on="1"/>
        <pt x="162" y="642" on="1"/>
      </contour>
    </TTGlyph>
    <TTGlyph name="A" xMin="10" yMin="-3" xMax="707" yMax="682">
      <contour>
        <pt x="312" y="676" on="1"/>
        <pt x="332" y="681" on="0"/>
        <pt x="365" y="682" on="0"/>
        <pt x="388" y="682" on="1"/>
        <pt x="610" y="195" on="1"/>
        <pt x="628" y="156" on="0"/>
        <pt x="652" y="110" on="0"/>
        <pt x="671" y="85" on="0"/>
        <pt x="688" y="76" on="0"/>
        <pt x="699" y="75" on="1"/>
        <pt x="703" y="62" on="0"/>
        <pt x="707" y="21" on="0"/>
        <pt x="707" y="-3" on="1"/>
        <pt x="692" y="-2" on="0"/>
        <pt x="648" y="-1" on="0"/>
        <pt x="603" y="0" on="0"/>
        <pt x="582" y="0" on="1"/>
        <pt x="514" y="0" on="1"/>
        <pt x="491" y="0" on="0"/>
        <pt x="438" y="-1" on="0"/>
        <pt x="388" y="-2" on="0"/>
        <pt x="374" y="-3" on="1"/>
        <pt x="374" y="25" on="0"/>
        <pt x="378" y="60" on="0"/>
        <pt x="382" y="75" on="1"/>
        <pt x="415" y="83" on="0"/>
        <pt x="428" y="117" on="0"/>
        <pt x="413" y="151" on="1"/>
        <pt x="406" y="166" on="1"/>
        <pt x="348" y="165" on="0"/>
        <pt x="288" y="163" on="1"/>
        <pt x="234" y="161" on="0"/>
        <pt x="178" y="156" on="1"/>
        <pt x="177" y="152" on="1"/>
        <pt x="172" y="141" on="0"/>
        <pt x="171" y="116" on="0"/>
        <pt x="180" y="94" on="0"/>
        <pt x="199" y="78" on="0"/>
        <pt x="215" y="75" on="1"/>
        <pt x="219" y="59" on="0"/>
        <pt x="223" y="21" on="0"/>
        <pt x="223" y="-3" on="1"/>
        <pt x="214" y="-2" on="0"/>
        <pt x="185" y="-1" on="0"/>
        <pt x="152" y="0" on="0"/>
        <pt x="135" y="0" on="1"/>
        <pt x="106" y="0" on="1"/>
        <pt x="81" y="0" on="0"/>
        <pt x="25" y="-1" on="0"/>
        <pt x="10" y="-3" on="1"/>
        <pt x="10" y="20" on="0"/>
        <pt x="14" y="56" on="0"/>
        <pt x="20" y="75" on="1"/>
        <pt x="32" y="77" on="0"/>
        <pt x="51" y="88" on="0"/>
        <pt x="69" y="110" on="0"/>
        <pt x="88" y="147" on="0"/>
        <pt x="100" y="176" on="1"/>
      </contour>
      <contour>
        <pt x="207" y="231" on="1"/>
        <pt x="377" y="231" on="1"/>
        <pt x="340" y="316" on="1"/>
        <pt x="313" y="376" on="0"/>
        <pt x="297" y="429" on="1"/>
        <pt x="293" y="441" on="0"/>
        <pt x="289" y="454" on="1"/>
        <pt x="281" y="428" on="1"/>
        <pt x="265" y="376" on="0"/>
        <pt x="241" y="316" on="1"/>
      </contour>
    </TTGlyph>
    <TTGlyph name="AE" xMin="49" yMin="-3" xMax="1025" yMax="679">
      <contour>
        <pt x="364" y="274" on="1"/>
        <pt x="335" y="271" on="0"/>
        <pt x="315" y="268" on="1"/>
        <pt x="305" y="251" on="0"/>
        <pt x="296" y="235" on="1"/>
        <pt x="272" y="192" on="0"/>
        <pt x="260" y="170" on="1"/>
        <pt x="237" y="126" on="0"/>
        <pt x="254" y="81" on="0"/>
        <pt x="289" y="75" on="1"/>
        <pt x="295" y="61" on="0"/>
        <pt x="299" y="20" on="0"/>
        <pt x="299" y="-3" on="1"/>
        <pt x="287" y="-2" on="0"/>
        <pt x="257" y="-1" on="0"/>
        <pt x="225" y="0" on="0"/>
        <pt x="209" y="0" on="1"/>
        <pt x="149" y="0" on="1"/>
        <pt x="130" y="0" on="0"/>
        <pt x="90" y="-1" on="0"/>
        <pt x="56" y="-2" on="0"/>
        <pt x="49" y="-3" on="1"/>
        <pt x="49" y="17" on="0"/>
        <pt x="54" y="62" on="0"/>
        <pt x="59" y="75" on="1"/>
        <pt x="77" y="77" on="0"/>
        <pt x="102" y="86" on="0"/>
        <pt x="124" y="103" on="0"/>
        <pt x="145" y="131" on="0"/>
        <pt x="157" y="152" on="1"/>
        <pt x="370" y="519" on="1"/>
        <pt x="393" y="560" on="0"/>
        <pt x="379" y="597" on="0"/>
        <pt x="341" y="601" on="1"/>
        <pt x="339" y="605" on="0"/>
        <pt x="335" y="624" on="0"/>
        <pt x="331" y="647" on="0"/>
        <pt x="328" y="670" on="0"/>
        <pt x="328" y="678" on="1"/>
        <pt x="347" y="678" on="0"/>
        <pt x="397" y="677" on="0"/>
        <pt x="452" y="676" on="0"/>
        <pt x="480" y="676" on="1"/>
        <pt x="772" y="676" on="1"/>
        <pt x="816" y="676" on="0"/>
        <pt x="886" y="677" on="0"/>
        <pt x="941" y="678" on="0"/>
        <pt x="965" y="679" on="1"/>
        <pt x="965" y="630" on="0"/>
        <pt x="978" y="533" on="0"/>
        <pt x="986" y="501" on="1"/>
        <pt x="980" y="496" on="0"/>
        <pt x="955" y="490" on="0"/>
        <pt x="925" y="485" on="0"/>
        <pt x="895" y="483" on="0"/>
        <pt x="885" y="483" on="1"/>
        <pt x="880" y="510" on="0"/>
        <pt x="864" y="554" on="0"/>
        <pt x="833" y="584" on="0"/>
        <pt x="784" y="601" on="0"/>
        <pt x="747" y="601" on="1"/>
        <pt x="698" y="601" on="1"/>
        <pt x="698" y="352" on="1"/>
        <pt x="709" y="352" on="1"/>
        <pt x="730" y="352" on="0"/>
        <pt x="758" y="357" on="0"/>
        <pt x="774" y="372" on="0"/>
        <pt x="781" y="402" on="0"/>
        <pt x="781" y="428" on="1"/>
        <pt x="798" y="434" on="0"/>
        <pt x="848" y="441" on="0"/>
        <pt x="868" y="441" on="1"/>
        <pt x="867" y="429" on="0"/>
        <pt x="866" y="406" on="0"/>
        <pt x="865" y="379" on="0"/>
        <pt x="865" y="362" on="1"/>
        <pt x="865" y="322" on="1"/>
        <pt x="865" y="288" on="0"/>
        <pt x="866" y="224" on="0"/>
        <pt x="868" y="202" on="1"/>
        <pt x="848" y="202" on="0"/>
        <pt x="797" y="204" on="0"/>
        <pt x="782" y="211" on="1"/>
        <pt x="780" y="235" on="0"/>
        <pt x="774" y="265" on="0"/>
        <pt x="758" y="281" on="0"/>
        <pt x="731" y="286" on="0"/>
        <pt x="709" y="286" on="1"/>
        <pt x="698" y="286" on="1"/>
        <pt x="698" y="192" on="1"/>
        <pt x="698" y="156" on="0"/>
        <pt x="706" y="111" on="0"/>
        <pt x="724" y="85" on="0"/>
        <pt x="754" y="75" on="0"/>
        <pt x="776" y="75" on="1"/>
        <pt x="793" y="75" on="1"/>
        <pt x="818" y="75" on="0"/>
        <pt x="854" y="87" on="0"/>
        <pt x="884" y="118" on="0"/>
        <pt x="910" y="170" on="0"/>
        <pt x="925" y="211" on="1"/>
        <pt x="952" y="206" on="0"/>
        <pt x="1012" y="189" on="0"/>
        <pt x="1025" y="177" on="1"/>
        <pt x="1014" y="142" on="0"/>
        <pt x="997" y="46" on="0"/>
        <pt x="994" y="-2" on="1"/>
        <pt x="972" y="-2" on="0"/>
        <pt x="885" y="-1" on="0"/>
        <pt x="786" y="0" on="0"/>
        <pt x="738" y="0" on="1"/>
        <pt x="679" y="0" on="1"/>
        <pt x="628" y="0" on="0"/>
        <pt x="526" y="-1" on="0"/>
        <pt x="441" y="-2" on="0"/>
        <pt x="424" y="-3" on="1"/>
        <pt x="424" y="20" on="0"/>
        <pt x="427" y="58" on="0"/>
        <pt x="432" y="75" on="1"/>
        <pt x="452" y="76" on="0"/>
        <pt x="478" y="86" on="0"/>
        <pt x="493" y="110" on="0"/>
        <pt x="498" y="152" on="0"/>
        <pt x="498" y="187" on="1"/>
        <pt x="498" y="282" on="1"/>
        <pt x="477" y="281" on="0"/>
        <pt x="458" y="280" on="1"/>
        <pt x="405" y="278" on="0"/>
      </contour>
      <contour>
        <pt x="498" y="540" on="1"/>
        <pt x="498" y="555" on="0"/>
        <pt x="499" y="575" on="1"/>
        <pt x="500" y="593" on="1"/>
        <pt x="498" y="588" on="0"/>
        <pt x="495" y="583" on="1"/>
        <pt x="487" y="567" on="0"/>
        <pt x="475" y="546" on="1"/>
        <pt x="447" y="498" on="0"/>
        <pt x="414" y="441" on="1"/>
        <pt x="388" y="395" on="0"/>
        <pt x="363" y="352" on="1"/>
        <pt x="498" y="352" on="1"/>
      </contour>
    </TTGlyph>
    <TTGlyph name="Aacute" xMin="10" yMin="-3" xMax="707" yMax="942">
      <component glyphName="A" x="0" y="0" flags="0x204"/>
      <component glyphName="acute" x="62" y="223" flags="0x4"/>
    </TTGlyph>
    <TTGlyph name="Acircumflex" xMin="10" yMin="-3" xMax="707" yMax="946">
      <component glyphName="A" x="0" y="0" flags="0x204"/>
      <component glyphName="circumflex" x="83" y="223" flags="0x4"/>
    </TTGlyph>
    <TTGlyph name="Adieresis" xMin="10" yMin="-3" xMax="707" yMax="899">
      <component glyphName="A" x="0" y="0" flags="0x204"/>
      <component glyphName="dieresis" x="5" y="223" flags="0x4"/>
    </TTGlyph>
    <TTGlyph name="Agrave" xMin="10" yMin="-3" xMax="707" yMax="940">
      <component glyphName="A" x="0" y="0" flags="0x204"/>
      <component glyphName="grave" x="202" y="223" flags="0x4"/>
    </TTGlyph>
    <TTGlyph name="Aring" xMin="10" yMin="-3" xMax="707" yMax="952">
      <component glyphName="A" x="0" y="0" flags="0x204"/>
      <component glyphName="ring" x="41" y="223" flags="0x4"/>
    </TTGlyph>
    <TTGlyph name="Atilde" xMin="10" yMin="-3" xMax="707" yMax="910">
      <component glyphName="A" x="0" y="0" flags="0x204"/>
      <component glyphName="tilde" x="85" y="223" flags="0x4"/>
    </TTGlyph>
    <TTGlyph name="B" xMin="30" yMin="-3" xMax="683" yMax="679">
      <contour>
        <pt x="138" y="676" on="1"/>
        <pt x="158" y="676" on="0"/>
        <pt x="218" y="677" on="0"/>
        <pt x="283" y="677" on="0"/>
        <pt x="345" y="678" on="0"/>
        <pt x="367" y="678" on="1"/>
        <pt x="448" y="678" on="0"/>
        <pt x="555" y="658" on="0"/>
        <pt x="620" y="619" on="0"/>
        <pt x="647" y="561" on="0"/>
        <pt x="647" y="523" on="1"/>
        <pt x="647" y="465" on="0"/>
        <pt x="566" y="381" on="0"/>
        <pt x="488" y="370" on="1"/>
        <pt x="541" y="367" on="0"/>
        <pt x="615" y="340" on="0"/>
        <pt x="662" y="295" on="0"/>
        <pt x="683" y="232" on="0"/>
        <pt x="683" y="194" on="1"/>
        <pt x="683" y="150" on="0"/>
        <pt x="649" y="79" on="0"/>
        <pt x="574" y="28" on="0"/>
        <pt x="454" y="0" on="0"/>
        <pt x="367" y="0" on="1"/>
        <pt x="278" y="0" on="0"/>
        <pt x="108" y="-1" on="0"/>
        <pt x="30" y="-3" on="1"/>
        <pt x="30" y="19" on="0"/>
        <pt x="34" y="61" on="0"/>
        <pt x="38" y="75" on="1"/>
        <pt x="58" y="76" on="0"/>
        <pt x="84" y="86" on="0"/>
        <pt x="99" y="110" on="0"/>
        <pt x="104" y="152" on="0"/>
        <pt x="104" y="187" on="1"/>
        <pt x="104" y="491" on="1"/>
        <pt x="104" y="525" on="0"/>
        <pt x="99" y="565" on="0"/>
        <pt x="84" y="588" on="0"/>
        <pt x="58" y="598" on="0"/>
        <pt x="37" y="601" on="1"/>
        <pt x="33" y="616" on="0"/>
        <pt x="30" y="662" on="0"/>
        <pt x="30" y="679" on="1"/>
        <pt x="49" y="677" on="0"/>
        <pt x="112" y="676" on="0"/>
      </contour>
      <contour>
        <pt x="304" y="306" on="1"/>
        <pt x="304" y="178" on="1"/>
        <pt x="304" y="145" on="0"/>
        <pt x="315" y="104" on="0"/>
        <pt x="334" y="81" on="0"/>
        <pt x="359" y="74" on="0"/>
        <pt x="373" y="74" on="1"/>
        <pt x="410" y="74" on="0"/>
        <pt x="463" y="130" on="0"/>
        <pt x="463" y="183" on="1"/>
        <pt x="463" y="253" on="0"/>
        <pt x="395" y="306" on="0"/>
        <pt x="329" y="306" on="1"/>
      </contour>
      <contour>
        <pt x="318" y="597" on="1"/>
        <pt x="311" y="595" on="0"/>
        <pt x="304" y="591" on="1"/>
        <pt x="304" y="389" on="1"/>
        <pt x="340" y="389" on="1"/>
        <pt x="389" y="389" on="0"/>
        <pt x="447" y="442" on="0"/>
        <pt x="447" y="496" on="1"/>
        <pt x="447" y="545" on="0"/>
        <pt x="393" y="601" on="0"/>
        <pt x="351" y="601" on="1"/>
        <pt x="332" y="601" on="0"/>
      </contour>
    </TTGlyph>
    <TTGlyph name="C" xMin="35" yMin="-9" xMax="614" yMax="685">
      <contour>
        <pt x="374" y="685" on="1"/>
        <pt x="435" y="685" on="0"/>
        <pt x="546" y="658" on="0"/>
        <pt x="599" y="633" on="1"/>
        <pt x="593" y="598" on="0"/>
        <pt x="588" y="520" on="0"/>
        <pt x="588" y="478" on="1"/>
        <pt x="581" y="474" on="0"/>
        <pt x="557" y="469" on="0"/>
        <pt x="529" y="466" on="0"/>
        <pt x="501" y="464" on="0"/>
        <pt x="489" y="464" on="1"/>
        <pt x="488" y="507" on="0"/>
        <pt x="472" y="562" on="0"/>
        <pt x="442" y="595" on="0"/>
        <pt x="402" y="608" on="0"/>
        <pt x="377" y="608" on="1"/>
        <pt x="340" y="608" on="0"/>
        <pt x="288" y="568" on="0"/>
        <pt x="255" y="500" on="0"/>
        <pt x="240" y="413" on="0"/>
        <pt x="240" y="367" on="1"/>
        <pt x="240" y="307" on="0"/>
        <pt x="263" y="204" on="0"/>
        <pt x="308" y="128" on="0"/>
        <pt x="375" y="85" on="0"/>
        <pt x="419" y="85" on="1"/>
        <pt x="462" y="85" on="0"/>
        <pt x="553" y="109" on="0"/>
        <pt x="586" y="127" on="1"/>
        <pt x="597" y="117" on="0"/>
        <pt x="611" y="88" on="0"/>
        <pt x="614" y="72" on="1"/>
        <pt x="596" y="56" on="0"/>
        <pt x="547" y="27" on="0"/>
        <pt x="488" y="4" on="0"/>
        <pt x="420" y="-9" on="0"/>
        <pt x="384" y="-9" on="1"/>
        <pt x="303" y="-9" on="0"/>
        <pt x="174" y="42" on="0"/>
        <pt x="84" y="135" on="0"/>
        <pt x="35" y="264" on="0"/>
        <pt x="35" y="342" on="1"/>
        <pt x="35" y="427" on="0"/>
        <pt x="93" y="555" on="0"/>
        <pt x="187" y="641" on="0"/>
        <pt x="309" y="685" on="0"/>
      </contour>
    </TTGlyph>
    <TTGlyph name="Ccedilla" xMin="35" yMin="-242" xMax="614" yMax="685">
      <contour>
        <pt x="374" y="685" on="1"/>
        <pt x="435" y="685" on="0"/>
        <pt x="546" y="658" on="0"/>
        <pt x="599" y="633" on="1"/>
        <pt x="593" y="598" on="0"/>
        <pt x="588" y="520" on="0"/>
        <pt x="588" y="478" on="1"/>
        <pt x="581" y="474" on="0"/>
        <pt x="557" y="469" on="0"/>
        <pt x="529" y="466" on="0"/>
        <pt x="501" y="464" on="0"/>
        <pt x="489" y="464" on="1"/>
        <pt x="488" y="507" on="0"/>
        <pt x="472" y="562" on="0"/>
        <pt x="442" y="595" on="0"/>
        <pt x="402" y="608" on="0"/>
        <pt x="377" y="608" on="1"/>
        <pt x="340" y="608" on="0"/>
        <pt x="288" y="568" on="0"/>
        <pt x="255" y="500" on="0"/>
        <pt x="240" y="413" on="0"/>
        <pt x="240" y="367" on="1"/>
        <pt x="240" y="307" on="0"/>
        <pt x="263" y="204" on="0"/>
        <pt x="308" y="128" on="0"/>
        <pt x="375" y="85" on="0"/>
        <pt x="419" y="85" on="1"/>
        <pt x="462" y="85" on="0"/>
        <pt x="553" y="109" on="0"/>
        <pt x="586" y="127" on="1"/>
        <pt x="597" y="117" on="0"/>
        <pt x="611" y="88" on="0"/>
        <pt x="614" y="72" on="1"/>
        <pt x="596" y="56" on="0"/>
        <pt x="547" y="27" on="0"/>
        <pt x="488" y="4" on="0"/>
        <pt x="454" y="-3" on="1"/>
        <pt x="424" y="-8" on="0"/>
        <pt x="393" y="-9" on="1"/>
        <pt x="367" y="-43" on="1"/>
        <pt x="411" y="-50" on="0"/>
        <pt x="456" y="-104" on="0"/>
        <pt x="456" y="-138" on="1"/>
        <pt x="456" y="-189" on="0"/>
        <pt x="365" y="-242" on="0"/>
        <pt x="280" y="-242" on="1"/>
        <pt x="275" y="-231" on="0"/>
        <pt x="271" y="-202" on="0"/>
        <pt x="271" y="-191" on="1"/>
        <pt x="303" y="-191" on="0"/>
        <pt x="349" y="-169" on="0"/>
        <pt x="349" y="-147" on="1"/>
        <pt x="349" y="-130" on="0"/>
        <pt x="316" y="-110" on="0"/>
        <pt x="291" y="-110" on="1"/>
        <pt x="273" y="-89" on="0"/>
        <pt x="273" y="-63" on="1"/>
        <pt x="321" y="-5" on="1"/>
        <pt x="277" y="1" on="0"/>
        <pt x="238" y="16" on="1"/>
        <pt x="174" y="42" on="0"/>
        <pt x="84" y="135" on="0"/>
        <pt x="35" y="264" on="0"/>
        <pt x="35" y="342" on="1"/>
        <pt x="35" y="427" on="0"/>
        <pt x="93" y="555" on="0"/>
        <pt x="187" y="641" on="0"/>
        <pt x="309" y="685" on="0"/>
      </contour>
    </TTGlyph>
    <TTGlyph name="D" xMin="30" yMin="-3" xMax="704" yMax="679">
      <contour>
        <pt x="30" y="679" on="1"/>
        <pt x="46" y="678" on="0"/>
        <pt x="90" y="677" on="0"/>
        <pt x="140" y="676" on="0"/>
        <pt x="167" y="676" on="1"/>
        <pt x="220" y="676" on="1"/>
        <pt x="244" y="676" on="0"/>
        <pt x="304" y="678" on="0"/>
        <pt x="344" y="678" on="1"/>
        <pt x="417" y="678" on="0"/>
        <pt x="548" y="654" on="0"/>
        <pt x="646" y="583" on="0"/>
        <pt x="704" y="457" on="0"/>
        <pt x="704" y="355" on="1"/>
        <pt x="704" y="274" on="0"/>
        <pt x="664" y="158" on="0"/>
        <pt x="599" y="80" on="0"/>
        <pt x="518" y="32" on="0"/>
        <pt x="437" y="8" on="0"/>
        <pt x="364" y="0" on="0"/>
        <pt x="339" y="0" on="1"/>
        <pt x="313" y="0" on="0"/>
        <pt x="223" y="-1" on="0"/>
        <pt x="128" y="-2" on="0"/>
        <pt x="47" y="-3" on="0"/>
        <pt x="30" y="-3" on="1"/>
        <pt x="30" y="19" on="0"/>
        <pt x="34" y="61" on="0"/>
        <pt x="38" y="75" on="1"/>
        <pt x="58" y="76" on="0"/>
        <pt x="84" y="86" on="0"/>
        <pt x="99" y="110" on="0"/>
        <pt x="104" y="152" on="0"/>
        <pt x="104" y="187" on="1"/>
        <pt x="104" y="491" on="1"/>
        <pt x="104" y="525" on="0"/>
        <pt x="99" y="565" on="0"/>
        <pt x="84" y="588" on="0"/>
        <pt x="58" y="598" on="0"/>
        <pt x="37" y="601" on="1"/>
        <pt x="33" y="616" on="0"/>
        <pt x="30" y="662" on="0"/>
      </contour>
      <contour>
        <pt x="304" y="192" on="1"/>
        <pt x="304" y="157" on="0"/>
        <pt x="311" y="112" on="0"/>
        <pt x="329" y="86" on="0"/>
        <pt x="359" y="75" on="0"/>
        <pt x="382" y="75" on="1"/>
        <pt x="393" y="75" on="0"/>
        <pt x="434" y="89" on="0"/>
        <pt x="473" y="142" on="0"/>
        <pt x="502" y="246" on="0"/>
        <pt x="502" y="337" on="1"/>
        <pt x="502" y="417" on="0"/>
        <pt x="476" y="520" on="0"/>
        <pt x="432" y="580" on="0"/>
        <pt x="375" y="603" on="0"/>
        <pt x="344" y="603" on="1"/>
        <pt x="322" y="603" on="0"/>
        <pt x="304" y="595" on="1"/>
      </contour>
    </TTGlyph>
    <TTGlyph name="E" xMin="30" yMin="-3" xMax="631" yMax="679">
      <contour>
        <pt x="571" y="679" on="1"/>
        <pt x="571" y="660" on="0"/>
        <pt x="574" y="613" on="0"/>
        <pt x="580" y="564" on="0"/>
        <pt x="587" y="519" on="0"/>
        <pt x="592" y="501" on="1"/>
        <pt x="572" y="493" on="0"/>
        <pt x="526" y="483" on="0"/>
        <pt x="491" y="483" on="1"/>
        <pt x="486" y="510" on="0"/>
        <pt x="470" y="554" on="0"/>
        <pt x="439" y="584" on="0"/>
        <pt x="390" y="601" on="0"/>
        <pt x="353" y="601" on="1"/>
        <pt x="304" y="601" on="1"/>
        <pt x="304" y="374" on="1"/>
        <pt x="329" y="374" on="0"/>
        <pt x="360" y="382" on="0"/>
        <pt x="378" y="398" on="0"/>
        <pt x="386" y="425" on="0"/>
        <pt x="386" y="445" on="1"/>
        <pt x="403" y="452" on="0"/>
        <pt x="451" y="457" on="0"/>
        <pt x="474" y="457" on="1"/>
        <pt x="472" y="433" on="0"/>
        <pt x="470" y="378" on="0"/>
        <pt x="470" y="340" on="1"/>
        <pt x="470" y="298" on="0"/>
        <pt x="472" y="243" on="0"/>
        <pt x="474" y="221" on="1"/>
        <pt x="446" y="221" on="0"/>
        <pt x="405" y="225" on="0"/>
        <pt x="388" y="231" on="1"/>
        <pt x="384" y="272" on="0"/>
        <pt x="349" y="299" on="0"/>
        <pt x="304" y="299" on="1"/>
        <pt x="304" y="192" on="1"/>
        <pt x="304" y="157" on="0"/>
        <pt x="311" y="112" on="0"/>
        <pt x="329" y="86" on="0"/>
        <pt x="359" y="75" on="0"/>
        <pt x="382" y="75" on="1"/>
        <pt x="399" y="75" on="1"/>
        <pt x="450" y="75" on="0"/>
        <pt x="509" y="139" on="0"/>
        <pt x="529" y="211" on="1"/>
        <pt x="562" y="208" on="0"/>
        <pt x="618" y="189" on="0"/>
        <pt x="631" y="177" on="1"/>
        <pt x="620" y="142" on="0"/>
        <pt x="604" y="47" on="0"/>
        <pt x="600" y="-2" on="1"/>
        <pt x="578" y="-2" on="0"/>
        <pt x="514" y="-1" on="0"/>
        <pt x="443" y="0" on="0"/>
        <pt x="406" y="0" on="1"/>
        <pt x="339" y="0" on="1"/>
        <pt x="313" y="0" on="0"/>
        <pt x="223" y="-1" on="0"/>
        <pt x="128" y="-2" on="0"/>
        <pt x="47" y="-3" on="0"/>
        <pt x="30" y="-3" on="1"/>
        <pt x="30" y="19" on="0"/>
        <pt x="34" y="61" on="0"/>
        <pt x="38" y="75" on="1"/>
        <pt x="58" y="76" on="0"/>
        <pt x="84" y="86" on="0"/>
        <pt x="99" y="110" on="0"/>
        <pt x="104" y="152" on="0"/>
        <pt x="104" y="187" on="1"/>
        <pt x="104" y="491" on="1"/>
        <pt x="104" y="525" on="0"/>
        <pt x="99" y="565" on="0"/>
        <pt x="84" y="588" on="0"/>
        <pt x="58" y="598" on="0"/>
        <pt x="37" y="601" on="1"/>
        <pt x="33" y="616" on="0"/>
        <pt x="30" y="662" on="0"/>
        <pt x="30" y="679" on="1"/>
        <pt x="52" y="678" on="0"/>
        <pt x="119" y="677" on="0"/>
        <pt x="193" y="676" on="0"/>
        <pt x="229" y="676" on="1"/>
        <pt x="392" y="676" on="1"/>
        <pt x="435" y="676" on="0"/>
        <pt x="500" y="677" on="0"/>
        <pt x="550" y="678" on="0"/>
      </contour>
    </TTGlyph>
    <TTGlyph name="Eacute" xMin="30" yMin="-3" xMax="631" yMax="942">
      <component glyphName="acute" x="42" y="223" flags="0x4"/>
      <component glyphName="E" x="0" y="0" flags="0x4"/>
    </TTGlyph>
    <TTGlyph name="Ecircumflex" xMin="30" yMin="-3" xMax="631" yMax="946">
      <component glyphName="circumflex" x="41" y="223" flags="0x4"/>
      <component glyphName="E" x="0" y="0" flags="0x4"/>
    </TTGlyph>
    <TTGlyph name="Edieresis" xMin="30" yMin="-3" xMax="631" yMax="899">
      <component glyphName="dieresis" x="-26" y="223" flags="0x4"/>
      <component glyphName="E" x="0" y="0" flags="0x4"/>
    </TTGlyph>
    <TTGlyph name="Egrave" xMin="30" yMin="-3" xMax="631" yMax="940">
      <component glyphName="grave" x="173" y="223" flags="0x4"/>
      <component glyphName="E" x="0" y="0" flags="0x4"/>
    </TTGlyph>
    <TTGlyph name="Eszett" xMin="30" yMin="-9" xMax="735" yMax="682">
      <contour>
        <pt x="304" y="-3" on="1"/>
        <pt x="288" y="-1" on="0"/>
        <pt x="232" y="0" on="0"/>
        <pt x="197" y="0" on="1"/>
        <pt x="157" y="0" on="0"/>
        <pt x="71" y="-1" on="0"/>
        <pt x="30" y="-3" on="1"/>
        <pt x="30" y="15" on="0"/>
        <pt x="36" y="61" on="0"/>
        <pt x="40" y="75" on="1"/>
        <pt x="60" y="76" on="0"/>
        <pt x="85" y="86" on="0"/>
        <pt x="99" y="110" on="0"/>
        <pt x="104" y="153" on="0"/>
        <pt x="104" y="188" on="1"/>
        <pt x="104" y="413" on="1"/>
        <pt x="104" y="494" on="0"/>
        <pt x="150" y="598" on="0"/>
        <pt x="231" y="658" on="0"/>
        <pt x="342" y="682" on="0"/>
        <pt x="407" y="682" on="1"/>
        <pt x="438" y="682" on="0"/>
        <pt x="505" y="676" on="0"/>
        <pt x="553" y="676" on="1"/>
        <pt x="582" y="676" on="0"/>
        <pt x="632" y="678" on="0"/>
        <pt x="664" y="682" on="1"/>
        <pt x="672" y="668" on="0"/>
        <pt x="686" y="615" on="0"/>
        <pt x="686" y="595" on="1"/>
        <pt x="659" y="538" on="0"/>
        <pt x="623" y="480" on="1"/>
        <pt x="597" y="439" on="0"/>
        <pt x="568" y="401" on="1"/>
        <pt x="634" y="387" on="0"/>
        <pt x="675" y="355" on="1"/>
        <pt x="735" y="308" on="0"/>
        <pt x="735" y="212" on="1"/>
        <pt x="735" y="-9" on="0"/>
        <pt x="486" y="-9" on="1"/>
        <pt x="435" y="-9" on="0"/>
        <pt x="361" y="8" on="0"/>
        <pt x="335" y="27" on="1"/>
        <pt x="342" y="64" on="0"/>
        <pt x="344" y="143" on="0"/>
        <pt x="344" y="169" on="1"/>
        <pt x="368" y="179" on="0"/>
        <pt x="416" y="186" on="0"/>
        <pt x="449" y="186" on="1"/>
        <pt x="450" y="151" on="0"/>
        <pt x="457" y="108" on="0"/>
        <pt x="470" y="84" on="0"/>
        <pt x="487" y="75" on="0"/>
        <pt x="498" y="75" on="1"/>
        <pt x="506" y="75" on="0"/>
        <pt x="519" y="83" on="0"/>
        <pt x="529" y="103" on="0"/>
        <pt x="534" y="138" on="0"/>
        <pt x="534" y="165" on="1"/>
        <pt x="534" y="202" on="0"/>
        <pt x="509" y="261" on="0"/>
        <pt x="466" y="303" on="0"/>
        <pt x="407" y="326" on="0"/>
        <pt x="373" y="328" on="1"/>
        <pt x="368" y="335" on="0"/>
        <pt x="360" y="357" on="0"/>
        <pt x="354" y="381" on="0"/>
        <pt x="350" y="405" on="0"/>
        <pt x="350" y="413" on="1"/>
        <pt x="385" y="454" on="0"/>
        <pt x="420" y="509" on="1"/>
        <pt x="448" y="552" on="0"/>
        <pt x="472" y="598" on="1"/>
        <pt x="459" y="599" on="0"/>
        <pt x="448" y="600" on="1"/>
        <pt x="420" y="602" on="0"/>
        <pt x="393" y="602" on="1"/>
        <pt x="370" y="602" on="0"/>
        <pt x="336" y="587" on="0"/>
        <pt x="314" y="547" on="0"/>
        <pt x="304" y="478" on="0"/>
        <pt x="304" y="423" on="1"/>
      </contour>
    </TTGlyph>
    <TTGlyph name="Eth" xMin="19" yMin="-3" xMax="712" yMax="679">
      <contour>
        <pt x="38" y="679" on="1"/>
        <pt x="54" y="678" on="0"/>
        <pt x="98" y="677" on="0"/>
        <pt x="148" y="676" on="0"/>
        <pt x="175" y="676" on="1"/>
        <pt x="228" y="676" on="1"/>
        <pt x="252" y="676" on="0"/>
        <pt x="312" y="678" on="0"/>
        <pt x="352" y="678" on="1"/>
        <pt x="425" y="678" on="0"/>
        <pt x="556" y="654" on="0"/>
        <pt x="654" y="583" on="0"/>
        <pt x="712" y="457" on="0"/>
        <pt x="712" y="355" on="1"/>
        <pt x="712" y="274" on="0"/>
        <pt x="672" y="158" on="0"/>
        <pt x="607" y="80" on="0"/>
        <pt x="526" y="32" on="0"/>
        <pt x="445" y="8" on="0"/>
        <pt x="372" y="0" on="0"/>
        <pt x="347" y="0" on="1"/>
        <pt x="321" y="0" on="0"/>
        <pt x="231" y="-1" on="0"/>
        <pt x="136" y="-2" on="0"/>
        <pt x="55" y="-3" on="0"/>
        <pt x="38" y="-3" on="1"/>
        <pt x="38" y="19" on="0"/>
        <pt x="42" y="61" on="0"/>
        <pt x="46" y="75" on="1"/>
        <pt x="66" y="76" on="0"/>
        <pt x="92" y="86" on="0"/>
        <pt x="107" y="110" on="0"/>
        <pt x="112" y="152" on="0"/>
        <pt x="112" y="187" on="1"/>
        <pt x="112" y="248" on="1"/>
        <pt x="94" y="248" on="0"/>
        <pt x="74" y="247" on="1"/>
        <pt x="50" y="246" on="0"/>
        <pt x="19" y="246" on="1"/>
        <pt x="19" y="275" on="0"/>
        <pt x="26" y="320" on="0"/>
        <pt x="32" y="337" on="1"/>
        <pt x="112" y="337" on="1"/>
        <pt x="112" y="491" on="1"/>
        <pt x="112" y="525" on="0"/>
        <pt x="107" y="565" on="0"/>
        <pt x="92" y="588" on="0"/>
        <pt x="66" y="598" on="0"/>
        <pt x="45" y="601" on="1"/>
        <pt x="41" y="616" on="0"/>
        <pt x="38" y="662" on="0"/>
      </contour>
      <contour>
        <pt x="312" y="192" on="1"/>
        <pt x="312" y="157" on="0"/>
        <pt x="319" y="112" on="0"/>
        <pt x="337" y="86" on="0"/>
        <pt x="367" y="75" on="0"/>
        <pt x="390" y="75" on="1"/>
        <pt x="401" y="75" on="0"/>
        <pt x="442" y="89" on="0"/>
        <pt x="481" y="142" on="0"/>
        <pt x="510" y="246" on="0"/>
        <pt x="510" y="337" on="1"/>
        <pt x="510" y="417" on="0"/>
        <pt x="484" y="520" on="0"/>
        <pt x="440" y="580" on="0"/>
        <pt x="383" y="603" on="0"/>
        <pt x="352" y="603" on="1"/>
        <pt x="330" y="603" on="0"/>
        <pt x="312" y="595" on="1"/>
        <pt x="312" y="337" on="1"/>
        <pt x="447" y="337" on="1"/>
        <pt x="447" y="284" on="0"/>
        <pt x="434" y="248" on="1"/>
        <pt x="408" y="248" on="0"/>
        <pt x="370" y="249" on="0"/>
        <pt x="352" y="249" on="1"/>
        <pt x="312" y="249" on="1"/>
      </contour>
    </TTGlyph>
    <TTGlyph name="Euro" xMin="46" yMin="-9" xMax="677" yMax="685">
      <contour>
        <pt x="522" y="430" on="1"/>
        <pt x="522" y="405" on="0"/>
        <pt x="514" y="359" on="0"/>
        <pt x="506" y="344" on="1"/>
        <pt x="401" y="344" on="1"/>
        <pt x="353" y="344" on="0"/>
        <pt x="303" y="343" on="1"/>
        <pt x="305" y="310" on="0"/>
        <pt x="309" y="279" on="1"/>
        <pt x="522" y="279" on="1"/>
        <pt x="522" y="254" on="0"/>
        <pt x="514" y="208" on="0"/>
        <pt x="506" y="193" on="1"/>
        <pt x="401" y="193" on="1"/>
        <pt x="368" y="193" on="0"/>
        <pt x="334" y="192" on="1"/>
        <pt x="341" y="178" on="0"/>
        <pt x="348" y="166" on="1"/>
        <pt x="371" y="128" on="0"/>
        <pt x="438" y="85" on="0"/>
        <pt x="482" y="85" on="1"/>
        <pt x="525" y="85" on="0"/>
        <pt x="616" y="109" on="0"/>
        <pt x="649" y="127" on="1"/>
        <pt x="660" y="117" on="0"/>
        <pt x="674" y="88" on="0"/>
        <pt x="677" y="72" on="1"/>
        <pt x="659" y="56" on="0"/>
        <pt x="610" y="27" on="0"/>
        <pt x="551" y="4" on="0"/>
        <pt x="483" y="-9" on="0"/>
        <pt x="447" y="-9" on="1"/>
        <pt x="366" y="-9" on="0"/>
        <pt x="237" y="42" on="0"/>
        <pt x="192" y="88" on="1"/>
        <pt x="151" y="131" on="0"/>
        <pt x="126" y="188" on="1"/>
        <pt x="89" y="188" on="0"/>
        <pt x="46" y="187" on="1"/>
        <pt x="46" y="211" on="0"/>
        <pt x="55" y="263" on="0"/>
        <pt x="62" y="279" on="1"/>
        <pt x="102" y="279" on="1"/>
        <pt x="98" y="308" on="0"/>
        <pt x="98" y="339" on="1"/>
        <pt x="73" y="338" on="0"/>
        <pt x="46" y="338" on="1"/>
        <pt x="46" y="362" on="0"/>
        <pt x="55" y="414" on="0"/>
        <pt x="62" y="430" on="1"/>
        <pt x="106" y="430" on="1"/>
        <pt x="114" y="462" on="0"/>
        <pt x="127" y="491" on="1"/>
        <pt x="156" y="555" on="0"/>
        <pt x="250" y="641" on="0"/>
        <pt x="372" y="685" on="0"/>
        <pt x="437" y="685" on="1"/>
        <pt x="498" y="685" on="0"/>
        <pt x="609" y="658" on="0"/>
        <pt x="662" y="633" on="1"/>
        <pt x="656" y="598" on="0"/>
        <pt x="651" y="520" on="0"/>
        <pt x="651" y="478" on="1"/>
        <pt x="644" y="474" on="0"/>
        <pt x="620" y="469" on="0"/>
        <pt x="592" y="466" on="0"/>
        <pt x="564" y="464" on="0"/>
        <pt x="552" y="464" on="1"/>
        <pt x="551" y="507" on="0"/>
        <pt x="535" y="562" on="0"/>
        <pt x="505" y="595" on="0"/>
        <pt x="465" y="608" on="0"/>
        <pt x="440" y="608" on="1"/>
        <pt x="403" y="608" on="0"/>
        <pt x="351" y="568" on="0"/>
        <pt x="318" y="500" on="0"/>
        <pt x="310" y="456" on="1"/>
        <pt x="306" y="430" on="1"/>
      </contour>
    </TTGlyph>
    <TTGlyph name="F" xMin="30" yMin="-3" xMax="592" yMax="679">
      <contour>
        <pt x="571" y="679" on="1"/>
        <pt x="571" y="660" on="0"/>
        <pt x="574" y="613" on="0"/>
        <pt x="580" y="564" on="0"/>
        <pt x="587" y="519" on="0"/>
        <pt x="592" y="501" on="1"/>
        <pt x="572" y="493" on="0"/>
        <pt x="526" y="483" on="0"/>
        <pt x="491" y="483" on="1"/>
        <pt x="486" y="510" on="0"/>
        <pt x="470" y="554" on="0"/>
        <pt x="439" y="584" on="0"/>
        <pt x="390" y="601" on="0"/>
        <pt x="353" y="601" on="1"/>
        <pt x="304" y="601" on="1"/>
        <pt x="304" y="339" on="1"/>
        <pt x="315" y="339" on="1"/>
        <pt x="364" y="339" on="0"/>
        <pt x="395" y="371" on="0"/>
        <pt x="396" y="410" on="1"/>
        <pt x="413" y="417" on="0"/>
        <pt x="461" y="422" on="0"/>
        <pt x="484" y="422" on="1"/>
        <pt x="482" y="398" on="0"/>
        <pt x="480" y="343" on="0"/>
        <pt x="480" y="305" on="1"/>
        <pt x="480" y="263" on="0"/>
        <pt x="482" y="208" on="0"/>
        <pt x="484" y="186" on="1"/>
        <pt x="456" y="186" on="0"/>
        <pt x="415" y="190" on="0"/>
        <pt x="398" y="196" on="1"/>
        <pt x="394" y="237" on="0"/>
        <pt x="359" y="264" on="0"/>
        <pt x="315" y="264" on="1"/>
        <pt x="304" y="264" on="1"/>
        <pt x="304" y="197" on="1"/>
        <pt x="304" y="165" on="0"/>
        <pt x="314" y="120" on="0"/>
        <pt x="340" y="92" on="0"/>
        <pt x="381" y="77" on="0"/>
        <pt x="413" y="75" on="1"/>
        <pt x="419" y="58" on="0"/>
        <pt x="422" y="16" on="0"/>
        <pt x="422" y="-3" on="1"/>
        <pt x="408" y="-2" on="0"/>
        <pt x="363" y="-1" on="0"/>
        <pt x="310" y="0" on="0"/>
        <pt x="283" y="0" on="1"/>
        <pt x="176" y="0" on="1"/>
        <pt x="148" y="0" on="0"/>
        <pt x="94" y="-1" on="0"/>
        <pt x="47" y="-2" on="0"/>
        <pt x="30" y="-3" on="1"/>
        <pt x="30" y="24" on="0"/>
        <pt x="33" y="61" on="0"/>
        <pt x="37" y="75" on="1"/>
        <pt x="57" y="76" on="0"/>
        <pt x="83" y="86" on="0"/>
        <pt x="98" y="110" on="0"/>
        <pt x="104" y="152" on="0"/>
        <pt x="104" y="187" on="1"/>
        <pt x="104" y="491" on="1"/>
        <pt x="104" y="525" on="0"/>
        <pt x="99" y="565" on="0"/>
        <pt x="86" y="588" on="0"/>
        <pt x="60" y="598" on="0"/>
        <pt x="39" y="601" on="1"/>
        <pt x="35" y="616" on="0"/>
        <pt x="30" y="655" on="0"/>
        <pt x="30" y="679" on="1"/>
        <pt x="52" y="678" on="0"/>
        <pt x="120" y="677" on="0"/>
        <pt x="195" y="676" on="0"/>
        <pt x="231" y="676" on="1"/>
        <pt x="392" y="676" on="1"/>
        <pt x="435" y="676" on="0"/>
        <pt x="500" y="677" on="0"/>
        <pt x="550" y="678" on="0"/>
      </contour>
    </TTGlyph>
    <TTGlyph name="G" xMin="35" yMin="-9" xMax="664" yMax="685">
      <contour>
        <pt x="461" y="181" on="1"/>
        <pt x="461" y="203" on="0"/>
        <pt x="455" y="231" on="0"/>
        <pt x="440" y="248" on="0"/>
        <pt x="412" y="255" on="0"/>
        <pt x="391" y="256" on="1"/>
        <pt x="385" y="287" on="0"/>
        <pt x="385" y="333" on="1"/>
        <pt x="414" y="331" on="0"/>
        <pt x="489" y="330" on="0"/>
        <pt x="522" y="330" on="1"/>
        <pt x="592" y="330" on="1"/>
        <pt x="632" y="330" on="0"/>
        <pt x="664" y="332" on="1"/>
        <pt x="664" y="312" on="0"/>
        <pt x="662" y="274" on="0"/>
        <pt x="658" y="256" on="1"/>
        <pt x="632" y="254" on="0"/>
        <pt x="621" y="230" on="0"/>
        <pt x="621" y="197" on="1"/>
        <pt x="621" y="173" on="1"/>
        <pt x="621" y="153" on="0"/>
        <pt x="623" y="125" on="0"/>
        <pt x="627" y="102" on="0"/>
        <pt x="633" y="81" on="0"/>
        <pt x="638" y="69" on="1"/>
        <pt x="592" y="35" on="0"/>
        <pt x="460" y="-9" on="0"/>
        <pt x="384" y="-9" on="1"/>
        <pt x="303" y="-9" on="0"/>
        <pt x="174" y="42" on="0"/>
        <pt x="84" y="135" on="0"/>
        <pt x="35" y="265" on="0"/>
        <pt x="35" y="343" on="1"/>
        <pt x="35" y="428" on="0"/>
        <pt x="92" y="557" on="0"/>
        <pt x="190" y="642" on="0"/>
        <pt x="317" y="685" on="0"/>
        <pt x="388" y="685" on="1"/>
        <pt x="453" y="685" on="0"/>
        <pt x="575" y="653" on="0"/>
        <pt x="619" y="633" on="1"/>
        <pt x="613" y="598" on="0"/>
        <pt x="608" y="520" on="0"/>
        <pt x="608" y="478" on="1"/>
        <pt x="586" y="467" on="0"/>
        <pt x="532" y="464" on="0"/>
        <pt x="509" y="464" on="1"/>
        <pt x="505" y="543" on="0"/>
        <pt x="440" y="607" on="0"/>
        <pt x="382" y="607" on="1"/>
        <pt x="342" y="607" on="0"/>
        <pt x="287" y="566" on="0"/>
        <pt x="253" y="499" on="0"/>
        <pt x="238" y="413" on="0"/>
        <pt x="238" y="367" on="1"/>
        <pt x="238" y="302" on="0"/>
        <pt x="260" y="193" on="0"/>
        <pt x="302" y="115" on="0"/>
        <pt x="361" y="71" on="0"/>
        <pt x="397" y="71" on="1"/>
        <pt x="410" y="71" on="0"/>
        <pt x="424" y="73" on="0"/>
        <pt x="430" y="75" on="1"/>
        <pt x="444" y="80" on="0"/>
        <pt x="461" y="108" on="0"/>
        <pt x="461" y="147" on="1"/>
      </contour>
    </TTGlyph>
    <TTGlyph name="H" xMin="30" yMin="-3" xMax="772" yMax="679">
      <contour>
        <pt x="498" y="314" on="1"/>
        <pt x="475" y="314" on="0"/>
        <pt x="451" y="313" on="1"/>
        <pt x="410" y="313" on="0"/>
        <pt x="369" y="312" on="1"/>
        <pt x="336" y="311" on="0"/>
        <pt x="304" y="309" on="1"/>
        <pt x="304" y="187" on="1"/>
        <pt x="304" y="152" on="0"/>
        <pt x="309" y="110" on="0"/>
        <pt x="324" y="86" on="0"/>
        <pt x="350" y="76" on="0"/>
        <pt x="370" y="75" on="1"/>
        <pt x="374" y="61" on="0"/>
        <pt x="378" y="17" on="0"/>
        <pt x="378" y="-3" on="1"/>
        <pt x="355" y="-1" on="0"/>
        <pt x="271" y="0" on="0"/>
        <pt x="219" y="0" on="1"/>
        <pt x="167" y="0" on="0"/>
        <pt x="65" y="-1" on="0"/>
        <pt x="30" y="-3" on="1"/>
        <pt x="30" y="15" on="0"/>
        <pt x="36" y="61" on="0"/>
        <pt x="40" y="75" on="1"/>
        <pt x="60" y="76" on="0"/>
        <pt x="85" y="86" on="0"/>
        <pt x="99" y="110" on="0"/>
        <pt x="104" y="152" on="0"/>
        <pt x="104" y="187" on="1"/>
        <pt x="104" y="491" on="1"/>
        <pt x="104" y="525" on="0"/>
        <pt x="99" y="565" on="0"/>
        <pt x="86" y="588" on="0"/>
        <pt x="60" y="598" on="0"/>
        <pt x="39" y="601" on="1"/>
        <pt x="35" y="616" on="0"/>
        <pt x="30" y="659" on="0"/>
        <pt x="30" y="679" on="1"/>
        <pt x="42" y="678" on="0"/>
        <pt x="88" y="677" on="0"/>
        <pt x="140" y="676" on="0"/>
        <pt x="165" y="676" on="1"/>
        <pt x="250" y="676" on="1"/>
        <pt x="273" y="676" on="0"/>
        <pt x="320" y="677" on="0"/>
        <pt x="363" y="678" on="0"/>
        <pt x="378" y="679" on="1"/>
        <pt x="378" y="659" on="0"/>
        <pt x="376" y="621" on="0"/>
        <pt x="369" y="601" on="1"/>
        <pt x="348" y="599" on="0"/>
        <pt x="323" y="589" on="0"/>
        <pt x="309" y="566" on="0"/>
        <pt x="304" y="525" on="0"/>
        <pt x="304" y="491" on="1"/>
        <pt x="304" y="387" on="1"/>
        <pt x="498" y="387" on="1"/>
        <pt x="498" y="491" on="1"/>
        <pt x="498" y="525" on="0"/>
        <pt x="493" y="565" on="0"/>
        <pt x="480" y="588" on="0"/>
        <pt x="454" y="598" on="0"/>
        <pt x="433" y="601" on="1"/>
        <pt x="429" y="616" on="0"/>
        <pt x="424" y="659" on="0"/>
        <pt x="424" y="679" on="1"/>
        <pt x="436" y="678" on="0"/>
        <pt x="482" y="677" on="0"/>
        <pt x="534" y="676" on="0"/>
        <pt x="559" y="676" on="1"/>
        <pt x="644" y="676" on="1"/>
        <pt x="667" y="676" on="0"/>
        <pt x="714" y="677" on="0"/>
        <pt x="757" y="678" on="0"/>
        <pt x="772" y="679" on="1"/>
        <pt x="772" y="659" on="0"/>
        <pt x="770" y="621" on="0"/>
        <pt x="763" y="601" on="1"/>
        <pt x="742" y="599" on="0"/>
        <pt x="717" y="589" on="0"/>
        <pt x="703" y="566" on="0"/>
        <pt x="698" y="525" on="0"/>
        <pt x="698" y="491" on="1"/>
        <pt x="698" y="187" on="1"/>
        <pt x="698" y="152" on="0"/>
        <pt x="703" y="110" on="0"/>
        <pt x="718" y="86" on="0"/>
        <pt x="744" y="76" on="0"/>
        <pt x="764" y="75" on="1"/>
        <pt x="768" y="61" on="0"/>
        <pt x="772" y="17" on="0"/>
        <pt x="772" y="-3" on="1"/>
        <pt x="749" y="-1" on="0"/>
        <pt x="665" y="0" on="0"/>
        <pt x="613" y="0" on="1"/>
        <pt x="561" y="0" on="0"/>
        <pt x="459" y="-1" on="0"/>
        <pt x="424" y="-3" on="1"/>
        <pt x="424" y="15" on="0"/>
        <pt x="430" y="61" on="0"/>
        <pt x="434" y="75" on="1"/>
        <pt x="454" y="76" on="0"/>
        <pt x="479" y="86" on="0"/>
        <pt x="493" y="110" on="0"/>
        <pt x="498" y="152" on="0"/>
        <pt x="498" y="187" on="1"/>
      </contour>
    </TTGlyph>
    <TTGlyph name="I" xMin="30" yMin="-3" xMax="378" yMax="679">
      <contour>
        <pt x="104" y="491" on="1"/>
        <pt x="104" y="525" on="0"/>
        <pt x="99" y="565" on="0"/>
        <pt x="86" y="588" on="0"/>
        <pt x="60" y="598" on="0"/>
        <pt x="39" y="601" on="1"/>
        <pt x="35" y="616" on="0"/>
        <pt x="30" y="659" on="0"/>
        <pt x="30" y="679" on="1"/>
        <pt x="42" y="678" on="0"/>
        <pt x="88" y="677" on="0"/>
        <pt x="140" y="676" on="0"/>
        <pt x="165" y="676" on="1"/>
        <pt x="250" y="676" on="1"/>
        <pt x="273" y="676" on="0"/>
        <pt x="320" y="677" on="0"/>
        <pt x="363" y="678" on="0"/>
        <pt x="378" y="679" on="1"/>
        <pt x="378" y="659" on="0"/>
        <pt x="376" y="621" on="0"/>
        <pt x="369" y="601" on="1"/>
        <pt x="348" y="599" on="0"/>
        <pt x="323" y="589" on="0"/>
        <pt x="309" y="566" on="0"/>
        <pt x="304" y="525" on="0"/>
        <pt x="304" y="491" on="1"/>
        <pt x="304" y="187" on="1"/>
        <pt x="304" y="152" on="0"/>
        <pt x="309" y="110" on="0"/>
        <pt x="324" y="86" on="0"/>
        <pt x="350" y="76" on="0"/>
        <pt x="370" y="75" on="1"/>
        <pt x="374" y="61" on="0"/>
        <pt x="378" y="17" on="0"/>
        <pt x="378" y="-3" on="1"/>
        <pt x="355" y="-1" on="0"/>
        <pt x="271" y="0" on="0"/>
        <pt x="219" y="0" on="1"/>
        <pt x="167" y="0" on="0"/>
        <pt x="65" y="-1" on="0"/>
        <pt x="30" y="-3" on="1"/>
        <pt x="30" y="15" on="0"/>
        <pt x="36" y="61" on="0"/>
        <pt x="40" y="75" on="1"/>
        <pt x="60" y="76" on="0"/>
        <pt x="85" y="86" on="0"/>
        <pt x="99" y="110" on="0"/>
        <pt x="104" y="152" on="0"/>
        <pt x="104" y="187" on="1"/>
      </contour>
    </TTGlyph>
    <TTGlyph name="Iacute" xMin="30" yMin="-3" xMax="383" yMax="942">
      <component glyphName="I" x="0" y="0" flags="0x204"/>
      <component glyphName="acute" x="-69" y="223" flags="0x4"/>
    </TTGlyph>
    <TTGlyph name="Icircumflex" xMin="6" yMin="-3" xMax="421" yMax="946">
      <component glyphName="I" x="0" y="0" flags="0x204"/>
      <component glyphName="circumflex" x="-56" y="223" flags="0x4"/>
    </TTGlyph>
    <TTGlyph name="Idieresis" xMin="-4" yMin="-3" xMax="442" yMax="899">
      <component glyphName="I" x="0" y="0" flags="0x204"/>
      <component glyphName="dieresis" x="-124" y="223" flags="0x4"/>
    </TTGlyph>
    <TTGlyph name="Igrave" xMin="17" yMin="-3" xMax="378" yMax="940">
      <component glyphName="I" x="0" y="0" flags="0x204"/>
      <component glyphName="grave" x="45" y="223" flags="0x4"/>
    </TTGlyph>
    <TTGlyph name="J" xMin="0" yMin="-249" xMax="378" yMax="679">
      <contour>
        <pt x="304" y="135" on="1"/>
        <pt x="304" y="66" on="0"/>
        <pt x="284" y="-49" on="0"/>
        <pt x="226" y="-143" on="0"/>
        <pt x="122" y="-218" on="0"/>
        <pt x="37" y="-249" on="1"/>
        <pt x="19" y="-235" on="0"/>
        <pt x="2" y="-197" on="0"/>
        <pt x="0" y="-175" on="1"/>
        <pt x="27" y="-157" on="0"/>
        <pt x="67" y="-117" on="0"/>
        <pt x="92" y="-64" on="0"/>
        <pt x="104" y="9" on="0"/>
        <pt x="104" y="62" on="1"/>
        <pt x="104" y="488" on="1"/>
        <pt x="104" y="523" on="0"/>
        <pt x="99" y="566" on="0"/>
        <pt x="85" y="589" on="0"/>
        <pt x="60" y="599" on="0"/>
        <pt x="39" y="601" on="1"/>
        <pt x="34" y="616" on="0"/>
        <pt x="30" y="661" on="0"/>
        <pt x="30" y="679" on="1"/>
        <pt x="46" y="678" on="0"/>
        <pt x="89" y="677" on="0"/>
        <pt x="136" y="676" on="0"/>
        <pt x="159" y="676" on="1"/>
        <pt x="248" y="676" on="1"/>
        <pt x="271" y="676" on="0"/>
        <pt x="318" y="677" on="0"/>
        <pt x="361" y="678" on="0"/>
        <pt x="378" y="679" on="1"/>
        <pt x="378" y="656" on="0"/>
        <pt x="374" y="618" on="0"/>
        <pt x="369" y="601" on="1"/>
        <pt x="346" y="599" on="0"/>
        <pt x="320" y="587" on="0"/>
        <pt x="307" y="561" on="0"/>
        <pt x="304" y="519" on="0"/>
        <pt x="304" y="488" on="1"/>
      </contour>
    </TTGlyph>
    <TTGlyph name="K" xMin="30" yMin="-9" xMax="757" yMax="679">
      <contour>
        <pt x="104" y="491" on="1"/>
        <pt x="104" y="525" on="0"/>
        <pt x="99" y="565" on="0"/>
        <pt x="86" y="588" on="0"/>
        <pt x="60" y="598" on="0"/>
        <pt x="39" y="601" on="1"/>
        <pt x="35" y="616" on="0"/>
        <pt x="30" y="659" on="0"/>
        <pt x="30" y="679" on="1"/>
        <pt x="42" y="678" on="0"/>
        <pt x="88" y="677" on="0"/>
        <pt x="140" y="676" on="0"/>
        <pt x="165" y="676" on="1"/>
        <pt x="250" y="676" on="1"/>
        <pt x="273" y="676" on="0"/>
        <pt x="320" y="677" on="0"/>
        <pt x="363" y="678" on="0"/>
        <pt x="378" y="679" on="1"/>
        <pt x="378" y="659" on="0"/>
        <pt x="376" y="621" on="0"/>
        <pt x="369" y="601" on="1"/>
        <pt x="348" y="599" on="0"/>
        <pt x="323" y="589" on="0"/>
        <pt x="309" y="566" on="0"/>
        <pt x="304" y="525" on="0"/>
        <pt x="304" y="491" on="1"/>
        <pt x="304" y="375" on="1"/>
        <pt x="439" y="509" on="1"/>
        <pt x="462" y="532" on="0"/>
        <pt x="485" y="566" on="0"/>
        <pt x="488" y="589" on="0"/>
        <pt x="473" y="600" on="0"/>
        <pt x="460" y="601" on="1"/>
        <pt x="455" y="618" on="0"/>
        <pt x="451" y="661" on="0"/>
        <pt x="451" y="679" on="1"/>
        <pt x="470" y="677" on="0"/>
        <pt x="535" y="676" on="0"/>
        <pt x="564" y="676" on="1"/>
        <pt x="601" y="676" on="1"/>
        <pt x="623" y="676" on="0"/>
        <pt x="669" y="677" on="0"/>
        <pt x="708" y="678" on="0"/>
        <pt x="717" y="679" on="1"/>
        <pt x="717" y="662" on="0"/>
        <pt x="711" y="615" on="0"/>
        <pt x="706" y="601" on="1"/>
        <pt x="668" y="599" on="0"/>
        <pt x="600" y="562" on="0"/>
        <pt x="565" y="526" on="1"/>
        <pt x="458" y="415" on="1"/>
        <pt x="506" y="356" on="0"/>
        <pt x="544" y="301" on="1"/>
        <pt x="587" y="240" on="0"/>
        <pt x="626" y="176" on="1"/>
        <pt x="659" y="123" on="0"/>
        <pt x="719" y="79" on="0"/>
        <pt x="757" y="75" on="1"/>
        <pt x="757" y="52" on="0"/>
        <pt x="753" y="15" on="0"/>
        <pt x="745" y="0" on="1"/>
        <pt x="726" y="0" on="0"/>
        <pt x="657" y="-1" on="0"/>
        <pt x="580" y="-3" on="0"/>
        <pt x="511" y="-6" on="0"/>
        <pt x="492" y="-9" on="1"/>
        <pt x="447" y="83" on="0"/>
        <pt x="394" y="171" on="1"/>
        <pt x="355" y="237" on="0"/>
        <pt x="304" y="299" on="1"/>
        <pt x="304" y="187" on="1"/>
        <pt x="304" y="152" on="0"/>
        <pt x="309" y="110" on="0"/>
        <pt x="324" y="86" on="0"/>
        <pt x="350" y="76" on="0"/>
        <pt x="370" y="75" on="1"/>
        <pt x="374" y="61" on="0"/>
        <pt x="378" y="17" on="0"/>
        <pt x="378" y="-3" on="1"/>
        <pt x="355" y="-1" on="0"/>
        <pt x="271" y="0" on="0"/>
        <pt x="219" y="0" on="1"/>
        <pt x="167" y="0" on="0"/>
        <pt x="65" y="-1" on="0"/>
        <pt x="30" y="-3" on="1"/>
        <pt x="30" y="15" on="0"/>
        <pt x="36" y="61" on="0"/>
        <pt x="40" y="75" on="1"/>
        <pt x="60" y="76" on="0"/>
        <pt x="85" y="86" on="0"/>
        <pt x="99" y="110" on="0"/>
        <pt x="104" y="152" on="0"/>
        <pt x="104" y="187" on="1"/>
      </contour>
    </TTGlyph>
    <TTGlyph name="L" xMin="30" yMin="-3" xMax="631" yMax="679">
      <contour>
        <pt x="399" y="75" on="1"/>
        <pt x="450" y="75" on="0"/>
        <pt x="509" y="139" on="0"/>
        <pt x="529" y="211" on="1"/>
        <pt x="562" y="208" on="0"/>
        <pt x="618" y="189" on="0"/>
        <pt x="631" y="177" on="1"/>
        <pt x="620" y="142" on="0"/>
        <pt x="604" y="47" on="0"/>
        <pt x="600" y="-2" on="1"/>
        <pt x="578" y="-2" on="0"/>
        <pt x="514" y="-1" on="0"/>
        <pt x="443" y="0" on="0"/>
        <pt x="406" y="0" on="1"/>
        <pt x="339" y="0" on="1"/>
        <pt x="313" y="0" on="0"/>
        <pt x="223" y="-1" on="0"/>
        <pt x="128" y="-2" on="0"/>
        <pt x="47" y="-3" on="0"/>
        <pt x="30" y="-3" on="1"/>
        <pt x="30" y="19" on="0"/>
        <pt x="34" y="61" on="0"/>
        <pt x="38" y="75" on="1"/>
        <pt x="58" y="76" on="0"/>
        <pt x="84" y="86" on="0"/>
        <pt x="99" y="110" on="0"/>
        <pt x="104" y="152" on="0"/>
        <pt x="104" y="187" on="1"/>
        <pt x="104" y="491" on="1"/>
        <pt x="104" y="525" on="0"/>
        <pt x="99" y="565" on="0"/>
        <pt x="84" y="588" on="0"/>
        <pt x="58" y="598" on="0"/>
        <pt x="37" y="601" on="1"/>
        <pt x="33" y="616" on="0"/>
        <pt x="30" y="662" on="0"/>
        <pt x="30" y="679" on="1"/>
        <pt x="54" y="678" on="0"/>
        <pt x="93" y="677" on="0"/>
        <pt x="133" y="676" on="0"/>
        <pt x="154" y="676" on="1"/>
        <pt x="246" y="676" on="1"/>
        <pt x="270" y="676" on="0"/>
        <pt x="318" y="677" on="0"/>
        <pt x="363" y="678" on="0"/>
        <pt x="378" y="679" on="1"/>
        <pt x="378" y="659" on="0"/>
        <pt x="376" y="617" on="0"/>
        <pt x="369" y="601" on="1"/>
        <pt x="348" y="599" on="0"/>
        <pt x="323" y="589" on="0"/>
        <pt x="309" y="566" on="0"/>
        <pt x="304" y="525" on="0"/>
        <pt x="304" y="491" on="1"/>
        <pt x="304" y="192" on="1"/>
        <pt x="304" y="157" on="0"/>
        <pt x="311" y="112" on="0"/>
        <pt x="329" y="86" on="0"/>
        <pt x="359" y="75" on="0"/>
        <pt x="382" y="75" on="1"/>
      </contour>
    </TTGlyph>
    <TTGlyph name="M" xMin="10" yMin="-9" xMax="988" yMax="679">
      <contour>
        <pt x="306" y="677" on="1"/>
        <pt x="324" y="678" on="0"/>
        <pt x="332" y="679" on="1"/>
        <pt x="513" y="247" on="1"/>
        <pt x="669" y="679" on="1"/>
        <pt x="682" y="678" on="0"/>
        <pt x="722" y="677" on="0"/>
        <pt x="763" y="676" on="0"/>
        <pt x="782" y="676" on="1"/>
        <pt x="843" y="676" on="1"/>
        <pt x="862" y="676" on="0"/>
        <pt x="901" y="677" on="0"/>
        <pt x="937" y="678" on="0"/>
        <pt x="948" y="679" on="1"/>
        <pt x="948" y="658" on="0"/>
        <pt x="945" y="616" on="0"/>
        <pt x="940" y="601" on="1"/>
        <pt x="917" y="601" on="0"/>
        <pt x="889" y="590" on="0"/>
        <pt x="875" y="563" on="0"/>
        <pt x="873" y="518" on="0"/>
        <pt x="876" y="485" on="1"/>
        <pt x="904" y="211" on="1"/>
        <pt x="908" y="166" on="0"/>
        <pt x="918" y="115" on="0"/>
        <pt x="935" y="88" on="0"/>
        <pt x="961" y="78" on="0"/>
        <pt x="981" y="76" on="1"/>
        <pt x="988" y="44" on="0"/>
        <pt x="988" y="-3" on="1"/>
        <pt x="978" y="-2" on="0"/>
        <pt x="929" y="-1" on="0"/>
        <pt x="870" y="0" on="0"/>
        <pt x="840" y="0" on="1"/>
        <pt x="793" y="0" on="1"/>
        <pt x="775" y="0" on="0"/>
        <pt x="729" y="-1" on="0"/>
        <pt x="685" y="-2" on="0"/>
        <pt x="648" y="-3" on="0"/>
        <pt x="639" y="-3" on="1"/>
        <pt x="639" y="22" on="0"/>
        <pt x="644" y="57" on="0"/>
        <pt x="648" y="75" on="1"/>
        <pt x="671" y="78" on="0"/>
        <pt x="697" y="88" on="0"/>
        <pt x="709" y="114" on="0"/>
        <pt x="709" y="161" on="0"/>
        <pt x="705" y="200" on="1"/>
        <pt x="675" y="475" on="1"/>
        <pt x="489" y="-1" on="1"/>
        <pt x="476" y="-6" on="0"/>
        <pt x="432" y="-9" on="0"/>
        <pt x="414" y="-9" on="1"/>
        <pt x="203" y="472" on="1"/>
        <pt x="179" y="246" on="1"/>
        <pt x="174" y="193" on="0"/>
        <pt x="175" y="128" on="0"/>
        <pt x="190" y="91" on="0"/>
        <pt x="217" y="76" on="0"/>
        <pt x="238" y="75" on="1"/>
        <pt x="243" y="58" on="0"/>
        <pt x="246" y="19" on="0"/>
        <pt x="246" y="-3" on="1"/>
        <pt x="231" y="-1" on="0"/>
        <pt x="168" y="0" on="0"/>
        <pt x="136" y="0" on="1"/>
        <pt x="120" y="0" on="0"/>
        <pt x="83" y="-1" on="0"/>
        <pt x="47" y="-2" on="0"/>
        <pt x="17" y="-3" on="0"/>
        <pt x="10" y="-3" on="1"/>
        <pt x="10" y="19" on="0"/>
        <pt x="13" y="58" on="0"/>
        <pt x="18" y="75" on="1"/>
        <pt x="37" y="76" on="0"/>
        <pt x="65" y="92" on="0"/>
        <pt x="86" y="130" on="0"/>
        <pt x="99" y="194" on="0"/>
        <pt x="104" y="242" on="1"/>
        <pt x="126" y="486" on="1"/>
        <pt x="129" y="522" on="0"/>
        <pt x="127" y="567" on="0"/>
        <pt x="113" y="592" on="0"/>
        <pt x="85" y="601" on="0"/>
        <pt x="64" y="601" on="1"/>
        <pt x="59" y="619" on="0"/>
        <pt x="56" y="655" on="0"/>
        <pt x="56" y="679" on="1"/>
        <pt x="67" y="678" on="0"/>
        <pt x="105" y="677" on="0"/>
        <pt x="146" y="676" on="0"/>
        <pt x="165" y="676" on="1"/>
        <pt x="228" y="676" on="1"/>
        <pt x="248" y="676" on="0"/>
        <pt x="289" y="677" on="0"/>
      </contour>
    </TTGlyph>
    <TTGlyph name="N" xMin="30" yMin="-9" xMax="696" yMax="679">
      <contour>
        <pt x="459" y="679" on="1"/>
        <pt x="469" y="678" on="0"/>
        <pt x="503" y="677" on="0"/>
        <pt x="541" y="676" on="0"/>
        <pt x="559" y="676" on="1"/>
        <pt x="590" y="676" on="1"/>
        <pt x="616" y="676" on="0"/>
        <pt x="678" y="677" on="0"/>
        <pt x="696" y="679" on="1"/>
        <pt x="696" y="660" on="0"/>
        <pt x="695" y="620" on="0"/>
        <pt x="689" y="601" on="1"/>
        <pt x="669" y="598" on="0"/>
        <pt x="645" y="586" on="0"/>
        <pt x="631" y="556" on="0"/>
        <pt x="626" y="502" on="0"/>
        <pt x="626" y="458" on="1"/>
        <pt x="626" y="0" on="1"/>
        <pt x="606" y="-6" on="0"/>
        <pt x="563" y="-9" on="0"/>
        <pt x="535" y="-9" on="1"/>
        <pt x="194" y="452" on="1"/>
        <pt x="194" y="218" on="1"/>
        <pt x="194" y="175" on="0"/>
        <pt x="200" y="122" on="0"/>
        <pt x="218" y="91" on="0"/>
        <pt x="249" y="78" on="0"/>
        <pt x="273" y="75" on="1"/>
        <pt x="278" y="58" on="0"/>
        <pt x="280" y="17" on="0"/>
        <pt x="280" y="-3" on="1"/>
        <pt x="269" y="-2" on="0"/>
        <pt x="239" y="-1" on="0"/>
        <pt x="205" y="0" on="0"/>
        <pt x="188" y="0" on="1"/>
        <pt x="159" y="0" on="1"/>
        <pt x="146" y="0" on="0"/>
        <pt x="109" y="1" on="0"/>
        <pt x="90" y="1" on="1"/>
        <pt x="55" y="1" on="1"/>
        <pt x="39" y="1" on="0"/>
        <pt x="30" y="0" on="1"/>
        <pt x="30" y="24" on="0"/>
        <pt x="33" y="58" on="0"/>
        <pt x="38" y="75" on="1"/>
        <pt x="61" y="78" on="0"/>
        <pt x="92" y="91" on="0"/>
        <pt x="111" y="122" on="0"/>
        <pt x="119" y="175" on="0"/>
        <pt x="119" y="218" on="1"/>
        <pt x="119" y="554" on="1"/>
        <pt x="105" y="573" on="1"/>
        <pt x="97" y="587" on="0"/>
        <pt x="70" y="598" on="0"/>
        <pt x="38" y="601" on="1"/>
        <pt x="33" y="618" on="0"/>
        <pt x="30" y="656" on="0"/>
        <pt x="30" y="679" on="1"/>
        <pt x="40" y="678" on="0"/>
        <pt x="74" y="677" on="0"/>
        <pt x="113" y="676" on="0"/>
        <pt x="132" y="676" on="1"/>
        <pt x="190" y="676" on="1"/>
        <pt x="206" y="676" on="0"/>
        <pt x="237" y="677" on="0"/>
        <pt x="266" y="678" on="0"/>
        <pt x="276" y="679" on="1"/>
        <pt x="551" y="300" on="1"/>
        <pt x="551" y="458" on="1"/>
        <pt x="551" y="501" on="0"/>
        <pt x="545" y="554" on="0"/>
        <pt x="526" y="585" on="0"/>
        <pt x="493" y="598" on="0"/>
        <pt x="466" y="601" on="1"/>
        <pt x="461" y="618" on="0"/>
        <pt x="459" y="662" on="0"/>
      </contour>
    </TTGlyph>
    <TTGlyph name="Ntilde" xMin="30" yMin="-9" xMax="696" yMax="910">
      <component glyphName="N" x="0" y="0" flags="0x204"/>
      <component glyphName="tilde" x="100" y="223" flags="0x4"/>
    </TTGlyph>
    <TTGlyph name="O" xMin="35" yMin="-9" xMax="726" yMax="685">
      <contour>
        <pt x="35" y="341" on="1"/>
        <pt x="35" y="421" on="0"/>
        <pt x="86" y="548" on="0"/>
        <pt x="177" y="637" on="0"/>
        <pt x="304" y="685" on="0"/>
        <pt x="380" y="685" on="1"/>
        <pt x="458" y="685" on="0"/>
        <pt x="586" y="638" on="0"/>
        <pt x="677" y="552" on="0"/>
        <pt x="726" y="429" on="0"/>
        <pt x="726" y="354" on="1"/>
        <pt x="726" y="273" on="0"/>
        <pt x="677" y="140" on="0"/>
        <pt x="587" y="44" on="0"/>
        <pt x="459" y="-9" on="0"/>
        <pt x="380" y="-9" on="1"/>
        <pt x="299" y="-9" on="0"/>
        <pt x="171" y="42" on="0"/>
        <pt x="82" y="134" on="0"/>
        <pt x="35" y="263" on="0"/>
      </contour>
      <contour>
        <pt x="240" y="365" on="1"/>
        <pt x="240" y="305" on="0"/>
        <pt x="258" y="197" on="0"/>
        <pt x="295" y="116" on="0"/>
        <pt x="352" y="69" on="0"/>
        <pt x="392" y="69" on="1"/>
        <pt x="423" y="69" on="0"/>
        <pt x="471" y="106" on="0"/>
        <pt x="504" y="175" on="0"/>
        <pt x="521" y="273" on="0"/>
        <pt x="521" y="333" on="1"/>
        <pt x="521" y="390" on="0"/>
        <pt x="500" y="491" on="0"/>
        <pt x="460" y="566" on="0"/>
        <pt x="403" y="610" on="0"/>
        <pt x="367" y="610" on="1"/>
        <pt x="306" y="610" on="0"/>
        <pt x="240" y="483" on="0"/>
      </contour>
    </TTGlyph>
    <TTGlyph name="Oacute" xMin="35" yMin="-9" xMax="726" yMax="942">
      <component glyphName="O" x="0" y="0" flags="0x204"/>
      <component glyphName="acute" x="131" y="223" flags="0x4"/>
    </TTGlyph>
    <TTGlyph name="Ocircumflex" xMin="35" yMin="-9" xMax="726" yMax="946">
      <component glyphName="O" x="0" y="0" flags="0x204"/>
      <component glyphName="circumflex" x="110" y="223" flags="0x4"/>
    </TTGlyph>
    <TTGlyph name="Odieresis" xMin="35" yMin="-9" xMax="726" yMax="899">
      <component glyphName="O" x="0" y="0" flags="0x204"/>
      <component glyphName="dieresis" x="31" y="223" flags="0x4"/>
    </TTGlyph>
    <TTGlyph name="Ograve" xMin="35" yMin="-9" xMax="726" yMax="940">
      <component glyphName="O" x="0" y="0" flags="0x204"/>
      <component glyphName="grave" x="242" y="223" flags="0x4"/>
    </TTGlyph>
    <TTGlyph name="Oslash" xMin="35" yMin="-26" xMax="730" yMax="700">
      <contour>
        <pt x="35" y="341" on="1"/>
        <pt x="35" y="421" on="0"/>
        <pt x="86" y="548" on="0"/>
        <pt x="177" y="637" on="0"/>
        <pt x="304" y="685" on="0"/>
        <pt x="380" y="685" on="1"/>
        <pt x="458" y="685" on="0"/>
        <pt x="522" y="661" on="1"/>
        <pt x="550" y="651" on="0"/>
        <pt x="575" y="637" on="1"/>
        <pt x="626" y="700" on="1"/>
        <pt x="655" y="700" on="0"/>
        <pt x="713" y="687" on="0"/>
        <pt x="730" y="676" on="1"/>
        <pt x="649" y="576" on="1"/>
        <pt x="682" y="539" on="0"/>
        <pt x="701" y="490" on="1"/>
        <pt x="726" y="429" on="0"/>
        <pt x="726" y="354" on="1"/>
        <pt x="726" y="273" on="0"/>
        <pt x="677" y="140" on="0"/>
        <pt x="587" y="44" on="0"/>
        <pt x="459" y="-9" on="0"/>
        <pt x="380" y="-9" on="1"/>
        <pt x="299" y="-9" on="0"/>
        <pt x="235" y="16" on="1"/>
        <pt x="220" y="22" on="0"/>
        <pt x="206" y="29" on="1"/>
        <pt x="160" y="-26" on="1"/>
        <pt x="127" y="-26" on="0"/>
        <pt x="72" y="-15" on="0"/>
        <pt x="56" y="-4" on="1"/>
        <pt x="130" y="84" on="1"/>
        <pt x="126" y="88" on="1"/>
        <pt x="82" y="134" on="0"/>
        <pt x="35" y="263" on="0"/>
      </contour>
      <contour>
        <pt x="240" y="365" on="1"/>
        <pt x="240" y="305" on="0"/>
        <pt x="249" y="251" on="1"/>
        <pt x="250" y="241" on="0"/>
        <pt x="252" y="232" on="1"/>
        <pt x="481" y="526" on="1"/>
        <pt x="480" y="528" on="1"/>
        <pt x="460" y="566" on="0"/>
        <pt x="403" y="610" on="0"/>
        <pt x="367" y="610" on="1"/>
        <pt x="306" y="610" on="0"/>
        <pt x="240" y="483" on="0"/>
      </contour>
      <contour>
        <pt x="323" y="92" on="1"/>
        <pt x="352" y="69" on="0"/>
        <pt x="392" y="69" on="1"/>
        <pt x="423" y="69" on="0"/>
        <pt x="471" y="106" on="0"/>
        <pt x="504" y="175" on="0"/>
        <pt x="521" y="273" on="0"/>
        <pt x="521" y="333" on="1"/>
        <pt x="521" y="375" on="0"/>
        <pt x="515" y="414" on="1"/>
        <pt x="292" y="127" on="1"/>
        <pt x="306" y="107" on="0"/>
      </contour>
    </TTGlyph>
    <TTGlyph name="Otilde" xMin="35" yMin="-9" xMax="726" yMax="910">
      <component glyphName="O" x="0" y="0" flags="0x204"/>
      <component glyphName="tilde" x="142" y="223" flags="0x4"/>
    </TTGlyph>
    <TTGlyph name="P" xMin="30" yMin="-3" xMax="643" yMax="679">
      <contour>
        <pt x="347" y="599" on="1"/>
        <pt x="322" y="599" on="0"/>
        <pt x="304" y="592" on="1"/>
        <pt x="304" y="197" on="1"/>
        <pt x="304" y="165" on="0"/>
        <pt x="314" y="120" on="0"/>
        <pt x="340" y="92" on="0"/>
        <pt x="381" y="77" on="0"/>
        <pt x="413" y="75" on="1"/>
        <pt x="419" y="58" on="0"/>
        <pt x="422" y="16" on="0"/>
        <pt x="422" y="-3" on="1"/>
        <pt x="408" y="-2" on="0"/>
        <pt x="363" y="-1" on="0"/>
        <pt x="310" y="0" on="0"/>
        <pt x="283" y="0" on="1"/>
        <pt x="176" y="0" on="1"/>
        <pt x="148" y="0" on="0"/>
        <pt x="94" y="-1" on="0"/>
        <pt x="47" y="-2" on="0"/>
        <pt x="30" y="-3" on="1"/>
        <pt x="30" y="24" on="0"/>
        <pt x="33" y="61" on="0"/>
        <pt x="37" y="75" on="1"/>
        <pt x="57" y="76" on="0"/>
        <pt x="83" y="86" on="0"/>
        <pt x="98" y="110" on="0"/>
        <pt x="104" y="152" on="0"/>
        <pt x="104" y="187" on="1"/>
        <pt x="104" y="491" on="1"/>
        <pt x="104" y="525" on="0"/>
        <pt x="99" y="565" on="0"/>
        <pt x="86" y="588" on="0"/>
        <pt x="60" y="598" on="0"/>
        <pt x="39" y="601" on="1"/>
        <pt x="35" y="616" on="0"/>
        <pt x="30" y="655" on="0"/>
        <pt x="30" y="679" on="1"/>
        <pt x="78" y="677" on="0"/>
        <pt x="158" y="676" on="0"/>
        <pt x="203" y="676" on="1"/>
        <pt x="248" y="676" on="0"/>
        <pt x="349" y="678" on="0"/>
        <pt x="420" y="678" on="1"/>
        <pt x="482" y="678" on="0"/>
        <pt x="567" y="643" on="0"/>
        <pt x="620" y="583" on="0"/>
        <pt x="643" y="504" on="0"/>
        <pt x="643" y="460" on="1"/>
        <pt x="643" y="409" on="0"/>
        <pt x="610" y="319" on="0"/>
        <pt x="548" y="253" on="0"/>
        <pt x="460" y="215" on="0"/>
        <pt x="406" y="215" on="1"/>
        <pt x="363" y="215" on="0"/>
        <pt x="337" y="225" on="1"/>
        <pt x="330" y="266" on="0"/>
        <pt x="346" y="297" on="1"/>
        <pt x="352" y="295" on="0"/>
        <pt x="357" y="295" on="1"/>
        <pt x="368" y="295" on="1"/>
        <pt x="384" y="295" on="0"/>
        <pt x="414" y="310" on="0"/>
        <pt x="438" y="345" on="0"/>
        <pt x="453" y="401" on="0"/>
        <pt x="453" y="442" on="1"/>
        <pt x="453" y="476" on="0"/>
        <pt x="440" y="533" on="0"/>
        <pt x="413" y="575" on="0"/>
        <pt x="373" y="599" on="0"/>
      </contour>
    </TTGlyph>
    <TTGlyph name="Q" xMin="35" yMin="-219" xMax="786" yMax="685">
      <contour>
        <pt x="380" y="-9" on="1"/>
        <pt x="299" y="-9" on="0"/>
        <pt x="171" y="42" on="0"/>
        <pt x="82" y="134" on="0"/>
        <pt x="35" y="263" on="0"/>
        <pt x="35" y="341" on="1"/>
        <pt x="35" y="421" on="0"/>
        <pt x="86" y="548" on="0"/>
        <pt x="177" y="637" on="0"/>
        <pt x="304" y="685" on="0"/>
        <pt x="380" y="685" on="1"/>
        <pt x="458" y="685" on="0"/>
        <pt x="586" y="638" on="0"/>
        <pt x="677" y="552" on="0"/>
        <pt x="726" y="429" on="0"/>
        <pt x="726" y="354" on="1"/>
        <pt x="726" y="273" on="0"/>
        <pt x="677" y="140" on="0"/>
        <pt x="587" y="44" on="0"/>
        <pt x="524" y="18" on="1"/>
        <pt x="538" y="14" on="0"/>
        <pt x="549" y="8" on="1"/>
        <pt x="575" y="-4" on="0"/>
        <pt x="617" y="-31" on="0"/>
        <pt x="654" y="-57" on="0"/>
        <pt x="696" y="-77" on="0"/>
        <pt x="749" y="-88" on="0"/>
        <pt x="785" y="-86" on="1"/>
        <pt x="786" y="-107" on="0"/>
        <pt x="780" y="-153" on="0"/>
        <pt x="775" y="-170" on="1"/>
        <pt x="726" y="-175" on="0"/>
        <pt x="630" y="-200" on="0"/>
        <pt x="590" y="-219" on="1"/>
        <pt x="564" y="-208" on="0"/>
        <pt x="529" y="-170" on="0"/>
        <pt x="502" y="-126" on="0"/>
        <pt x="477" y="-81" on="0"/>
        <pt x="448" y="-41" on="0"/>
        <pt x="409" y="-13" on="0"/>
      </contour>
      <contour>
        <pt x="240" y="365" on="1"/>
        <pt x="240" y="305" on="0"/>
        <pt x="258" y="197" on="0"/>
        <pt x="295" y="116" on="0"/>
        <pt x="352" y="69" on="0"/>
        <pt x="392" y="69" on="1"/>
        <pt x="423" y="69" on="0"/>
        <pt x="471" y="106" on="0"/>
        <pt x="504" y="175" on="0"/>
        <pt x="521" y="273" on="0"/>
        <pt x="521" y="333" on="1"/>
        <pt x="521" y="390" on="0"/>
        <pt x="500" y="491" on="0"/>
        <pt x="460" y="566" on="0"/>
        <pt x="403" y="610" on="0"/>
        <pt x="367" y="610" on="1"/>
        <pt x="306" y="610" on="0"/>
        <pt x="240" y="483" on="0"/>
      </contour>
    </TTGlyph>
    <TTGlyph name="R" xMin="30" yMin="-9" xMax="708" yMax="681">
      <contour>
        <pt x="202" y="676" on="1"/>
        <pt x="231" y="676" on="0"/>
        <pt x="344" y="681" on="0"/>
        <pt x="409" y="681" on="1"/>
        <pt x="474" y="681" on="0"/>
        <pt x="568" y="651" on="0"/>
        <pt x="629" y="600" on="0"/>
        <pt x="658" y="531" on="0"/>
        <pt x="658" y="493" on="1"/>
        <pt x="658" y="442" on="0"/>
        <pt x="630" y="365" on="0"/>
        <pt x="581" y="311" on="0"/>
        <pt x="548" y="296" on="1"/>
        <pt x="534" y="289" on="0"/>
        <pt x="519" y="285" on="1"/>
        <pt x="530" y="281" on="0"/>
        <pt x="538" y="276" on="1"/>
        <pt x="554" y="268" on="0"/>
        <pt x="581" y="236" on="0"/>
        <pt x="609" y="185" on="0"/>
        <pt x="629" y="145" on="1"/>
        <pt x="639" y="125" on="0"/>
        <pt x="655" y="101" on="0"/>
        <pt x="673" y="86" on="0"/>
        <pt x="693" y="79" on="0"/>
        <pt x="708" y="78" on="1"/>
        <pt x="708" y="37" on="0"/>
        <pt x="697" y="-1" on="1"/>
        <pt x="618" y="-1" on="0"/>
        <pt x="494" y="-5" on="0"/>
        <pt x="468" y="-9" on="1"/>
        <pt x="456" y="26" on="0"/>
        <pt x="429" y="106" on="0"/>
        <pt x="413" y="144" on="1"/>
        <pt x="402" y="172" on="0"/>
        <pt x="385" y="211" on="0"/>
        <pt x="366" y="239" on="0"/>
        <pt x="355" y="249" on="1"/>
        <pt x="349" y="254" on="0"/>
        <pt x="342" y="259" on="1"/>
        <pt x="333" y="259" on="1"/>
        <pt x="322" y="259" on="0"/>
        <pt x="311" y="259" on="1"/>
        <pt x="304" y="259" on="1"/>
        <pt x="304" y="197" on="1"/>
        <pt x="304" y="156" on="0"/>
        <pt x="309" y="108" on="0"/>
        <pt x="321" y="83" on="0"/>
        <pt x="339" y="76" on="0"/>
        <pt x="353" y="75" on="1"/>
        <pt x="357" y="64" on="0"/>
        <pt x="360" y="19" on="0"/>
        <pt x="360" y="-3" on="1"/>
        <pt x="346" y="-2" on="0"/>
        <pt x="301" y="-1" on="0"/>
        <pt x="251" y="0" on="0"/>
        <pt x="227" y="0" on="1"/>
        <pt x="185" y="0" on="1"/>
        <pt x="144" y="0" on="0"/>
        <pt x="65" y="-1" on="0"/>
        <pt x="30" y="-3" on="1"/>
        <pt x="30" y="23" on="0"/>
        <pt x="34" y="61" on="0"/>
        <pt x="38" y="75" on="1"/>
        <pt x="58" y="76" on="0"/>
        <pt x="84" y="86" on="0"/>
        <pt x="99" y="110" on="0"/>
        <pt x="104" y="152" on="0"/>
        <pt x="104" y="187" on="1"/>
        <pt x="104" y="493" on="1"/>
        <pt x="104" y="527" on="0"/>
        <pt x="99" y="567" on="0"/>
        <pt x="84" y="590" on="0"/>
        <pt x="58" y="600" on="0"/>
        <pt x="37" y="603" on="1"/>
        <pt x="35" y="610" on="0"/>
        <pt x="32" y="632" on="0"/>
        <pt x="31" y="655" on="0"/>
        <pt x="30" y="675" on="0"/>
        <pt x="30" y="680" on="1"/>
        <pt x="60" y="678" on="0"/>
        <pt x="150" y="676" on="0"/>
      </contour>
      <contour>
        <pt x="346" y="603" on="1"/>
        <pt x="324" y="603" on="0"/>
        <pt x="304" y="596" on="1"/>
        <pt x="304" y="350" on="1"/>
        <pt x="314" y="348" on="0"/>
        <pt x="319" y="348" on="1"/>
        <pt x="327" y="347" on="0"/>
        <pt x="334" y="347" on="1"/>
        <pt x="355" y="347" on="0"/>
        <pt x="397" y="362" on="0"/>
        <pt x="429" y="392" on="0"/>
        <pt x="449" y="438" on="0"/>
        <pt x="449" y="469" on="1"/>
        <pt x="449" y="534" on="0"/>
        <pt x="393" y="603" on="0"/>
      </contour>
    </TTGlyph>
    <TTGlyph name="S" xMin="28" yMin="-9" xMax="515" yMax="685">
      <contour>
        <pt x="275" y="685" on="1"/>
        <pt x="340" y="685" on="0"/>
        <pt x="440" y="663" on="0"/>
        <pt x="466" y="648" on="1"/>
        <pt x="466" y="603" on="0"/>
        <pt x="469" y="516" on="0"/>
        <pt x="473" y="490" on="1"/>
        <pt x="452" y="478" on="0"/>
        <pt x="386" y="469" on="0"/>
        <pt x="361" y="469" on="1"/>
        <pt x="355" y="510" on="0"/>
        <pt x="336" y="563" on="0"/>
        <pt x="309" y="593" on="0"/>
        <pt x="275" y="605" on="0"/>
        <pt x="254" y="605" on="1"/>
        <pt x="228" y="605" on="0"/>
        <pt x="185" y="576" on="0"/>
        <pt x="185" y="544" on="1"/>
        <pt x="185" y="512" on="0"/>
        <pt x="234" y="470" on="0"/>
        <pt x="307" y="434" on="0"/>
        <pt x="393" y="397" on="0"/>
        <pt x="466" y="343" on="0"/>
        <pt x="515" y="263" on="0"/>
        <pt x="515" y="203" on="1"/>
        <pt x="515" y="155" on="0"/>
        <pt x="476" y="77" on="0"/>
        <pt x="406" y="21" on="0"/>
        <pt x="311" y="-9" on="0"/>
        <pt x="254" y="-9" on="1"/>
        <pt x="215" y="-9" on="0"/>
        <pt x="154" y="-3" on="0"/>
        <pt x="103" y="10" on="0"/>
        <pt x="55" y="31" on="0"/>
        <pt x="28" y="46" on="1"/>
        <pt x="36" y="88" on="0"/>
        <pt x="41" y="175" on="0"/>
        <pt x="41" y="216" on="1"/>
        <pt x="70" y="224" on="0"/>
        <pt x="132" y="228" on="0"/>
        <pt x="161" y="228" on="1"/>
        <pt x="164" y="181" on="0"/>
        <pt x="175" y="121" on="0"/>
        <pt x="198" y="87" on="0"/>
        <pt x="234" y="73" on="0"/>
        <pt x="263" y="73" on="1"/>
        <pt x="300" y="73" on="0"/>
        <pt x="349" y="110" on="0"/>
        <pt x="349" y="141" on="1"/>
        <pt x="349" y="171" on="0"/>
        <pt x="304" y="209" on="0"/>
        <pt x="235" y="242" on="0"/>
        <pt x="156" y="280" on="0"/>
        <pt x="87" y="338" on="0"/>
        <pt x="42" y="425" on="0"/>
        <pt x="42" y="492" on="1"/>
        <pt x="42" y="540" on="0"/>
        <pt x="79" y="612" on="0"/>
        <pt x="142" y="660" on="0"/>
        <pt x="227" y="685" on="0"/>
      </contour>
    </TTGlyph>
    <TTGlyph name="T" xMin="25" yMin="-3" xMax="694" yMax="679">
      <contour>
        <pt x="257" y="601" on="1"/>
        <pt x="255" y="601" on="1"/>
        <pt x="200" y="601" on="0"/>
        <pt x="144" y="538" on="0"/>
        <pt x="128" y="473" on="1"/>
        <pt x="100" y="473" on="0"/>
        <pt x="46" y="478" on="0"/>
        <pt x="25" y="488" on="1"/>
        <pt x="30" y="508" on="0"/>
        <pt x="39" y="557" on="0"/>
        <pt x="46" y="608" on="0"/>
        <pt x="50" y="658" on="0"/>
        <pt x="50" y="679" on="1"/>
        <pt x="81" y="678" on="0"/>
        <pt x="142" y="677" on="0"/>
        <pt x="213" y="676" on="0"/>
        <pt x="257" y="676" on="1"/>
        <pt x="460" y="676" on="1"/>
        <pt x="503" y="676" on="0"/>
        <pt x="575" y="677" on="0"/>
        <pt x="639" y="678" on="0"/>
        <pt x="670" y="679" on="1"/>
        <pt x="670" y="637" on="0"/>
        <pt x="683" y="534" on="0"/>
        <pt x="694" y="489" on="1"/>
        <pt x="674" y="481" on="0"/>
        <pt x="621" y="473" on="0"/>
        <pt x="590" y="473" on="1"/>
        <pt x="576" y="540" on="0"/>
        <pt x="528" y="601" on="0"/>
        <pt x="477" y="601" on="1"/>
        <pt x="457" y="601" on="1"/>
        <pt x="457" y="187" on="1"/>
        <pt x="457" y="152" on="0"/>
        <pt x="465" y="110" on="0"/>
        <pt x="486" y="86" on="0"/>
        <pt x="524" y="76" on="0"/>
        <pt x="555" y="75" on="1"/>
        <pt x="560" y="61" on="0"/>
        <pt x="565" y="17" on="0"/>
        <pt x="565" y="-3" on="1"/>
        <pt x="537" y="-1" on="0"/>
        <pt x="434" y="0" on="0"/>
        <pt x="370" y="0" on="1"/>
        <pt x="304" y="0" on="1"/>
        <pt x="270" y="0" on="0"/>
        <pt x="208" y="-1" on="0"/>
        <pt x="155" y="-2" on="0"/>
        <pt x="139" y="-3" on="1"/>
        <pt x="139" y="15" on="0"/>
        <pt x="146" y="61" on="0"/>
        <pt x="151" y="75" on="1"/>
        <pt x="182" y="76" on="0"/>
        <pt x="223" y="86" on="0"/>
        <pt x="247" y="110" on="0"/>
        <pt x="257" y="152" on="0"/>
        <pt x="257" y="187" on="1"/>
      </contour>
    </TTGlyph>
    <TTGlyph name="Thorn" xMin="31" yMin="-3" xMax="651" yMax="679">
      <contour>
        <pt x="105" y="491" on="1"/>
        <pt x="105" y="525" on="0"/>
        <pt x="100" y="565" on="0"/>
        <pt x="87" y="588" on="0"/>
        <pt x="61" y="598" on="0"/>
        <pt x="40" y="601" on="1"/>
        <pt x="36" y="616" on="0"/>
        <pt x="31" y="659" on="0"/>
        <pt x="31" y="679" on="1"/>
        <pt x="43" y="678" on="0"/>
        <pt x="89" y="677" on="0"/>
        <pt x="141" y="676" on="0"/>
        <pt x="166" y="676" on="1"/>
        <pt x="251" y="676" on="1"/>
        <pt x="274" y="676" on="0"/>
        <pt x="321" y="677" on="0"/>
        <pt x="364" y="678" on="0"/>
        <pt x="379" y="679" on="1"/>
        <pt x="379" y="659" on="0"/>
        <pt x="377" y="621" on="0"/>
        <pt x="370" y="601" on="1"/>
        <pt x="349" y="599" on="0"/>
        <pt x="324" y="589" on="0"/>
        <pt x="310" y="566" on="0"/>
        <pt x="307" y="545" on="1"/>
        <pt x="307" y="544" on="1"/>
        <pt x="344" y="544" on="1"/>
        <pt x="377" y="545" on="0"/>
        <pt x="428" y="545" on="1"/>
        <pt x="490" y="545" on="0"/>
        <pt x="575" y="515" on="0"/>
        <pt x="628" y="464" on="0"/>
        <pt x="651" y="396" on="0"/>
        <pt x="651" y="359" on="1"/>
        <pt x="651" y="312" on="0"/>
        <pt x="618" y="235" on="0"/>
        <pt x="556" y="179" on="0"/>
        <pt x="468" y="149" on="0"/>
        <pt x="414" y="149" on="1"/>
        <pt x="391" y="149" on="0"/>
        <pt x="359" y="152" on="0"/>
        <pt x="345" y="157" on="1"/>
        <pt x="341" y="180" on="0"/>
        <pt x="346" y="215" on="0"/>
        <pt x="354" y="229" on="1"/>
        <pt x="360" y="228" on="0"/>
        <pt x="371" y="229" on="0"/>
        <pt x="376" y="229" on="1"/>
        <pt x="392" y="229" on="0"/>
        <pt x="422" y="242" on="0"/>
        <pt x="446" y="270" on="0"/>
        <pt x="461" y="314" on="0"/>
        <pt x="461" y="346" on="1"/>
        <pt x="461" y="397" on="0"/>
        <pt x="408" y="466" on="0"/>
        <pt x="355" y="466" on="1"/>
        <pt x="345" y="466" on="0"/>
        <pt x="331" y="465" on="1"/>
        <pt x="318" y="464" on="0"/>
        <pt x="305" y="458" on="1"/>
        <pt x="305" y="187" on="1"/>
        <pt x="305" y="152" on="0"/>
        <pt x="310" y="110" on="0"/>
        <pt x="325" y="86" on="0"/>
        <pt x="351" y="76" on="0"/>
        <pt x="371" y="75" on="1"/>
        <pt x="375" y="61" on="0"/>
        <pt x="379" y="17" on="0"/>
        <pt x="379" y="-3" on="1"/>
        <pt x="356" y="-1" on="0"/>
        <pt x="272" y="0" on="0"/>
        <pt x="220" y="0" on="1"/>
        <pt x="168" y="0" on="0"/>
        <pt x="66" y="-1" on="0"/>
        <pt x="31" y="-3" on="1"/>
        <pt x="31" y="15" on="0"/>
        <pt x="37" y="61" on="0"/>
        <pt x="41" y="75" on="1"/>
        <pt x="61" y="76" on="0"/>
        <pt x="86" y="86" on="0"/>
        <pt x="100" y="110" on="0"/>
        <pt x="105" y="152" on="0"/>
        <pt x="105" y="187" on="1"/>
      </contour>
    </TTGlyph>
    <TTGlyph name="U" xMin="20" yMin="-9" xMax="667" yMax="679">
      <contour>
        <pt x="596" y="277" on="1"/>
        <pt x="596" y="190" on="0"/>
        <pt x="571" y="79" on="0"/>
        <pt x="536" y="44" on="1"/>
        <pt x="505" y="15" on="0"/>
        <pt x="417" y="-9" on="0"/>
        <pt x="359" y="-9" on="1"/>
        <pt x="284" y="-9" on="0"/>
        <pt x="182" y="19" on="0"/>
        <pt x="120" y="79" on="0"/>
        <pt x="94" y="173" on="0"/>
        <pt x="94" y="239" on="1"/>
        <pt x="94" y="486" on="1"/>
        <pt x="94" y="521" on="0"/>
        <pt x="88" y="563" on="0"/>
        <pt x="73" y="587" on="0"/>
        <pt x="48" y="598" on="0"/>
        <pt x="28" y="601" on="1"/>
        <pt x="20" y="635" on="0"/>
        <pt x="20" y="679" on="1"/>
        <pt x="40" y="677" on="0"/>
        <pt x="115" y="676" on="0"/>
        <pt x="156" y="676" on="1"/>
        <pt x="206" y="676" on="1"/>
        <pt x="237" y="676" on="0"/>
        <pt x="299" y="677" on="0"/>
        <pt x="352" y="678" on="0"/>
        <pt x="364" y="679" on="1"/>
        <pt x="364" y="655" on="0"/>
        <pt x="362" y="618" on="0"/>
        <pt x="358" y="601" on="1"/>
        <pt x="338" y="598" on="0"/>
        <pt x="313" y="587" on="0"/>
        <pt x="299" y="563" on="0"/>
        <pt x="294" y="520" on="0"/>
        <pt x="294" y="486" on="1"/>
        <pt x="294" y="256" on="1"/>
        <pt x="294" y="162" on="0"/>
        <pt x="349" y="72" on="0"/>
        <pt x="406" y="72" on="1"/>
        <pt x="429" y="72" on="0"/>
        <pt x="476" y="92" on="0"/>
        <pt x="492" y="115" on="1"/>
        <pt x="505" y="134" on="0"/>
        <pt x="520" y="210" on="0"/>
        <pt x="520" y="287" on="1"/>
        <pt x="520" y="467" on="1"/>
        <pt x="520" y="504" on="0"/>
        <pt x="513" y="553" on="0"/>
        <pt x="498" y="583" on="0"/>
        <pt x="472" y="597" on="0"/>
        <pt x="454" y="601" on="1"/>
        <pt x="448" y="641" on="0"/>
        <pt x="448" y="679" on="1"/>
        <pt x="458" y="678" on="0"/>
        <pt x="487" y="677" on="0"/>
        <pt x="519" y="676" on="0"/>
        <pt x="534" y="676" on="1"/>
        <pt x="560" y="676" on="1"/>
        <pt x="589" y="676" on="0"/>
        <pt x="648" y="677" on="0"/>
        <pt x="667" y="679" on="1"/>
        <pt x="667" y="657" on="0"/>
        <pt x="664" y="618" on="0"/>
        <pt x="659" y="601" on="1"/>
        <pt x="639" y="598" on="0"/>
        <pt x="615" y="585" on="0"/>
        <pt x="601" y="556" on="0"/>
        <pt x="596" y="510" on="0"/>
        <pt x="596" y="476" on="1"/>
      </contour>
    </TTGlyph>
    <TTGlyph name="Uacute" xMin="20" yMin="-9" xMax="667" yMax="942">
      <component glyphName="U" x="0" y="0" flags="0x204"/>
      <component glyphName="acute" x="118" y="223" flags="0x4"/>
    </TTGlyph>
    <TTGlyph name="Ucircumflex" xMin="20" yMin="-9" xMax="667" yMax="946">
      <component glyphName="U" x="0" y="0" flags="0x204"/>
      <component glyphName="circumflex" x="116" y="223" flags="0x4"/>
    </TTGlyph>
    <TTGlyph name="Udieresis" xMin="20" yMin="-9" xMax="667" yMax="899">
      <component glyphName="U" x="0" y="0" flags="0x204"/>
      <component glyphName="dieresis" x="24" y="223" flags="0x4"/>
    </TTGlyph>
    <TTGlyph name="Ugrave" xMin="20" yMin="-9" xMax="667" yMax="940">
      <component glyphName="U" x="0" y="0" flags="0x204"/>
      <component glyphName="grave" x="243" y="223" flags="0x4"/>
    </TTGlyph>
    <TTGlyph name="V" xMin="10" yMin="-9" xMax="697" yMax="679">
      <contour>
        <pt x="313" y="503" on="1"/>
        <pt x="331" y="462" on="0"/>
        <pt x="364" y="388" on="0"/>
        <pt x="395" y="312" on="0"/>
        <pt x="409" y="270" on="1"/>
        <pt x="417" y="248" on="0"/>
        <pt x="424" y="224" on="1"/>
        <pt x="434" y="247" on="0"/>
        <pt x="442" y="268" on="1"/>
        <pt x="458" y="310" on="0"/>
        <pt x="486" y="390" on="0"/>
        <pt x="514" y="474" on="0"/>
        <pt x="530" y="525" on="1"/>
        <pt x="539" y="554" on="0"/>
        <pt x="524" y="596" on="0"/>
        <pt x="492" y="601" on="1"/>
        <pt x="488" y="614" on="0"/>
        <pt x="484" y="650" on="0"/>
        <pt x="484" y="679" on="1"/>
        <pt x="493" y="678" on="0"/>
        <pt x="521" y="677" on="0"/>
        <pt x="553" y="676" on="0"/>
        <pt x="569" y="676" on="1"/>
        <pt x="598" y="676" on="1"/>
        <pt x="623" y="676" on="0"/>
        <pt x="682" y="677" on="0"/>
        <pt x="697" y="679" on="1"/>
        <pt x="697" y="656" on="0"/>
        <pt x="691" y="617" on="0"/>
        <pt x="687" y="601" on="1"/>
        <pt x="674" y="598" on="0"/>
        <pt x="653" y="587" on="0"/>
        <pt x="635" y="564" on="0"/>
        <pt x="617" y="527" on="0"/>
        <pt x="607" y="500" on="1"/>
        <pt x="562" y="376" on="0"/>
        <pt x="469" y="132" on="0"/>
        <pt x="418" y="0" on="1"/>
        <pt x="401" y="-7" on="0"/>
        <pt x="349" y="-9" on="0"/>
        <pt x="326" y="-9" on="1"/>
        <pt x="272" y="120" on="0"/>
        <pt x="164" y="366" on="0"/>
        <pt x="107" y="482" on="1"/>
        <pt x="90" y="517" on="0"/>
        <pt x="67" y="561" on="0"/>
        <pt x="47" y="587" on="0"/>
        <pt x="29" y="599" on="0"/>
        <pt x="18" y="601" on="1"/>
        <pt x="10" y="628" on="0"/>
        <pt x="10" y="679" on="1"/>
        <pt x="23" y="678" on="0"/>
        <pt x="68" y="677" on="0"/>
        <pt x="117" y="676" on="0"/>
        <pt x="139" y="676" on="1"/>
        <pt x="204" y="676" on="1"/>
        <pt x="223" y="676" on="0"/>
        <pt x="269" y="677" on="0"/>
        <pt x="319" y="678" on="0"/>
        <pt x="343" y="679" on="1"/>
        <pt x="343" y="650" on="0"/>
        <pt x="339" y="613" on="0"/>
        <pt x="335" y="601" on="1"/>
        <pt x="316" y="598" on="0"/>
        <pt x="296" y="586" on="0"/>
        <pt x="292" y="564" on="0"/>
        <pt x="302" y="529" on="0"/>
      </contour>
    </TTGlyph>
    <TTGlyph name="W" xMin="10" yMin="-9" xMax="975" yMax="684">
      <contour>
        <pt x="10" y="679" on="1"/>
        <pt x="22" y="678" on="0"/>
        <pt x="69" y="677" on="0"/>
        <pt x="120" y="676" on="0"/>
        <pt x="143" y="676" on="1"/>
        <pt x="211" y="676" on="1"/>
        <pt x="233" y="676" on="0"/>
        <pt x="283" y="677" on="0"/>
        <pt x="332" y="678" on="0"/>
        <pt x="350" y="679" on="1"/>
        <pt x="350" y="658" on="0"/>
        <pt x="347" y="619" on="0"/>
        <pt x="342" y="601" on="1"/>
        <pt x="319" y="598" on="0"/>
        <pt x="293" y="585" on="0"/>
        <pt x="284" y="560" on="0"/>
        <pt x="292" y="517" on="0"/>
        <pt x="304" y="484" on="1"/>
        <pt x="324" y="427" on="0"/>
        <pt x="345" y="361" on="1"/>
        <pt x="356" y="326" on="0"/>
        <pt x="369" y="285" on="1"/>
        <pt x="505" y="676" on="1"/>
        <pt x="524" y="681" on="0"/>
        <pt x="569" y="684" on="0"/>
        <pt x="589" y="684" on="1"/>
        <pt x="616" y="619" on="0"/>
        <pt x="663" y="503" on="0"/>
        <pt x="708" y="389" on="0"/>
        <pt x="731" y="330" on="1"/>
        <pt x="742" y="302" on="0"/>
        <pt x="753" y="272" on="1"/>
        <pt x="807" y="458" on="1"/>
        <pt x="818" y="496" on="0"/>
        <pt x="823" y="547" on="0"/>
        <pt x="810" y="580" on="0"/>
        <pt x="780" y="597" on="0"/>
        <pt x="756" y="601" on="1"/>
        <pt x="749" y="618" on="0"/>
        <pt x="746" y="660" on="0"/>
        <pt x="746" y="679" on="1"/>
        <pt x="756" y="678" on="0"/>
        <pt x="786" y="677" on="0"/>
        <pt x="819" y="676" on="0"/>
        <pt x="835" y="676" on="1"/>
        <pt x="892" y="676" on="1"/>
        <pt x="907" y="676" on="0"/>
        <pt x="937" y="677" on="0"/>
        <pt x="965" y="678" on="0"/>
        <pt x="975" y="679" on="1"/>
        <pt x="975" y="659" on="0"/>
        <pt x="973" y="620" on="0"/>
        <pt x="966" y="601" on="1"/>
        <pt x="952" y="596" on="0"/>
        <pt x="931" y="579" on="0"/>
        <pt x="912" y="548" on="0"/>
        <pt x="894" y="497" on="0"/>
        <pt x="883" y="458" on="1"/>
        <pt x="754" y="0" on="1"/>
        <pt x="746" y="-2" on="0"/>
        <pt x="720" y="-6" on="0"/>
        <pt x="690" y="-8" on="0"/>
        <pt x="659" y="-9" on="0"/>
        <pt x="646" y="-9" on="1"/>
        <pt x="623" y="53" on="0"/>
        <pt x="580" y="164" on="0"/>
        <pt x="536" y="273" on="0"/>
        <pt x="513" y="329" on="1"/>
        <pt x="501" y="359" on="0"/>
        <pt x="488" y="390" on="1"/>
        <pt x="353" y="-2" on="1"/>
        <pt x="343" y="-4" on="0"/>
        <pt x="315" y="-7" on="0"/>
        <pt x="286" y="-9" on="0"/>
        <pt x="272" y="-9" on="1"/>
        <pt x="249" y="-9" on="1"/>
        <pt x="207" y="126" on="0"/>
        <pt x="128" y="372" on="0"/>
        <pt x="96" y="467" on="1"/>
        <pt x="81" y="511" on="0"/>
        <pt x="62" y="562" on="0"/>
        <pt x="46" y="589" on="0"/>
        <pt x="29" y="597" on="0"/>
        <pt x="17" y="598" on="1"/>
        <pt x="12" y="616" on="0"/>
        <pt x="10" y="657" on="0"/>
      </contour>
    </TTGlyph>
    <TTGlyph name="X" xMin="15" yMin="-3" xMax="705" yMax="679">
      <contour>
        <pt x="372" y="506" on="1"/>
        <pt x="395" y="470" on="0"/>
        <pt x="419" y="433" on="1"/>
        <pt x="456" y="490" on="1"/>
        <pt x="493" y="548" on="0"/>
        <pt x="492" y="596" on="0"/>
        <pt x="459" y="601" on="1"/>
        <pt x="454" y="618" on="0"/>
        <pt x="452" y="659" on="0"/>
        <pt x="452" y="679" on="1"/>
        <pt x="464" y="678" on="0"/>
        <pt x="481" y="677" on="1"/>
        <pt x="515" y="676" on="1"/>
        <pt x="532" y="676" on="0"/>
        <pt x="548" y="676" on="1"/>
        <pt x="602" y="676" on="1"/>
        <pt x="618" y="676" on="0"/>
        <pt x="650" y="677" on="0"/>
        <pt x="680" y="678" on="0"/>
        <pt x="689" y="679" on="1"/>
        <pt x="689" y="657" on="0"/>
        <pt x="687" y="619" on="0"/>
        <pt x="682" y="601" on="1"/>
        <pt x="659" y="595" on="0"/>
        <pt x="627" y="582" on="0"/>
        <pt x="599" y="559" on="0"/>
        <pt x="570" y="522" on="0"/>
        <pt x="551" y="492" on="1"/>
        <pt x="465" y="361" on="1"/>
        <pt x="468" y="356" on="0"/>
        <pt x="472" y="350" on="1"/>
        <pt x="495" y="314" on="0"/>
        <pt x="530" y="256" on="0"/>
        <pt x="539" y="241" on="1"/>
        <pt x="572" y="186" on="0"/>
        <pt x="615" y="122" on="0"/>
        <pt x="648" y="89" on="0"/>
        <pt x="677" y="78" on="0"/>
        <pt x="696" y="75" on="1"/>
        <pt x="702" y="58" on="0"/>
        <pt x="705" y="20" on="0"/>
        <pt x="705" y="-3" on="1"/>
        <pt x="694" y="-2" on="0"/>
        <pt x="651" y="-1" on="0"/>
        <pt x="598" y="0" on="0"/>
        <pt x="570" y="0" on="1"/>
        <pt x="468" y="0" on="1"/>
        <pt x="442" y="0" on="0"/>
        <pt x="393" y="-1" on="0"/>
        <pt x="352" y="-2" on="0"/>
        <pt x="341" y="-2" on="1"/>
        <pt x="341" y="19" on="0"/>
        <pt x="343" y="55" on="0"/>
        <pt x="348" y="75" on="1"/>
        <pt x="365" y="76" on="0"/>
        <pt x="382" y="86" on="0"/>
        <pt x="377" y="114" on="0"/>
        <pt x="349" y="169" on="0"/>
        <pt x="321" y="217" on="1"/>
        <pt x="314" y="229" on="0"/>
        <pt x="303" y="247" on="1"/>
        <pt x="269" y="197" on="1"/>
        <pt x="245" y="162" on="0"/>
        <pt x="222" y="117" on="0"/>
        <pt x="220" y="91" on="0"/>
        <pt x="239" y="78" on="0"/>
        <pt x="258" y="75" on="1"/>
        <pt x="263" y="56" on="0"/>
        <pt x="266" y="18" on="0"/>
        <pt x="266" y="-3" on="1"/>
        <pt x="240" y="-1" on="0"/>
        <pt x="167" y="0" on="0"/>
        <pt x="139" y="0" on="1"/>
        <pt x="107" y="0" on="1"/>
        <pt x="90" y="0" on="0"/>
        <pt x="56" y="-1" on="0"/>
        <pt x="25" y="-2" on="0"/>
        <pt x="15" y="-3" on="1"/>
        <pt x="15" y="20" on="0"/>
        <pt x="19" y="63" on="0"/>
        <pt x="24" y="77" on="1"/>
        <pt x="46" y="83" on="0"/>
        <pt x="84" y="100" on="0"/>
        <pt x="121" y="129" on="0"/>
        <pt x="157" y="170" on="0"/>
        <pt x="178" y="199" on="1"/>
        <pt x="260" y="315" on="1"/>
        <pt x="254" y="325" on="0"/>
        <pt x="247" y="336" on="1"/>
        <pt x="224" y="373" on="0"/>
        <pt x="172" y="454" on="0"/>
        <pt x="148" y="491" on="1"/>
        <pt x="125" y="525" on="0"/>
        <pt x="94" y="566" on="0"/>
        <pt x="70" y="589" on="0"/>
        <pt x="49" y="597" on="0"/>
        <pt x="35" y="600" on="1"/>
        <pt x="29" y="620" on="0"/>
        <pt x="26" y="657" on="0"/>
        <pt x="26" y="679" on="1"/>
        <pt x="39" y="678" on="0"/>
        <pt x="90" y="677" on="0"/>
        <pt x="150" y="676" on="0"/>
        <pt x="180" y="676" on="1"/>
        <pt x="233" y="676" on="1"/>
        <pt x="279" y="676" on="0"/>
        <pt x="357" y="677" on="0"/>
        <pt x="380" y="678" on="1"/>
        <pt x="380" y="659" on="0"/>
        <pt x="377" y="621" on="0"/>
        <pt x="373" y="601" on="1"/>
        <pt x="358" y="598" on="0"/>
        <pt x="339" y="589" on="0"/>
        <pt x="337" y="569" on="0"/>
        <pt x="353" y="534" on="0"/>
      </contour>
    </TTGlyph>
    <TTGlyph name="Y" xMin="10" yMin="-3" xMax="610" yMax="678">
      <contour>
        <pt x="416" y="287" on="1"/>
        <pt x="416" y="198" on="1"/>
        <pt x="416" y="161" on="0"/>
        <pt x="423" y="115" on="0"/>
        <pt x="444" y="88" on="0"/>
        <pt x="483" y="77" on="0"/>
        <pt x="515" y="75" on="1"/>
        <pt x="522" y="54" on="0"/>
        <pt x="525" y="21" on="0"/>
        <pt x="525" y="-3" on="1"/>
        <pt x="481" y="-1" on="0"/>
        <pt x="368" y="0" on="0"/>
        <pt x="311" y="0" on="1"/>
        <pt x="254" y="0" on="0"/>
        <pt x="145" y="-2" on="0"/>
        <pt x="98" y="-3" on="1"/>
        <pt x="99" y="19" on="0"/>
        <pt x="103" y="58" on="0"/>
        <pt x="110" y="75" on="1"/>
        <pt x="146" y="78" on="0"/>
        <pt x="188" y="87" on="0"/>
        <pt x="210" y="113" on="0"/>
        <pt x="216" y="159" on="0"/>
        <pt x="216" y="199" on="1"/>
        <pt x="216" y="292" on="1"/>
        <pt x="84" y="542" on="1"/>
        <pt x="66" y="577" on="0"/>
        <pt x="35" y="599" on="0"/>
        <pt x="18" y="601" on="1"/>
        <pt x="13" y="618" on="0"/>
        <pt x="10" y="653" on="0"/>
        <pt x="10" y="678" on="1"/>
        <pt x="28" y="677" on="0"/>
        <pt x="74" y="676" on="0"/>
        <pt x="97" y="676" on="1"/>
        <pt x="261" y="676" on="1"/>
        <pt x="285" y="676" on="0"/>
        <pt x="331" y="677" on="0"/>
        <pt x="346" y="678" on="1"/>
        <pt x="346" y="652" on="0"/>
        <pt x="342" y="618" on="0"/>
        <pt x="339" y="601" on="1"/>
        <pt x="323" y="599" on="0"/>
        <pt x="309" y="586" on="0"/>
        <pt x="307" y="567" on="0"/>
        <pt x="315" y="543" on="0"/>
        <pt x="321" y="530" on="1"/>
        <pt x="337" y="497" on="0"/>
        <pt x="357" y="447" on="1"/>
        <pt x="371" y="413" on="0"/>
        <pt x="385" y="378" on="1"/>
        <pt x="398" y="413" on="0"/>
        <pt x="411" y="444" on="1"/>
        <pt x="430" y="488" on="0"/>
        <pt x="450" y="529" on="1"/>
        <pt x="464" y="558" on="0"/>
        <pt x="451" y="599" on="0"/>
        <pt x="423" y="601" on="1"/>
        <pt x="418" y="618" on="0"/>
        <pt x="414" y="652" on="0"/>
        <pt x="414" y="678" on="1"/>
        <pt x="441" y="676" on="0"/>
        <pt x="464" y="676" on="1"/>
        <pt x="563" y="676" on="1"/>
        <pt x="586" y="676" on="0"/>
        <pt x="610" y="678" on="1"/>
        <pt x="610" y="652" on="0"/>
        <pt x="605" y="615" on="0"/>
        <pt x="601" y="601" on="1"/>
        <pt x="592" y="599" on="0"/>
        <pt x="577" y="592" on="0"/>
        <pt x="562" y="575" on="0"/>
        <pt x="543" y="543" on="0"/>
        <pt x="530" y="517" on="1"/>
      </contour>
    </TTGlyph>
    <TTGlyph name="Yacute" xMin="10" yMin="-3" xMax="610" yMax="942">
      <component glyphName="Y" x="0" y="0" flags="0x204"/>
      <component glyphName="acute" x="85" y="223" flags="0x4"/>
    </TTGlyph>
    <TTGlyph name="Z" xMin="30" yMin="-3" xMax="556" yMax="678">
      <contour>
        <pt x="68" y="678" on="1"/>
        <pt x="87" y="677" on="0"/>
        <pt x="146" y="676" on="0"/>
        <pt x="179" y="676" on="1"/>
        <pt x="415" y="676" on="1"/>
        <pt x="445" y="676" on="0"/>
        <pt x="501" y="677" on="0"/>
        <pt x="524" y="678" on="1"/>
        <pt x="533" y="663" on="0"/>
        <pt x="543" y="630" on="0"/>
        <pt x="545" y="608" on="1"/>
        <pt x="507" y="530" on="0"/>
        <pt x="438" y="391" on="0"/>
        <pt x="366" y="256" on="0"/>
        <pt x="328" y="187" on="1"/>
        <pt x="298" y="133" on="0"/>
        <pt x="264" y="75" on="1"/>
        <pt x="300" y="75" on="1"/>
        <pt x="333" y="75" on="0"/>
        <pt x="379" y="86" on="0"/>
        <pt x="413" y="117" on="0"/>
        <pt x="437" y="170" on="0"/>
        <pt x="448" y="212" on="1"/>
        <pt x="513" y="207" on="0"/>
        <pt x="556" y="183" on="1"/>
        <pt x="552" y="166" on="0"/>
        <pt x="542" y="119" on="0"/>
        <pt x="534" y="68" on="0"/>
        <pt x="528" y="17" on="0"/>
        <pt x="528" y="-3" on="1"/>
        <pt x="499" y="-2" on="0"/>
        <pt x="432" y="-1" on="0"/>
        <pt x="364" y="0" on="0"/>
        <pt x="331" y="0" on="1"/>
        <pt x="270" y="0" on="1"/>
        <pt x="210" y="0" on="0"/>
        <pt x="96" y="-1" on="0"/>
        <pt x="50" y="-3" on="1"/>
        <pt x="41" y="10" on="0"/>
        <pt x="30" y="47" on="0"/>
        <pt x="30" y="68" on="1"/>
        <pt x="75" y="147" on="0"/>
        <pt x="152" y="284" on="0"/>
        <pt x="223" y="417" on="0"/>
        <pt x="258" y="484" on="1"/>
        <pt x="287" y="539" on="0"/>
        <pt x="317" y="601" on="1"/>
        <pt x="264" y="601" on="1"/>
        <pt x="241" y="601" on="0"/>
        <pt x="207" y="589" on="0"/>
        <pt x="180" y="557" on="0"/>
        <pt x="159" y="500" on="0"/>
        <pt x="149" y="456" on="1"/>
        <pt x="117" y="456" on="0"/>
        <pt x="62" y="462" on="0"/>
        <pt x="43" y="470" on="1"/>
        <pt x="56" y="518" on="0"/>
        <pt x="68" y="633" on="0"/>
      </contour>
    </TTGlyph>
    <TTGlyph name="a" xMin="25" yMin="-9" xMax="565" yMax="467">
      <contour>
        <pt x="518" y="190" on="1"/>
        <pt x="518" y="164" on="0"/>
        <pt x="524" y="131" on="0"/>
        <pt x="536" y="113" on="0"/>
        <pt x="553" y="107" on="0"/>
        <pt x="565" y="107" on="1"/>
        <pt x="565" y="84" on="0"/>
        <pt x="561" y="43" on="0"/>
        <pt x="553" y="23" on="1"/>
        <pt x="499" y="20" on="0"/>
        <pt x="409" y="4" on="0"/>
        <pt x="378" y="-9" on="1"/>
        <pt x="358" y="-2" on="0"/>
        <pt x="337" y="21" on="0"/>
        <pt x="337" y="41" on="1"/>
        <pt x="337" y="53" on="0"/>
        <pt x="340" y="66" on="1"/>
        <pt x="342" y="76" on="0"/>
        <pt x="344" y="86" on="1"/>
        <pt x="338" y="70" on="0"/>
        <pt x="326" y="56" on="1"/>
        <pt x="312" y="38" on="0"/>
        <pt x="303" y="30" on="1"/>
        <pt x="280" y="13" on="0"/>
        <pt x="222" y="-7" on="0"/>
        <pt x="185" y="-7" on="1"/>
        <pt x="25" y="-7" on="0"/>
        <pt x="25" y="113" on="1"/>
        <pt x="25" y="164" on="0"/>
        <pt x="91" y="228" on="0"/>
        <pt x="186" y="266" on="0"/>
        <pt x="290" y="284" on="0"/>
        <pt x="328" y="289" on="1"/>
        <pt x="328" y="323" on="0"/>
        <pt x="318" y="363" on="0"/>
        <pt x="305" y="377" on="1"/>
        <pt x="296" y="388" on="0"/>
        <pt x="268" y="398" on="0"/>
        <pt x="254" y="398" on="1"/>
        <pt x="220" y="398" on="0"/>
        <pt x="187" y="339" on="0"/>
        <pt x="182" y="289" on="1"/>
        <pt x="147" y="289" on="0"/>
        <pt x="97" y="293" on="0"/>
        <pt x="73" y="302" on="1"/>
        <pt x="75" y="331" on="0"/>
        <pt x="74" y="393" on="0"/>
        <pt x="66" y="431" on="1"/>
        <pt x="108" y="447" on="0"/>
        <pt x="217" y="467" on="0"/>
        <pt x="281" y="467" on="1"/>
        <pt x="361" y="467" on="0"/>
        <pt x="448" y="443" on="0"/>
        <pt x="472" y="417" on="1"/>
        <pt x="481" y="407" on="0"/>
        <pt x="498" y="381" on="0"/>
        <pt x="511" y="344" on="0"/>
        <pt x="518" y="292" on="0"/>
        <pt x="518" y="256" on="1"/>
      </contour>
      <contour>
        <pt x="328" y="225" on="1"/>
        <pt x="262" y="212" on="0"/>
        <pt x="210" y="173" on="0"/>
        <pt x="210" y="144" on="1"/>
        <pt x="210" y="120" on="0"/>
        <pt x="232" y="102" on="0"/>
        <pt x="248" y="102" on="1"/>
        <pt x="262" y="102" on="0"/>
        <pt x="290" y="116" on="0"/>
        <pt x="313" y="143" on="0"/>
        <pt x="328" y="182" on="0"/>
        <pt x="328" y="208" on="1"/>
      </contour>
    </TTGlyph>
    <TTGlyph name="aacute" xMin="25" yMin="-9" xMax="565" yMax="727">
      <component glyphName="a" x="0" y="0" flags="0x204"/>
      <component glyphName="acute" x="11" y="8" flags="0x4"/>
    </TTGlyph>
    <TTGlyph name="acircumflex" xMin="25" yMin="-9" xMax="565" yMax="731">
      <component glyphName="a" x="0" y="0" flags="0x204"/>
      <component glyphName="circumflex" x="20" y="8" flags="0x4"/>
    </TTGlyph>
    <TTGlyph name="acute" xMin="225" yMin="530" xMax="452" yMax="719">
      <contour>
        <pt x="225" y="550" on="1"/>
        <pt x="248" y="595" on="0"/>
        <pt x="276" y="665" on="0"/>
        <pt x="286" y="706" on="1"/>
        <pt x="306" y="713" on="0"/>
        <pt x="360" y="719" on="0"/>
        <pt x="388" y="719" on="1"/>
        <pt x="405" y="719" on="0"/>
        <pt x="438" y="717" on="0"/>
        <pt x="452" y="715" on="1"/>
        <pt x="413" y="668" on="0"/>
        <pt x="347" y="576" on="0"/>
        <pt x="322" y="530" on="1"/>
        <pt x="295" y="530" on="0"/>
        <pt x="240" y="542" on="0"/>
      </contour>
    </TTGlyph>
    <TTGlyph name="adieresis" xMin="25" yMin="-9" xMax="565" yMax="684">
      <component glyphName="a" x="0" y="0" flags="0x204"/>
      <component glyphName="dieresis" x="-50" y="8" flags="0x4"/>
    </TTGlyph>
    <TTGlyph name="ae" xMin="35" yMin="-6" xMax="731" yMax="467">
      <contour>
        <pt x="495" y="194" on="1"/>
        <pt x="486" y="194" on="0"/>
        <pt x="477" y="194" on="1"/>
        <pt x="478" y="179" on="0"/>
        <pt x="482" y="165" on="1"/>
        <pt x="488" y="142" on="0"/>
        <pt x="514" y="107" on="0"/>
        <pt x="555" y="87" on="0"/>
        <pt x="583" y="87" on="1"/>
        <pt x="618" y="87" on="0"/>
        <pt x="672" y="104" on="0"/>
        <pt x="693" y="118" on="1"/>
        <pt x="704" y="108" on="0"/>
        <pt x="721" y="67" on="0"/>
        <pt x="720" y="46" on="1"/>
        <pt x="691" y="23" on="0"/>
        <pt x="592" y="-6" on="0"/>
        <pt x="526" y="-6" on="1"/>
        <pt x="462" y="-6" on="0"/>
        <pt x="373" y="35" on="0"/>
        <pt x="345" y="66" on="1"/>
        <pt x="341" y="70" on="0"/>
        <pt x="338" y="75" on="1"/>
        <pt x="330" y="61" on="0"/>
        <pt x="319" y="50" on="1"/>
        <pt x="304" y="34" on="0"/>
        <pt x="272" y="13" on="0"/>
        <pt x="236" y="0" on="0"/>
        <pt x="193" y="-6" on="0"/>
        <pt x="165" y="-6" on="1"/>
        <pt x="102" y="-6" on="0"/>
        <pt x="35" y="54" on="0"/>
        <pt x="35" y="110" on="1"/>
        <pt x="35" y="155" on="0"/>
        <pt x="78" y="215" on="0"/>
        <pt x="151" y="253" on="0"/>
        <pt x="200" y="262" on="1"/>
        <pt x="244" y="271" on="0"/>
        <pt x="293" y="275" on="1"/>
        <pt x="293" y="300" on="1"/>
        <pt x="293" y="348" on="0"/>
        <pt x="267" y="391" on="0"/>
        <pt x="242" y="391" on="1"/>
        <pt x="216" y="391" on="0"/>
        <pt x="192" y="343" on="0"/>
        <pt x="186" y="288" on="1"/>
        <pt x="161" y="288" on="0"/>
        <pt x="96" y="295" on="0"/>
        <pt x="74" y="306" on="1"/>
        <pt x="76" y="331" on="0"/>
        <pt x="74" y="404" on="0"/>
        <pt x="69" y="436" on="1"/>
        <pt x="117" y="453" on="0"/>
        <pt x="203" y="467" on="0"/>
        <pt x="256" y="467" on="1"/>
        <pt x="319" y="467" on="0"/>
        <pt x="357" y="447" on="1"/>
        <pt x="377" y="437" on="0"/>
        <pt x="393" y="419" on="1"/>
        <pt x="395" y="420" on="1"/>
        <pt x="415" y="437" on="0"/>
        <pt x="462" y="458" on="0"/>
        <pt x="513" y="467" on="0"/>
        <pt x="535" y="467" on="1"/>
        <pt x="596" y="467" on="0"/>
        <pt x="672" y="422" on="0"/>
        <pt x="715" y="357" on="0"/>
        <pt x="731" y="284" on="0"/>
        <pt x="731" y="256" on="1"/>
        <pt x="726" y="242" on="0"/>
        <pt x="706" y="210" on="0"/>
        <pt x="693" y="198" on="1"/>
        <pt x="664" y="198" on="0"/>
        <pt x="598" y="197" on="0"/>
        <pt x="530" y="196" on="0"/>
      </contour>
      <contour>
        <pt x="476" y="264" on="1"/>
        <pt x="508" y="265" on="1"/>
        <pt x="546" y="266" on="0"/>
        <pt x="578" y="266" on="1"/>
        <pt x="578" y="324" on="0"/>
        <pt x="555" y="391" on="0"/>
        <pt x="526" y="391" on="1"/>
        <pt x="500" y="391" on="0"/>
        <pt x="476" y="330" on="0"/>
        <pt x="476" y="276" on="1"/>
      </contour>
      <contour>
        <pt x="293" y="188" on="1"/>
        <pt x="293" y="197" on="0"/>
        <pt x="293" y="206" on="1"/>
        <pt x="239" y="200" on="0"/>
        <pt x="216" y="186" on="1"/>
        <pt x="192" y="170" on="0"/>
        <pt x="192" y="138" on="1"/>
        <pt x="192" y="114" on="0"/>
        <pt x="213" y="91" on="0"/>
        <pt x="230" y="91" on="1"/>
        <pt x="240" y="91" on="0"/>
        <pt x="262" y="102" on="0"/>
        <pt x="282" y="129" on="0"/>
        <pt x="288" y="151" on="1"/>
        <pt x="292" y="167" on="0"/>
      </contour>
    </TTGlyph>
    <TTGlyph name="agrave" xMin="25" yMin="-9" xMax="565" yMax="725">
      <component glyphName="a" x="0" y="0" flags="0x204"/>
      <component glyphName="grave" x="121" y="8" flags="0x4"/>
    </TTGlyph>
    <TTGlyph name="ampersand" xMin="53" yMin="-10" xMax="750" yMax="717">
      <contour>
        <pt x="637" y="160" on="1"/>
        <pt x="653" y="143" on="0"/>
        <pt x="678" y="121" on="0"/>
        <pt x="702" y="109" on="0"/>
        <pt x="730" y="104" on="0"/>
        <pt x="750" y="103" on="1"/>
        <pt x="750" y="82" on="0"/>
        <pt x="743" y="29" on="0"/>
        <pt x="736" y="10" on="1"/>
        <pt x="716" y="10" on="0"/>
        <pt x="667" y="7" on="0"/>
        <pt x="615" y="2" on="0"/>
        <pt x="563" y="-5" on="0"/>
        <pt x="540" y="-9" on="1"/>
        <pt x="516" y="23" on="0"/>
        <pt x="492" y="53" on="1"/>
        <pt x="488" y="49" on="0"/>
        <pt x="483" y="45" on="1"/>
        <pt x="459" y="27" on="0"/>
        <pt x="405" y="2" on="0"/>
        <pt x="341" y="-10" on="0"/>
        <pt x="301" y="-10" on="1"/>
        <pt x="175" y="-10" on="0"/>
        <pt x="53" y="93" on="0"/>
        <pt x="53" y="185" on="1"/>
        <pt x="53" y="274" on="0"/>
        <pt x="97" y="326" on="1"/>
        <pt x="139" y="376" on="0"/>
        <pt x="214" y="409" on="1"/>
        <pt x="199" y="435" on="0"/>
        <pt x="189" y="456" on="1"/>
        <pt x="175" y="486" on="0"/>
        <pt x="164" y="536" on="0"/>
        <pt x="164" y="561" on="1"/>
        <pt x="164" y="594" on="0"/>
        <pt x="188" y="651" on="0"/>
        <pt x="245" y="693" on="0"/>
        <pt x="340" y="717" on="0"/>
        <pt x="412" y="717" on="1"/>
        <pt x="473" y="717" on="0"/>
        <pt x="563" y="704" on="0"/>
        <pt x="608" y="688" on="1"/>
        <pt x="600" y="657" on="0"/>
        <pt x="597" y="573" on="0"/>
        <pt x="600" y="527" on="1"/>
        <pt x="549" y="515" on="0"/>
        <pt x="486" y="515" on="1"/>
        <pt x="481" y="578" on="0"/>
        <pt x="444" y="640" on="0"/>
        <pt x="399" y="640" on="1"/>
        <pt x="379" y="640" on="0"/>
        <pt x="353" y="610" on="0"/>
        <pt x="353" y="584" on="1"/>
        <pt x="353" y="565" on="0"/>
        <pt x="361" y="528" on="0"/>
        <pt x="382" y="483" on="0"/>
        <pt x="419" y="428" on="0"/>
        <pt x="447" y="391" on="1"/>
        <pt x="504" y="316" on="0"/>
        <pt x="548" y="260" on="1"/>
        <pt x="550" y="258" on="0"/>
        <pt x="551" y="256" on="1"/>
        <pt x="553" y="260" on="0"/>
        <pt x="555" y="263" on="1"/>
        <pt x="570" y="294" on="0"/>
        <pt x="577" y="323" on="1"/>
        <pt x="585" y="357" on="0"/>
        <pt x="562" y="387" on="0"/>
        <pt x="524" y="395" on="1"/>
        <pt x="518" y="413" on="0"/>
        <pt x="514" y="443" on="0"/>
        <pt x="514" y="461" on="1"/>
        <pt x="526" y="460" on="0"/>
        <pt x="558" y="459" on="0"/>
        <pt x="591" y="458" on="0"/>
        <pt x="607" y="458" on="1"/>
        <pt x="636" y="458" on="1"/>
        <pt x="661" y="458" on="0"/>
        <pt x="715" y="459" on="0"/>
        <pt x="740" y="461" on="1"/>
        <pt x="740" y="444" on="0"/>
        <pt x="737" y="413" on="0"/>
        <pt x="732" y="395" on="1"/>
        <pt x="714" y="390" on="0"/>
        <pt x="690" y="378" on="0"/>
        <pt x="674" y="361" on="0"/>
        <pt x="663" y="337" on="0"/>
        <pt x="657" y="320" on="1"/>
        <pt x="644" y="285" on="0"/>
        <pt x="626" y="245" on="1"/>
        <pt x="617" y="223" on="0"/>
        <pt x="603" y="195" on="1"/>
        <pt x="620" y="177" on="0"/>
      </contour>
      <contour>
        <pt x="359" y="71" on="1"/>
        <pt x="391" y="71" on="0"/>
        <pt x="416" y="87" on="1"/>
        <pt x="431" y="97" on="0"/>
        <pt x="445" y="112" on="1"/>
        <pt x="429" y="132" on="0"/>
        <pt x="413" y="151" on="1"/>
        <pt x="382" y="189" on="0"/>
        <pt x="320" y="265" on="0"/>
        <pt x="287" y="307" on="1"/>
        <pt x="277" y="319" on="0"/>
        <pt x="268" y="330" on="1"/>
        <pt x="266" y="328" on="0"/>
        <pt x="264" y="325" on="1"/>
        <pt x="258" y="317" on="0"/>
        <pt x="251" y="294" on="0"/>
        <pt x="247" y="261" on="0"/>
        <pt x="247" y="237" on="1"/>
        <pt x="247" y="193" on="0"/>
        <pt x="265" y="130" on="0"/>
        <pt x="296" y="90" on="0"/>
        <pt x="337" y="71" on="0"/>
      </contour>
    </TTGlyph>
    <TTGlyph name="apostrophe" xMin="60" yMin="381" xMax="256" yMax="728">
      <component glyphName="comma" x="0" y="568" flags="0x204"/>
    </TTGlyph>
    <TTGlyph name="aring" xMin="25" yMin="-9" xMax="565" yMax="737">
      <component glyphName="a" x="0" y="0" flags="0x204"/>
      <component glyphName="ring" x="-22" y="8" flags="0x4"/>
    </TTGlyph>
    <TTGlyph name="arrow" xMin="60" yMin="82" xMax="606" yMax="491">
      <contour>
        <pt x="406" y="320" on="1"/>
        <pt x="398" y="340" on="0"/>
        <pt x="372" y="389" on="0"/>
        <pt x="358" y="410" on="1"/>
        <pt x="344" y="431" on="0"/>
        <pt x="344" y="449" on="1"/>
        <pt x="344" y="464" on="0"/>
        <pt x="369" y="482" on="0"/>
        <pt x="393" y="491" on="1"/>
        <pt x="412" y="467" on="0"/>
        <pt x="468" y="413" on="0"/>
        <pt x="525" y="365" on="0"/>
        <pt x="576" y="327" on="0"/>
        <pt x="591" y="320" on="1"/>
        <pt x="594" y="314" on="0"/>
        <pt x="599" y="297" on="0"/>
        <pt x="604" y="277" on="0"/>
        <pt x="606" y="259" on="0"/>
        <pt x="606" y="253" on="1"/>
        <pt x="574" y="233" on="0"/>
        <pt x="524" y="197" on="0"/>
        <pt x="483" y="161" on="0"/>
        <pt x="448" y="123" on="0"/>
        <pt x="432" y="102" on="1"/>
        <pt x="424" y="92" on="0"/>
        <pt x="402" y="82" on="0"/>
        <pt x="384" y="82" on="1"/>
        <pt x="372" y="82" on="0"/>
        <pt x="347" y="90" on="0"/>
        <pt x="342" y="96" on="1"/>
        <pt x="364" y="131" on="0"/>
        <pt x="395" y="196" on="0"/>
        <pt x="406" y="234" on="1"/>
        <pt x="299" y="234" on="0"/>
        <pt x="129" y="228" on="0"/>
        <pt x="60" y="222" on="1"/>
        <pt x="60" y="251" on="0"/>
        <pt x="68" y="299" on="0"/>
        <pt x="79" y="320" on="1"/>
      </contour>
    </TTGlyph>
    <TTGlyph name="asciicircum" xMin="37" yMin="368" xMax="517" yMax="708">
      <contour>
        <pt x="278" y="608" on="1"/>
        <pt x="223" y="545" on="0"/>
        <pt x="131" y="430" on="0"/>
        <pt x="88" y="368" on="1"/>
        <pt x="69" y="380" on="0"/>
        <pt x="39" y="421" on="0"/>
        <pt x="37" y="438" on="1"/>
        <pt x="240" y="698" on="1"/>
        <pt x="253" y="703" on="0"/>
        <pt x="286" y="708" on="0"/>
        <pt x="312" y="708" on="1"/>
        <pt x="333" y="675" on="0"/>
        <pt x="386" y="595" on="0"/>
        <pt x="441" y="513" on="0"/>
        <pt x="495" y="436" on="0"/>
        <pt x="517" y="405" on="1"/>
        <pt x="501" y="392" on="0"/>
        <pt x="458" y="382" on="0"/>
        <pt x="436" y="384" on="1"/>
      </contour>
    </TTGlyph>
    <TTGlyph name="asciitilde" xMin="39" yMin="172" xMax="579" yMax="374">
      <contour>
        <pt x="94" y="180" on="1"/>
        <pt x="75" y="187" on="0"/>
        <pt x="47" y="207" on="0"/>
        <pt x="39" y="226" on="1"/>
        <pt x="62" y="269" on="0"/>
        <pt x="108" y="326" on="0"/>
        <pt x="152" y="360" on="0"/>
        <pt x="192" y="374" on="0"/>
        <pt x="210" y="374" on="1"/>
        <pt x="242" y="374" on="0"/>
        <pt x="297" y="345" on="0"/>
        <pt x="350" y="310" on="0"/>
        <pt x="401" y="281" on="0"/>
        <pt x="428" y="281" on="1"/>
        <pt x="453" y="281" on="0"/>
        <pt x="496" y="313" on="0"/>
        <pt x="523" y="354" on="1"/>
        <pt x="538" y="349" on="0"/>
        <pt x="571" y="322" on="0"/>
        <pt x="579" y="310" on="1"/>
        <pt x="556" y="267" on="0"/>
        <pt x="512" y="213" on="0"/>
        <pt x="472" y="183" on="0"/>
        <pt x="437" y="172" on="0"/>
        <pt x="423" y="172" on="1"/>
        <pt x="389" y="172" on="0"/>
        <pt x="334" y="202" on="0"/>
        <pt x="284" y="239" on="0"/>
        <pt x="234" y="269" on="0"/>
        <pt x="206" y="269" on="1"/>
        <pt x="177" y="269" on="0"/>
        <pt x="121" y="231" on="0"/>
      </contour>
    </TTGlyph>
    <TTGlyph name="asterisk" xMin="60" yMin="290" xMax="449" yMax="682">
      <contour>
        <pt x="361" y="652" on="1"/>
        <pt x="349" y="635" on="0"/>
        <pt x="330" y="604" on="0"/>
        <pt x="312" y="574" on="0"/>
        <pt x="295" y="542" on="0"/>
        <pt x="286" y="523" on="1"/>
        <pt x="307" y="530" on="0"/>
        <pt x="341" y="541" on="0"/>
        <pt x="373" y="554" on="0"/>
        <pt x="408" y="568" on="0"/>
        <pt x="429" y="578" on="1"/>
        <pt x="443" y="542" on="0"/>
        <pt x="449" y="472" on="0"/>
        <pt x="444" y="430" on="1"/>
        <pt x="420" y="437" on="0"/>
        <pt x="382" y="447" on="0"/>
        <pt x="347" y="455" on="0"/>
        <pt x="311" y="462" on="0"/>
        <pt x="290" y="465" on="1"/>
        <pt x="317" y="434" on="0"/>
        <pt x="364" y="382" on="0"/>
        <pt x="395" y="350" on="1"/>
        <pt x="366" y="327" on="0"/>
        <pt x="294" y="293" on="0"/>
        <pt x="256" y="290" on="1"/>
        <pt x="254" y="332" on="0"/>
        <pt x="248" y="402" on="0"/>
        <pt x="240" y="444" on="1"/>
        <pt x="217" y="412" on="0"/>
        <pt x="180" y="353" on="0"/>
        <pt x="157" y="315" on="1"/>
        <pt x="126" y="337" on="0"/>
        <pt x="82" y="387" on="0"/>
        <pt x="69" y="422" on="1"/>
        <pt x="107" y="438" on="0"/>
        <pt x="170" y="467" on="0"/>
        <pt x="204" y="486" on="1"/>
        <pt x="169" y="499" on="0"/>
        <pt x="105" y="514" on="0"/>
        <pt x="60" y="523" on="1"/>
        <pt x="70" y="555" on="0"/>
        <pt x="105" y="618" on="0"/>
        <pt x="130" y="641" on="1"/>
        <pt x="156" y="609" on="0"/>
        <pt x="199" y="561" on="0"/>
        <pt x="232" y="530" on="1"/>
        <pt x="232" y="569" on="0"/>
        <pt x="228" y="641" on="0"/>
        <pt x="223" y="682" on="1"/>
        <pt x="258" y="682" on="0"/>
        <pt x="332" y="667" on="0"/>
      </contour>
    </TTGlyph>
    <TTGlyph name="at" xMin="79" yMin="-202" xMax="920" yMax="660">
      <contour>
        <pt x="459" y="467" on="1"/>
        <pt x="491" y="467" on="0"/>
        <pt x="518" y="464" on="1"/>
        <pt x="544" y="462" on="0"/>
        <pt x="577" y="455" on="1"/>
        <pt x="622" y="455" on="0"/>
        <pt x="656" y="457" on="1"/>
        <pt x="694" y="460" on="0"/>
        <pt x="717" y="467" on="1"/>
        <pt x="726" y="462" on="0"/>
        <pt x="737" y="450" on="0"/>
        <pt x="744" y="430" on="0"/>
        <pt x="746" y="397" on="0"/>
        <pt x="746" y="371" on="1"/>
        <pt x="746" y="228" on="1"/>
        <pt x="746" y="187" on="0"/>
        <pt x="749" y="138" on="0"/>
        <pt x="756" y="112" on="0"/>
        <pt x="767" y="104" on="0"/>
        <pt x="775" y="104" on="1"/>
        <pt x="784" y="104" on="0"/>
        <pt x="804" y="125" on="0"/>
        <pt x="822" y="173" on="0"/>
        <pt x="833" y="251" on="0"/>
        <pt x="833" y="308" on="1"/>
        <pt x="833" y="364" on="0"/>
        <pt x="800" y="465" on="0"/>
        <pt x="726" y="541" on="0"/>
        <pt x="608" y="586" on="0"/>
        <pt x="523" y="586" on="1"/>
        <pt x="436" y="586" on="0"/>
        <pt x="305" y="531" on="0"/>
        <pt x="218" y="435" on="0"/>
        <pt x="174" y="307" on="0"/>
        <pt x="174" y="234" on="1"/>
        <pt x="174" y="163" on="0"/>
        <pt x="214" y="34" on="0"/>
        <pt x="300" y="-65" on="0"/>
        <pt x="435" y="-124" on="0"/>
        <pt x="531" y="-124" on="1"/>
        <pt x="613" y="-124" on="0"/>
        <pt x="758" y="-74" on="0"/>
        <pt x="811" y="-20" on="1"/>
        <pt x="828" y="-26" on="0"/>
        <pt x="852" y="-52" on="0"/>
        <pt x="860" y="-68" on="1"/>
        <pt x="836" y="-100" on="0"/>
        <pt x="764" y="-150" on="0"/>
        <pt x="675" y="-184" on="0"/>
        <pt x="572" y="-202" on="0"/>
        <pt x="518" y="-202" on="1"/>
        <pt x="404" y="-202" on="0"/>
        <pt x="238" y="-138" on="0"/>
        <pt x="130" y="-23" on="0"/>
        <pt x="79" y="135" on="0"/>
        <pt x="79" y="228" on="1"/>
        <pt x="79" y="318" on="0"/>
        <pt x="140" y="475" on="0"/>
        <pt x="258" y="592" on="0"/>
        <pt x="429" y="660" on="0"/>
        <pt x="539" y="660" on="1"/>
        <pt x="637" y="660" on="0"/>
        <pt x="780" y="610" on="0"/>
        <pt x="874" y="524" on="0"/>
        <pt x="920" y="406" on="0"/>
        <pt x="920" y="339" on="1"/>
        <pt x="920" y="259" on="0"/>
        <pt x="883" y="131" on="0"/>
        <pt x="815" y="40" on="0"/>
        <pt x="717" y="-9" on="0"/>
        <pt x="656" y="-9" on="1"/>
        <pt x="615" y="-9" on="0"/>
        <pt x="561" y="43" on="0"/>
        <pt x="561" y="89" on="1"/>
        <pt x="561" y="92" on="1"/>
        <pt x="559" y="89" on="0"/>
        <pt x="557" y="86" on="1"/>
        <pt x="530" y="41" on="0"/>
        <pt x="450" y="-9" on="0"/>
        <pt x="397" y="-9" on="1"/>
        <pt x="320" y="-9" on="0"/>
        <pt x="249" y="100" on="0"/>
        <pt x="249" y="205" on="1"/>
        <pt x="249" y="263" on="0"/>
        <pt x="284" y="360" on="0"/>
        <pt x="342" y="429" on="0"/>
        <pt x="418" y="467" on="0"/>
      </contour>
      <contour>
        <pt x="562" y="280" on="1"/>
        <pt x="563" y="323" on="0"/>
        <pt x="564" y="367" on="1"/>
        <pt x="564" y="369" on="1"/>
        <pt x="552" y="378" on="0"/>
        <pt x="540" y="383" on="1"/>
        <pt x="522" y="390" on="0"/>
        <pt x="505" y="390" on="1"/>
        <pt x="487" y="390" on="0"/>
        <pt x="461" y="380" on="0"/>
        <pt x="446" y="348" on="0"/>
        <pt x="439" y="291" on="0"/>
        <pt x="439" y="243" on="1"/>
        <pt x="439" y="165" on="0"/>
        <pt x="462" y="99" on="0"/>
        <pt x="483" y="99" on="1"/>
        <pt x="516" y="99" on="0"/>
        <pt x="537" y="157" on="1"/>
        <pt x="553" y="203" on="0"/>
      </contour>
    </TTGlyph>
    <TTGlyph name="atilde" xMin="25" yMin="-9" xMax="565" yMax="695">
      <component glyphName="a" x="0" y="0" flags="0x204"/>
      <component glyphName="tilde" x="32" y="8" flags="0x4"/>
    </TTGlyph>
    <TTGlyph name="b" xMin="-5" yMin="-9" xMax="618" yMax="717">
      <contour>
        <pt x="325" y="-9" on="1"/>
        <pt x="283" y="-9" on="0"/>
        <pt x="197" y="1" on="0"/>
        <pt x="121" y="21" on="0"/>
        <pt x="61" y="48" on="0"/>
        <pt x="45" y="65" on="1"/>
        <pt x="69" y="93" on="0"/>
        <pt x="69" y="161" on="1"/>
        <pt x="69" y="539" on="1"/>
        <pt x="69" y="574" on="0"/>
        <pt x="40" y="604" on="0"/>
        <pt x="-5" y="609" on="1"/>
        <pt x="-5" y="628" on="0"/>
        <pt x="0" y="668" on="0"/>
        <pt x="8" y="684" on="1"/>
        <pt x="45" y="684" on="0"/>
        <pt x="113" y="690" on="0"/>
        <pt x="169" y="699" on="0"/>
        <pt x="212" y="711" on="0"/>
        <pt x="224" y="717" on="1"/>
        <pt x="241" y="709" on="0"/>
        <pt x="259" y="679" on="0"/>
        <pt x="259" y="653" on="1"/>
        <pt x="259" y="480" on="1"/>
        <pt x="259" y="463" on="0"/>
        <pt x="258" y="437" on="0"/>
        <pt x="256" y="416" on="0"/>
        <pt x="254" y="406" on="1"/>
        <pt x="253" y="400" on="0"/>
        <pt x="251" y="393" on="1"/>
        <pt x="268" y="415" on="0"/>
        <pt x="285" y="428" on="1"/>
        <pt x="304" y="442" on="0"/>
        <pt x="371" y="467" on="0"/>
        <pt x="413" y="467" on="1"/>
        <pt x="456" y="467" on="0"/>
        <pt x="531" y="444" on="0"/>
        <pt x="586" y="395" on="0"/>
        <pt x="618" y="318" on="0"/>
        <pt x="618" y="265" on="1"/>
        <pt x="618" y="203" on="0"/>
        <pt x="576" y="102" on="0"/>
        <pt x="500" y="30" on="0"/>
        <pt x="391" y="-9" on="0"/>
      </contour>
      <contour>
        <pt x="259" y="96" on="1"/>
        <pt x="270" y="82" on="0"/>
        <pt x="282" y="73" on="1"/>
        <pt x="299" y="62" on="0"/>
        <pt x="322" y="62" on="1"/>
        <pt x="339" y="62" on="0"/>
        <pt x="376" y="75" on="0"/>
        <pt x="407" y="113" on="0"/>
        <pt x="427" y="181" on="0"/>
        <pt x="427" y="236" on="1"/>
        <pt x="427" y="260" on="0"/>
        <pt x="420" y="307" on="0"/>
        <pt x="403" y="345" on="0"/>
        <pt x="373" y="369" on="0"/>
        <pt x="349" y="369" on="1"/>
        <pt x="332" y="369" on="0"/>
        <pt x="300" y="353" on="0"/>
        <pt x="275" y="317" on="0"/>
        <pt x="259" y="259" on="0"/>
        <pt x="259" y="217" on="1"/>
      </contour>
    </TTGlyph>
    <TTGlyph name="backslash" xMin="25" yMin="-9" xMax="377" yMax="717">
      <contour>
        <pt x="25" y="709" on="1"/>
        <pt x="39" y="713" on="0"/>
        <pt x="75" y="717" on="0"/>
        <pt x="101" y="717" on="1"/>
        <pt x="111" y="717" on="1"/>
        <pt x="377" y="0" on="1"/>
        <pt x="360" y="-5" on="0"/>
        <pt x="309" y="-9" on="0"/>
        <pt x="292" y="-9" on="1"/>
        <pt x="25" y="709" on="1"/>
      </contour>
    </TTGlyph>
    <TTGlyph name="bar" xMin="62" yMin="-249" xMax="151" yMax="716">
      <contour>
        <pt x="62" y="716" on="1"/>
        <pt x="86" y="716" on="0"/>
        <pt x="140" y="708" on="0"/>
        <pt x="151" y="701" on="1"/>
        <pt x="151" y="659" on="0"/>
        <pt x="150" y="553" on="0"/>
        <pt x="149" y="432" on="0"/>
        <pt x="148" y="301" on="0"/>
        <pt x="148" y="234" on="1"/>
        <pt x="148" y="167" on="0"/>
        <pt x="149" y="33" on="0"/>
        <pt x="150" y="-93" on="0"/>
        <pt x="151" y="-205" on="0"/>
        <pt x="151" y="-249" on="1"/>
        <pt x="129" y="-249" on="0"/>
        <pt x="77" y="-244" on="0"/>
        <pt x="62" y="-238" on="1"/>
      </contour>
    </TTGlyph>
    <TTGlyph name="braceleft" xMin="35" yMin="-283" xMax="378" yMax="754">
      <contour>
        <pt x="345" y="754" on="1"/>
        <pt x="358" y="743" on="0"/>
        <pt x="366" y="703" on="0"/>
        <pt x="366" y="685" on="1"/>
        <pt x="315" y="668" on="0"/>
        <pt x="281" y="604" on="0"/>
        <pt x="282" y="564" on="1"/>
        <pt x="282" y="542" on="0"/>
        <pt x="290" y="495" on="0"/>
        <pt x="298" y="447" on="0"/>
        <pt x="305" y="400" on="0"/>
        <pt x="305" y="378" on="1"/>
        <pt x="305" y="354" on="0"/>
        <pt x="293" y="310" on="0"/>
        <pt x="262" y="276" on="0"/>
        <pt x="208" y="252" on="0"/>
        <pt x="166" y="246" on="1"/>
        <pt x="208" y="240" on="0"/>
        <pt x="261" y="214" on="0"/>
        <pt x="293" y="178" on="0"/>
        <pt x="306" y="134" on="0"/>
        <pt x="306" y="109" on="1"/>
        <pt x="306" y="86" on="0"/>
        <pt x="300" y="38" on="0"/>
        <pt x="296" y="14" on="1"/>
        <pt x="289" y="-34" on="1"/>
        <pt x="286" y="-58" on="0"/>
        <pt x="286" y="-80" on="1"/>
        <pt x="286" y="-101" on="0"/>
        <pt x="293" y="-139" on="0"/>
        <pt x="312" y="-171" on="0"/>
        <pt x="346" y="-196" on="0"/>
        <pt x="372" y="-203" on="1"/>
        <pt x="378" y="-222" on="0"/>
        <pt x="372" y="-264" on="0"/>
        <pt x="358" y="-283" on="1"/>
        <pt x="288" y="-273" on="0"/>
        <pt x="200" y="-229" on="0"/>
        <pt x="150" y="-171" on="0"/>
        <pt x="132" y="-103" on="0"/>
        <pt x="131" y="-69" on="1"/>
        <pt x="130" y="-33" on="0"/>
        <pt x="137" y="39" on="0"/>
        <pt x="136" y="73" on="1"/>
        <pt x="135" y="97" on="0"/>
        <pt x="126" y="139" on="0"/>
        <pt x="104" y="175" on="0"/>
        <pt x="65" y="204" on="0"/>
        <pt x="35" y="213" on="1"/>
        <pt x="35" y="226" on="1"/>
        <pt x="35" y="235" on="0"/>
        <pt x="36" y="253" on="0"/>
        <pt x="38" y="270" on="0"/>
        <pt x="40" y="275" on="1"/>
        <pt x="69" y="284" on="0"/>
        <pt x="106" y="311" on="0"/>
        <pt x="128" y="345" on="0"/>
        <pt x="137" y="384" on="0"/>
        <pt x="138" y="405" on="1"/>
        <pt x="139" y="440" on="0"/>
        <pt x="129" y="517" on="0"/>
        <pt x="130" y="555" on="1"/>
        <pt x="131" y="587" on="0"/>
        <pt x="146" y="647" on="0"/>
        <pt x="192" y="698" on="0"/>
        <pt x="276" y="740" on="0"/>
      </contour>
    </TTGlyph>
    <TTGlyph name="braceright" xMin="32" yMin="-283" xMax="375" yMax="754">
      <contour>
        <pt x="65" y="754" on="1"/>
        <pt x="134" y="740" on="0"/>
        <pt x="218" y="698" on="0"/>
        <pt x="264" y="647" on="0"/>
        <pt x="279" y="587" on="0"/>
        <pt x="280" y="555" on="1"/>
        <pt x="281" y="517" on="0"/>
        <pt x="271" y="440" on="0"/>
        <pt x="272" y="405" on="1"/>
        <pt x="273" y="384" on="0"/>
        <pt x="282" y="345" on="0"/>
        <pt x="304" y="311" on="0"/>
        <pt x="341" y="284" on="0"/>
        <pt x="370" y="275" on="1"/>
        <pt x="372" y="270" on="0"/>
        <pt x="374" y="253" on="0"/>
        <pt x="375" y="235" on="0"/>
        <pt x="375" y="226" on="1"/>
        <pt x="375" y="213" on="1"/>
        <pt x="345" y="204" on="0"/>
        <pt x="306" y="175" on="0"/>
        <pt x="284" y="139" on="0"/>
        <pt x="275" y="97" on="0"/>
        <pt x="274" y="73" on="1"/>
        <pt x="273" y="39" on="0"/>
        <pt x="280" y="-33" on="0"/>
        <pt x="279" y="-69" on="1"/>
        <pt x="278" y="-103" on="0"/>
        <pt x="260" y="-171" on="0"/>
        <pt x="210" y="-229" on="0"/>
        <pt x="122" y="-273" on="0"/>
        <pt x="52" y="-283" on="1"/>
        <pt x="38" y="-264" on="0"/>
        <pt x="32" y="-222" on="0"/>
        <pt x="38" y="-203" on="1"/>
        <pt x="90" y="-188" on="0"/>
        <pt x="125" y="-122" on="0"/>
        <pt x="124" y="-80" on="1"/>
        <pt x="124" y="-58" on="0"/>
        <pt x="117" y="-10" on="0"/>
        <pt x="109" y="38" on="0"/>
        <pt x="104" y="86" on="0"/>
        <pt x="104" y="109" on="1"/>
        <pt x="104" y="134" on="0"/>
        <pt x="117" y="178" on="0"/>
        <pt x="148" y="214" on="0"/>
        <pt x="202" y="240" on="0"/>
        <pt x="244" y="246" on="1"/>
        <pt x="202" y="252" on="0"/>
        <pt x="148" y="276" on="0"/>
        <pt x="117" y="310" on="0"/>
        <pt x="105" y="354" on="0"/>
        <pt x="105" y="378" on="1"/>
        <pt x="105" y="400" on="0"/>
        <pt x="112" y="447" on="0"/>
        <pt x="120" y="495" on="0"/>
        <pt x="128" y="542" on="0"/>
        <pt x="128" y="564" on="1"/>
        <pt x="129" y="604" on="0"/>
        <pt x="95" y="668" on="0"/>
        <pt x="44" y="685" on="1"/>
        <pt x="44" y="703" on="0"/>
        <pt x="52" y="743" on="0"/>
      </contour>
    </TTGlyph>
    <TTGlyph name="bracketleft" xMin="47" yMin="-269" xMax="276" yMax="742">
      <contour>
        <pt x="47" y="742" on="1"/>
        <pt x="74" y="741" on="0"/>
        <pt x="97" y="741" on="1"/>
        <pt x="201" y="741" on="1"/>
        <pt x="230" y="741" on="0"/>
        <pt x="264" y="742" on="1"/>
        <pt x="273" y="723" on="0"/>
        <pt x="276" y="682" on="0"/>
        <pt x="276" y="659" on="1"/>
        <pt x="243" y="656" on="0"/>
        <pt x="203" y="648" on="0"/>
        <pt x="181" y="630" on="0"/>
        <pt x="174" y="599" on="0"/>
        <pt x="174" y="575" on="1"/>
        <pt x="174" y="-96" on="1"/>
        <pt x="174" y="-122" on="0"/>
        <pt x="180" y="-155" on="0"/>
        <pt x="200" y="-174" on="0"/>
        <pt x="236" y="-183" on="0"/>
        <pt x="265" y="-184" on="1"/>
        <pt x="273" y="-207" on="0"/>
        <pt x="276" y="-245" on="0"/>
        <pt x="276" y="-269" on="1"/>
        <pt x="243" y="-268" on="0"/>
        <pt x="190" y="-267" on="0"/>
        <pt x="167" y="-267" on="1"/>
        <pt x="139" y="-267" on="0"/>
        <pt x="83" y="-268" on="0"/>
        <pt x="47" y="-269" on="1"/>
      </contour>
    </TTGlyph>
    <TTGlyph name="bracketright" xMin="44" yMin="-269" xMax="273" yMax="742">
      <contour>
        <pt x="273" y="-269" on="1"/>
        <pt x="237" y="-268" on="0"/>
        <pt x="181" y="-267" on="0"/>
        <pt x="153" y="-267" on="1"/>
        <pt x="130" y="-267" on="0"/>
        <pt x="77" y="-268" on="0"/>
        <pt x="44" y="-269" on="1"/>
        <pt x="44" y="-245" on="0"/>
        <pt x="47" y="-207" on="0"/>
        <pt x="55" y="-184" on="1"/>
        <pt x="84" y="-183" on="0"/>
        <pt x="120" y="-174" on="0"/>
        <pt x="139" y="-155" on="0"/>
        <pt x="146" y="-122" on="0"/>
        <pt x="146" y="-96" on="1"/>
        <pt x="146" y="575" on="1"/>
        <pt x="146" y="599" on="0"/>
        <pt x="139" y="630" on="0"/>
        <pt x="117" y="648" on="0"/>
        <pt x="77" y="656" on="0"/>
        <pt x="44" y="659" on="1"/>
        <pt x="44" y="682" on="0"/>
        <pt x="47" y="723" on="0"/>
        <pt x="56" y="742" on="1"/>
        <pt x="90" y="741" on="0"/>
        <pt x="118" y="741" on="1"/>
        <pt x="222" y="741" on="1"/>
        <pt x="246" y="741" on="0"/>
        <pt x="273" y="742" on="1"/>
      </contour>
    </TTGlyph>
    <TTGlyph name="brokenbar" xMin="62" yMin="-249" xMax="149" yMax="717">
      <contour>
        <pt x="62" y="717" on="1"/>
        <pt x="84" y="717" on="0"/>
        <pt x="129" y="710" on="0"/>
        <pt x="149" y="701" on="1"/>
        <pt x="149" y="669" on="0"/>
        <pt x="147" y="568" on="0"/>
        <pt x="147" y="517" on="1"/>
        <pt x="147" y="495" on="0"/>
        <pt x="148" y="434" on="0"/>
        <pt x="148" y="372" on="0"/>
        <pt x="149" y="318" on="0"/>
        <pt x="149" y="304" on="1"/>
        <pt x="128" y="304" on="0"/>
        <pt x="82" y="311" on="0"/>
        <pt x="62" y="320" on="1"/>
      </contour>
      <contour>
        <pt x="62" y="183" on="1"/>
        <pt x="89" y="183" on="0"/>
        <pt x="128" y="177" on="0"/>
        <pt x="149" y="167" on="1"/>
        <pt x="149" y="151" on="0"/>
        <pt x="148" y="100" on="0"/>
        <pt x="148" y="42" on="0"/>
        <pt x="147" y="-16" on="0"/>
        <pt x="147" y="-38" on="1"/>
        <pt x="147" y="-57" on="0"/>
        <pt x="148" y="-110" on="0"/>
        <pt x="148" y="-168" on="0"/>
        <pt x="149" y="-225" on="0"/>
        <pt x="149" y="-249" on="1"/>
        <pt x="130" y="-249" on="0"/>
        <pt x="75" y="-241" on="0"/>
        <pt x="62" y="-233" on="1"/>
      </contour>
    </TTGlyph>
    <TTGlyph name="bullet" xMin="60" yMin="114" xMax="380" yMax="422">
      <contour>
        <pt x="223" y="422" on="1"/>
        <pt x="262" y="422" on="0"/>
        <pt x="320" y="397" on="0"/>
        <pt x="360" y="355" on="0"/>
        <pt x="380" y="301" on="0"/>
        <pt x="380" y="272" on="1"/>
        <pt x="380" y="238" on="0"/>
        <pt x="358" y="180" on="0"/>
        <pt x="318" y="138" on="0"/>
        <pt x="260" y="114" on="0"/>
        <pt x="223" y="114" on="1"/>
        <pt x="181" y="114" on="0"/>
        <pt x="120" y="141" on="0"/>
        <pt x="79" y="186" on="0"/>
        <pt x="60" y="243" on="0"/>
        <pt x="60" y="274" on="1"/>
        <pt x="60" y="306" on="0"/>
        <pt x="84" y="360" on="0"/>
        <pt x="127" y="400" on="0"/>
        <pt x="187" y="422" on="0"/>
      </contour>
    </TTGlyph>
    <TTGlyph name="c" xMin="30" yMin="-9" xMax="469" yMax="467">
      <contour>
        <pt x="469" y="42" on="1"/>
        <pt x="443" y="18" on="0"/>
        <pt x="351" y="-9" on="0"/>
        <pt x="295" y="-9" on="1"/>
        <pt x="233" y="-9" on="0"/>
        <pt x="135" y="19" on="0"/>
        <pt x="67" y="77" on="0"/>
        <pt x="30" y="166" on="0"/>
        <pt x="30" y="227" on="1"/>
        <pt x="30" y="272" on="0"/>
        <pt x="61" y="358" on="0"/>
        <pt x="124" y="426" on="0"/>
        <pt x="219" y="467" on="0"/>
        <pt x="283" y="467" on="1"/>
        <pt x="344" y="467" on="0"/>
        <pt x="429" y="447" on="0"/>
        <pt x="464" y="428" on="1"/>
        <pt x="457" y="400" on="0"/>
        <pt x="451" y="339" on="0"/>
        <pt x="451" y="296" on="1"/>
        <pt x="428" y="285" on="0"/>
        <pt x="372" y="279" on="0"/>
        <pt x="346" y="279" on="1"/>
        <pt x="346" y="337" on="0"/>
        <pt x="314" y="395" on="0"/>
        <pt x="288" y="395" on="1"/>
        <pt x="270" y="395" on="0"/>
        <pt x="244" y="371" on="0"/>
        <pt x="226" y="329" on="0"/>
        <pt x="217" y="273" on="0"/>
        <pt x="217" y="241" on="1"/>
        <pt x="217" y="212" on="0"/>
        <pt x="231" y="156" on="0"/>
        <pt x="262" y="111" on="0"/>
        <pt x="311" y="83" on="0"/>
        <pt x="346" y="83" on="1"/>
        <pt x="378" y="83" on="0"/>
        <pt x="428" y="95" on="0"/>
        <pt x="446" y="106" on="1"/>
        <pt x="457" y="95" on="0"/>
        <pt x="469" y="62" on="0"/>
      </contour>
    </TTGlyph>
    <TTGlyph name="ccedilla" xMin="30" yMin="-242" xMax="469" yMax="467">
      <contour>
        <pt x="469" y="42" on="1"/>
        <pt x="443" y="18" on="0"/>
        <pt x="397" y="4" on="1"/>
        <pt x="356" y="-7" on="0"/>
        <pt x="307" y="-9" on="1"/>
        <pt x="281" y="-43" on="1"/>
        <pt x="325" y="-50" on="0"/>
        <pt x="370" y="-104" on="0"/>
        <pt x="370" y="-138" on="1"/>
        <pt x="370" y="-189" on="0"/>
        <pt x="279" y="-242" on="0"/>
        <pt x="194" y="-242" on="1"/>
        <pt x="189" y="-231" on="0"/>
        <pt x="185" y="-202" on="0"/>
        <pt x="185" y="-191" on="1"/>
        <pt x="217" y="-191" on="0"/>
        <pt x="263" y="-169" on="0"/>
        <pt x="263" y="-147" on="1"/>
        <pt x="263" y="-130" on="0"/>
        <pt x="230" y="-110" on="0"/>
        <pt x="205" y="-110" on="1"/>
        <pt x="187" y="-89" on="0"/>
        <pt x="187" y="-63" on="1"/>
        <pt x="234" y="-5" on="1"/>
        <pt x="208" y="-2" on="0"/>
        <pt x="184" y="5" on="1"/>
        <pt x="135" y="19" on="0"/>
        <pt x="67" y="77" on="0"/>
        <pt x="30" y="166" on="0"/>
        <pt x="30" y="227" on="1"/>
        <pt x="30" y="272" on="0"/>
        <pt x="61" y="358" on="0"/>
        <pt x="124" y="426" on="0"/>
        <pt x="219" y="467" on="0"/>
        <pt x="283" y="467" on="1"/>
        <pt x="344" y="467" on="0"/>
        <pt x="429" y="447" on="0"/>
        <pt x="464" y="428" on="1"/>
        <pt x="457" y="400" on="0"/>
        <pt x="451" y="339" on="0"/>
        <pt x="451" y="296" on="1"/>
        <pt x="428" y="285" on="0"/>
        <pt x="372" y="279" on="0"/>
        <pt x="346" y="279" on="1"/>
        <pt x="346" y="337" on="0"/>
        <pt x="314" y="395" on="0"/>
        <pt x="288" y="395" on="1"/>
        <pt x="270" y="395" on="0"/>
        <pt x="244" y="371" on="0"/>
        <pt x="226" y="329" on="0"/>
        <pt x="217" y="273" on="0"/>
        <pt x="217" y="241" on="1"/>
        <pt x="217" y="212" on="0"/>
        <pt x="231" y="156" on="0"/>
        <pt x="262" y="111" on="0"/>
        <pt x="311" y="83" on="0"/>
        <pt x="346" y="83" on="1"/>
        <pt x="378" y="83" on="0"/>
        <pt x="428" y="95" on="0"/>
        <pt x="446" y="106" on="1"/>
        <pt x="457" y="95" on="0"/>
        <pt x="469" y="62" on="0"/>
      </contour>
    </TTGlyph>
    <TTGlyph name="cedilla" xMin="207" yMin="-242" xMax="392" yMax="16">
      <contour>
        <pt x="348" y="16" on="1"/>
        <pt x="303" y="-43" on="1"/>
        <pt x="347" y="-50" on="0"/>
        <pt x="392" y="-104" on="0"/>
        <pt x="392" y="-138" on="1"/>
        <pt x="392" y="-189" on="0"/>
        <pt x="301" y="-242" on="0"/>
        <pt x="216" y="-242" on="1"/>
        <pt x="211" y="-231" on="0"/>
        <pt x="207" y="-202" on="0"/>
        <pt x="207" y="-191" on="1"/>
        <pt x="239" y="-191" on="0"/>
        <pt x="285" y="-169" on="0"/>
        <pt x="285" y="-147" on="1"/>
        <pt x="285" y="-130" on="0"/>
        <pt x="252" y="-110" on="0"/>
        <pt x="227" y="-110" on="1"/>
        <pt x="209" y="-89" on="0"/>
        <pt x="209" y="-63" on="1"/>
        <pt x="274" y="16" on="1"/>
      </contour>
    </TTGlyph>
    <TTGlyph name="cent" xMin="30" yMin="-139" xMax="469" yMax="606">
      <contour>
        <pt x="469" y="42" on="1"/>
        <pt x="443" y="18" on="0"/>
        <pt x="397" y="4" on="1"/>
        <pt x="367" y="-4" on="0"/>
        <pt x="332" y="-7" on="1"/>
        <pt x="332" y="-63" on="1"/>
        <pt x="332" y="-94" on="0"/>
        <pt x="334" y="-139" on="1"/>
        <pt x="312" y="-139" on="0"/>
        <pt x="260" y="-134" on="0"/>
        <pt x="245" y="-128" on="1"/>
        <pt x="245" y="-6" on="1"/>
        <pt x="212" y="-3" on="0"/>
        <pt x="184" y="5" on="1"/>
        <pt x="135" y="19" on="0"/>
        <pt x="67" y="77" on="0"/>
        <pt x="30" y="166" on="0"/>
        <pt x="30" y="227" on="1"/>
        <pt x="30" y="272" on="0"/>
        <pt x="61" y="358" on="0"/>
        <pt x="124" y="426" on="0"/>
        <pt x="171" y="446" on="1"/>
        <pt x="204" y="460" on="0"/>
        <pt x="245" y="465" on="1"/>
        <pt x="245" y="606" on="1"/>
        <pt x="269" y="606" on="0"/>
        <pt x="323" y="598" on="0"/>
        <pt x="334" y="591" on="1"/>
        <pt x="332" y="554" on="0"/>
        <pt x="332" y="529" on="1"/>
        <pt x="332" y="465" on="1"/>
        <pt x="362" y="462" on="0"/>
        <pt x="386" y="457" on="1"/>
        <pt x="429" y="447" on="0"/>
        <pt x="464" y="428" on="1"/>
        <pt x="457" y="400" on="0"/>
        <pt x="451" y="339" on="0"/>
        <pt x="451" y="296" on="1"/>
        <pt x="428" y="285" on="0"/>
        <pt x="372" y="279" on="0"/>
        <pt x="346" y="279" on="1"/>
        <pt x="346" y="337" on="0"/>
        <pt x="314" y="395" on="0"/>
        <pt x="288" y="395" on="1"/>
        <pt x="270" y="395" on="0"/>
        <pt x="244" y="371" on="0"/>
        <pt x="226" y="329" on="0"/>
        <pt x="217" y="273" on="0"/>
        <pt x="217" y="241" on="1"/>
        <pt x="217" y="212" on="0"/>
        <pt x="231" y="156" on="0"/>
        <pt x="262" y="111" on="0"/>
        <pt x="311" y="83" on="0"/>
        <pt x="346" y="83" on="1"/>
        <pt x="378" y="83" on="0"/>
        <pt x="428" y="95" on="0"/>
        <pt x="446" y="106" on="1"/>
        <pt x="457" y="95" on="0"/>
        <pt x="469" y="62" on="0"/>
      </contour>
    </TTGlyph>
    <TTGlyph name="circumflex" xMin="62" yMin="515" xMax="477" yMax="723">
      <contour>
        <pt x="62" y="572" on="1"/>
        <pt x="105" y="601" on="0"/>
        <pt x="196" y="673" on="0"/>
        <pt x="230" y="708" on="1"/>
        <pt x="248" y="715" on="0"/>
        <pt x="294" y="723" on="0"/>
        <pt x="317" y="723" on="1"/>
        <pt x="348" y="686" on="0"/>
        <pt x="427" y="608" on="0"/>
        <pt x="477" y="566" on="1"/>
        <pt x="461" y="548" on="0"/>
        <pt x="419" y="521" on="0"/>
        <pt x="387" y="515" on="1"/>
        <pt x="358" y="536" on="0"/>
        <pt x="287" y="581" on="0"/>
        <pt x="253" y="598" on="1"/>
        <pt x="239" y="591" on="0"/>
        <pt x="205" y="570" on="0"/>
        <pt x="170" y="548" on="0"/>
        <pt x="136" y="525" on="0"/>
        <pt x="124" y="515" on="1"/>
        <pt x="100" y="520" on="0"/>
        <pt x="67" y="555" on="0"/>
      </contour>
    </TTGlyph>
    <TTGlyph name="colon" xMin="60" yMin="-8" xMax="267" yMax="467">
      <component glyphName="period" x="0" y="0" flags="0x204"/>
      <component glyphName="period" x="0" y="275" flags="0x4"/>
    </TTGlyph>
    <TTGlyph name="comma" xMin="60" yMin="-187" xMax="256" yMax="160">
      <contour>
        <pt x="202" y="160" on="1"/>
        <pt x="231" y="152" on="0"/>
        <pt x="256" y="109" on="0"/>
        <pt x="256" y="55" on="1"/>
        <pt x="256" y="-8" on="0"/>
        <pt x="196" y="-138" on="0"/>
        <pt x="144" y="-187" on="1"/>
        <pt x="119" y="-185" on="0"/>
        <pt x="76" y="-170" on="0"/>
        <pt x="64" y="-160" on="1"/>
        <pt x="131" y="-84" on="0"/>
        <pt x="131" y="-35" on="1"/>
        <pt x="131" y="-16" on="0"/>
        <pt x="94" y="8" on="0"/>
        <pt x="60" y="13" on="1"/>
        <pt x="60" y="30" on="0"/>
        <pt x="61" y="57" on="0"/>
        <pt x="64" y="84" on="0"/>
        <pt x="71" y="111" on="0"/>
        <pt x="76" y="128" on="1"/>
        <pt x="116" y="130" on="0"/>
        <pt x="179" y="145" on="0"/>
      </contour>
    </TTGlyph>
    <TTGlyph name="copyright" xMin="35" yMin="-117" xMax="729" yMax="577">
      <contour>
        <pt x="102" y="230" on="1"/>
        <pt x="102" y="171" on="0"/>
        <pt x="145" y="69" on="0"/>
        <pt x="220" y="-6" on="0"/>
        <pt x="323" y="-49" on="0"/>
        <pt x="382" y="-49" on="1"/>
        <pt x="441" y="-49" on="0"/>
        <pt x="544" y="-6" on="0"/>
        <pt x="619" y="69" on="0"/>
        <pt x="662" y="171" on="0"/>
        <pt x="662" y="230" on="1"/>
        <pt x="662" y="289" on="0"/>
        <pt x="619" y="392" on="0"/>
        <pt x="544" y="467" on="0"/>
        <pt x="441" y="510" on="0"/>
        <pt x="382" y="510" on="1"/>
        <pt x="323" y="510" on="0"/>
        <pt x="221" y="467" on="0"/>
        <pt x="145" y="392" on="0"/>
        <pt x="102" y="289" on="0"/>
      </contour>
      <contour>
        <pt x="35" y="230" on="1"/>
        <pt x="35" y="303" on="0"/>
        <pt x="89" y="430" on="0"/>
        <pt x="182" y="523" on="0"/>
        <pt x="309" y="577" on="0"/>
        <pt x="382" y="577" on="1"/>
        <pt x="454" y="577" on="0"/>
        <pt x="581" y="523" on="0"/>
        <pt x="675" y="430" on="0"/>
        <pt x="729" y="303" on="0"/>
        <pt x="729" y="230" on="1"/>
        <pt x="729" y="157" on="0"/>
        <pt x="675" y="31" on="0"/>
        <pt x="581" y="-63" on="0"/>
        <pt x="454" y="-117" on="0"/>
        <pt x="382" y="-117" on="1"/>
        <pt x="308" y="-117" on="0"/>
        <pt x="181" y="-64" on="0"/>
        <pt x="88" y="30" on="0"/>
        <pt x="35" y="156" on="0"/>
      </contour>
      <contour>
        <pt x="397" y="453" on="1"/>
        <pt x="438" y="453" on="0"/>
        <pt x="503" y="434" on="0"/>
        <pt x="535" y="417" on="1"/>
        <pt x="530" y="390" on="0"/>
        <pt x="528" y="324" on="0"/>
        <pt x="528" y="297" on="1"/>
        <pt x="512" y="289" on="0"/>
        <pt x="476" y="282" on="0"/>
        <pt x="459" y="282" on="1"/>
        <pt x="454" y="332" on="0"/>
        <pt x="420" y="384" on="0"/>
        <pt x="388" y="384" on="1"/>
        <pt x="358" y="384" on="0"/>
        <pt x="332" y="319" on="0"/>
        <pt x="332" y="250" on="1"/>
        <pt x="332" y="217" on="0"/>
        <pt x="341" y="156" on="0"/>
        <pt x="362" y="111" on="0"/>
        <pt x="396" y="84" on="0"/>
        <pt x="422" y="84" on="1"/>
        <pt x="444" y="84" on="0"/>
        <pt x="489" y="102" on="0"/>
        <pt x="509" y="121" on="1"/>
        <pt x="520" y="113" on="0"/>
        <pt x="537" y="83" on="0"/>
        <pt x="537" y="65" on="1"/>
        <pt x="511" y="41" on="0"/>
        <pt x="432" y="5" on="0"/>
        <pt x="374" y="5" on="1"/>
        <pt x="335" y="5" on="0"/>
        <pt x="264" y="34" on="0"/>
        <pt x="210" y="90" on="0"/>
        <pt x="178" y="174" on="0"/>
        <pt x="178" y="228" on="1"/>
        <pt x="178" y="279" on="0"/>
        <pt x="208" y="362" on="0"/>
        <pt x="264" y="421" on="0"/>
        <pt x="345" y="453" on="0"/>
      </contour>
    </TTGlyph>
    <TTGlyph name="currency" xMin="38" yMin="43" xMax="498" yMax="464">
      <contour>
        <pt x="270" y="80" on="1"/>
        <pt x="229" y="80" on="0"/>
        <pt x="195" y="95" on="1"/>
        <pt x="184" y="100" on="0"/>
        <pt x="174" y="106" on="1"/>
        <pt x="113" y="43" on="1"/>
        <pt x="91" y="44" on="0"/>
        <pt x="59" y="60" on="0"/>
        <pt x="48" y="71" on="1"/>
        <pt x="124" y="151" on="1"/>
        <pt x="110" y="170" on="0"/>
        <pt x="100" y="193" on="1"/>
        <pt x="87" y="226" on="0"/>
        <pt x="87" y="262" on="1"/>
        <pt x="87" y="301" on="0"/>
        <pt x="102" y="333" on="1"/>
        <pt x="107" y="344" on="0"/>
        <pt x="113" y="354" on="1"/>
        <pt x="38" y="429" on="1"/>
        <pt x="62" y="456" on="0"/>
        <pt x="100" y="460" on="1"/>
        <pt x="159" y="402" on="1"/>
        <pt x="178" y="415" on="0"/>
        <pt x="201" y="423" on="1"/>
        <pt x="234" y="436" on="0"/>
        <pt x="270" y="436" on="1"/>
        <pt x="306" y="436" on="0"/>
        <pt x="338" y="423" on="1"/>
        <pt x="355" y="416" on="0"/>
        <pt x="369" y="407" on="1"/>
        <pt x="425" y="464" on="1"/>
        <pt x="446" y="459" on="0"/>
        <pt x="473" y="445" on="0"/>
        <pt x="485" y="430" on="1"/>
        <pt x="416" y="362" on="1"/>
        <pt x="427" y="348" on="0"/>
        <pt x="434" y="332" on="1"/>
        <pt x="448" y="300" on="0"/>
        <pt x="448" y="262" on="1"/>
        <pt x="448" y="215" on="0"/>
        <pt x="430" y="181" on="1"/>
        <pt x="424" y="168" on="0"/>
        <pt x="416" y="157" on="1"/>
        <pt x="498" y="78" on="1"/>
        <pt x="478" y="52" on="0"/>
        <pt x="434" y="46" on="1"/>
        <pt x="368" y="110" on="1"/>
        <pt x="349" y="98" on="0"/>
        <pt x="329" y="91" on="1"/>
        <pt x="298" y="80" on="0"/>
      </contour>
      <contour>
        <pt x="262" y="374" on="1"/>
        <pt x="220" y="374" on="0"/>
        <pt x="168" y="315" on="0"/>
        <pt x="168" y="267" on="1"/>
        <pt x="168" y="245" on="0"/>
        <pt x="184" y="202" on="0"/>
        <pt x="213" y="167" on="0"/>
        <pt x="251" y="145" on="0"/>
        <pt x="274" y="145" on="1"/>
        <pt x="316" y="145" on="0"/>
        <pt x="368" y="205" on="0"/>
        <pt x="368" y="255" on="1"/>
        <pt x="368" y="277" on="0"/>
        <pt x="352" y="319" on="0"/>
        <pt x="324" y="353" on="0"/>
        <pt x="285" y="374" on="0"/>
      </contour>
    </TTGlyph>
    <TTGlyph name="d" xMin="30" yMin="-9" xMax="650" yMax="717">
      <contour>
        <pt x="325" y="467" on="1"/>
        <pt x="343" y="467" on="0"/>
        <pt x="360" y="465" on="1"/>
        <pt x="373" y="463" on="0"/>
        <pt x="389" y="460" on="1"/>
        <pt x="389" y="539" on="1"/>
        <pt x="389" y="574" on="0"/>
        <pt x="360" y="604" on="0"/>
        <pt x="315" y="609" on="1"/>
        <pt x="315" y="628" on="0"/>
        <pt x="320" y="668" on="0"/>
        <pt x="328" y="684" on="1"/>
        <pt x="365" y="684" on="0"/>
        <pt x="433" y="690" on="0"/>
        <pt x="489" y="699" on="0"/>
        <pt x="532" y="711" on="0"/>
        <pt x="544" y="717" on="1"/>
        <pt x="561" y="709" on="0"/>
        <pt x="579" y="679" on="0"/>
        <pt x="579" y="653" on="1"/>
        <pt x="579" y="181" on="1"/>
        <pt x="579" y="159" on="0"/>
        <pt x="585" y="130" on="0"/>
        <pt x="600" y="112" on="0"/>
        <pt x="628" y="103" on="0"/>
        <pt x="650" y="101" on="1"/>
        <pt x="650" y="81" on="0"/>
        <pt x="645" y="43" on="0"/>
        <pt x="637" y="26" on="1"/>
        <pt x="577" y="24" on="0"/>
        <pt x="466" y="7" on="0"/>
        <pt x="426" y="-9" on="1"/>
        <pt x="406" y="5" on="0"/>
        <pt x="397" y="24" on="1"/>
        <pt x="391" y="38" on="0"/>
        <pt x="389" y="55" on="1"/>
        <pt x="376" y="40" on="0"/>
        <pt x="363" y="30" on="1"/>
        <pt x="344" y="16" on="0"/>
        <pt x="277" y="-9" on="0"/>
        <pt x="235" y="-9" on="1"/>
        <pt x="192" y="-9" on="0"/>
        <pt x="117" y="14" on="0"/>
        <pt x="62" y="63" on="0"/>
        <pt x="30" y="140" on="0"/>
        <pt x="30" y="193" on="1"/>
        <pt x="30" y="255" on="0"/>
        <pt x="72" y="356" on="0"/>
        <pt x="150" y="428" on="0"/>
        <pt x="259" y="467" on="0"/>
      </contour>
      <contour>
        <pt x="381" y="169" on="1"/>
        <pt x="389" y="198" on="0"/>
        <pt x="389" y="240" on="1"/>
        <pt x="389" y="361" on="1"/>
        <pt x="377" y="376" on="0"/>
        <pt x="365" y="384" on="1"/>
        <pt x="349" y="396" on="0"/>
        <pt x="326" y="396" on="1"/>
        <pt x="309" y="396" on="0"/>
        <pt x="272" y="383" on="0"/>
        <pt x="241" y="345" on="0"/>
        <pt x="221" y="277" on="0"/>
        <pt x="221" y="222" on="1"/>
        <pt x="221" y="198" on="0"/>
        <pt x="228" y="150" on="0"/>
        <pt x="245" y="113" on="0"/>
        <pt x="275" y="89" on="0"/>
        <pt x="299" y="89" on="1"/>
        <pt x="315" y="89" on="0"/>
        <pt x="348" y="105" on="0"/>
        <pt x="373" y="140" on="0"/>
      </contour>
    </TTGlyph>
    <TTGlyph name="dagger" xMin="41" yMin="-249" xMax="452" yMax="673">
      <contour>
        <pt x="315" y="614" on="1"/>
        <pt x="307" y="536" on="0"/>
        <pt x="301" y="458" on="1"/>
        <pt x="452" y="458" on="1"/>
        <pt x="451" y="427" on="0"/>
        <pt x="441" y="368" on="0"/>
        <pt x="427" y="343" on="1"/>
        <pt x="406" y="347" on="0"/>
        <pt x="367" y="355" on="0"/>
        <pt x="324" y="362" on="0"/>
        <pt x="299" y="364" on="1"/>
        <pt x="295" y="364" on="1"/>
        <pt x="290" y="278" on="0"/>
        <pt x="287" y="190" on="1"/>
        <pt x="279" y="-25" on="0"/>
        <pt x="279" y="-249" on="1"/>
        <pt x="257" y="-249" on="0"/>
        <pt x="209" y="-243" on="0"/>
        <pt x="190" y="-237" on="1"/>
        <pt x="193" y="-21" on="0"/>
        <pt x="193" y="196" on="1"/>
        <pt x="193" y="281" on="0"/>
        <pt x="190" y="366" on="1"/>
        <pt x="186" y="366" on="1"/>
        <pt x="160" y="364" on="0"/>
        <pt x="112" y="358" on="0"/>
        <pt x="66" y="349" on="0"/>
        <pt x="41" y="344" on="1"/>
        <pt x="41" y="380" on="0"/>
        <pt x="47" y="434" on="0"/>
        <pt x="55" y="458" on="1"/>
        <pt x="186" y="458" on="1"/>
        <pt x="181" y="545" on="0"/>
        <pt x="173" y="633" on="1"/>
        <pt x="192" y="637" on="0"/>
        <pt x="222" y="645" on="0"/>
        <pt x="248" y="654" on="0"/>
        <pt x="274" y="665" on="0"/>
        <pt x="288" y="673" on="1"/>
        <pt x="309" y="666" on="0"/>
        <pt x="318" y="644" on="0"/>
      </contour>
    </TTGlyph>
    <TTGlyph name="daggerdbl" xMin="40" yMin="-206" xMax="452" yMax="673">
      <contour>
        <pt x="299" y="0" on="1"/>
        <pt x="300" y="-9" on="0"/>
        <pt x="301" y="-18" on="1"/>
        <pt x="305" y="-50" on="0"/>
        <pt x="311" y="-101" on="0"/>
        <pt x="317" y="-145" on="0"/>
        <pt x="320" y="-166" on="1"/>
        <pt x="300" y="-169" on="0"/>
        <pt x="273" y="-177" on="0"/>
        <pt x="250" y="-187" on="0"/>
        <pt x="227" y="-199" on="0"/>
        <pt x="212" y="-206" on="1"/>
        <pt x="189" y="-199" on="0"/>
        <pt x="179" y="-182" on="0"/>
        <pt x="181" y="-166" on="1"/>
        <pt x="184" y="-145" on="0"/>
        <pt x="190" y="-101" on="0"/>
        <pt x="195" y="-50" on="0"/>
        <pt x="197" y="-18" on="1"/>
        <pt x="198" y="-9" on="0"/>
        <pt x="199" y="0" on="1"/>
        <pt x="40" y="0" on="1"/>
        <pt x="41" y="31" on="0"/>
        <pt x="51" y="90" on="0"/>
        <pt x="65" y="115" on="1"/>
        <pt x="86" y="110" on="0"/>
        <pt x="125" y="103" on="0"/>
        <pt x="168" y="96" on="0"/>
        <pt x="192" y="93" on="1"/>
        <pt x="198" y="93" on="0"/>
        <pt x="204" y="92" on="1"/>
        <pt x="205" y="129" on="0"/>
        <pt x="201" y="160" on="1"/>
        <pt x="196" y="207" on="0"/>
        <pt x="179" y="227" on="1"/>
        <pt x="193" y="249" on="0"/>
        <pt x="195" y="297" on="1"/>
        <pt x="196" y="329" on="0"/>
        <pt x="194" y="366" on="1"/>
        <pt x="190" y="366" on="0"/>
        <pt x="186" y="366" on="1"/>
        <pt x="160" y="364" on="0"/>
        <pt x="112" y="358" on="0"/>
        <pt x="66" y="349" on="0"/>
        <pt x="41" y="344" on="1"/>
        <pt x="41" y="380" on="0"/>
        <pt x="47" y="434" on="0"/>
        <pt x="55" y="458" on="1"/>
        <pt x="184" y="458" on="1"/>
        <pt x="183" y="471" on="0"/>
        <pt x="182" y="483" on="1"/>
        <pt x="179" y="516" on="0"/>
        <pt x="173" y="569" on="0"/>
        <pt x="168" y="612" on="0"/>
        <pt x="165" y="633" on="1"/>
        <pt x="185" y="636" on="0"/>
        <pt x="216" y="644" on="0"/>
        <pt x="244" y="654" on="0"/>
        <pt x="270" y="666" on="0"/>
        <pt x="285" y="673" on="1"/>
        <pt x="307" y="666" on="0"/>
        <pt x="318" y="649" on="0"/>
        <pt x="315" y="633" on="1"/>
        <pt x="312" y="612" on="0"/>
        <pt x="306" y="569" on="0"/>
        <pt x="301" y="516" on="0"/>
        <pt x="298" y="483" on="1"/>
        <pt x="297" y="471" on="0"/>
        <pt x="296" y="458" on="1"/>
        <pt x="452" y="458" on="1"/>
        <pt x="451" y="427" on="0"/>
        <pt x="441" y="368" on="0"/>
        <pt x="427" y="343" on="1"/>
        <pt x="406" y="347" on="0"/>
        <pt x="367" y="355" on="0"/>
        <pt x="324" y="362" on="0"/>
        <pt x="299" y="364" on="1"/>
        <pt x="294" y="365" on="0"/>
        <pt x="288" y="365" on="1"/>
        <pt x="287" y="328" on="0"/>
        <pt x="290" y="297" on="1"/>
        <pt x="296" y="249" on="0"/>
        <pt x="315" y="227" on="1"/>
        <pt x="296" y="207" on="0"/>
        <pt x="291" y="161" on="1"/>
        <pt x="288" y="129" on="0"/>
        <pt x="290" y="90" on="1"/>
        <pt x="298" y="91" on="0"/>
        <pt x="305" y="91" on="1"/>
        <pt x="332" y="94" on="0"/>
        <pt x="380" y="100" on="0"/>
        <pt x="426" y="109" on="0"/>
        <pt x="451" y="114" on="1"/>
        <pt x="451" y="78" on="0"/>
        <pt x="445" y="24" on="0"/>
        <pt x="437" y="0" on="1"/>
      </contour>
    </TTGlyph>
    <TTGlyph name="degree" xMin="60" yMin="415" xMax="376" yMax="699">
      <contour>
        <pt x="216" y="699" on="1"/>
        <pt x="294" y="699" on="0"/>
        <pt x="376" y="619" on="0"/>
        <pt x="376" y="559" on="1"/>
        <pt x="376" y="529" on="0"/>
        <pt x="353" y="476" on="0"/>
        <pt x="311" y="437" on="0"/>
        <pt x="252" y="415" on="0"/>
        <pt x="216" y="415" on="1"/>
        <pt x="141" y="415" on="0"/>
        <pt x="60" y="495" on="0"/>
        <pt x="60" y="558" on="1"/>
        <pt x="60" y="588" on="0"/>
        <pt x="83" y="640" on="0"/>
        <pt x="124" y="677" on="0"/>
        <pt x="181" y="699" on="0"/>
      </contour>
      <contour>
        <pt x="211" y="641" on="1"/>
        <pt x="193" y="641" on="0"/>
        <pt x="170" y="602" on="0"/>
        <pt x="170" y="577" on="1"/>
        <pt x="170" y="530" on="0"/>
        <pt x="205" y="475" on="0"/>
        <pt x="228" y="475" on="1"/>
        <pt x="244" y="475" on="0"/>
        <pt x="266" y="510" on="0"/>
        <pt x="266" y="548" on="1"/>
        <pt x="266" y="592" on="0"/>
        <pt x="237" y="641" on="0"/>
      </contour>
    </TTGlyph>
    <TTGlyph name="dieresis" xMin="120" yMin="506" xMax="566" yMax="676">
      <contour>
        <pt x="217" y="506" on="1"/>
        <pt x="173" y="506" on="0"/>
        <pt x="120" y="553" on="0"/>
        <pt x="120" y="586" on="1"/>
        <pt x="120" y="604" on="0"/>
        <pt x="131" y="636" on="0"/>
        <pt x="154" y="661" on="0"/>
        <pt x="189" y="676" on="0"/>
        <pt x="214" y="676" on="1"/>
        <pt x="265" y="676" on="0"/>
        <pt x="311" y="626" on="0"/>
        <pt x="311" y="588" on="1"/>
        <pt x="311" y="553" on="0"/>
        <pt x="258" y="506" on="0"/>
      </contour>
      <contour>
        <pt x="469" y="676" on="1"/>
        <pt x="511" y="676" on="0"/>
        <pt x="566" y="630" on="0"/>
        <pt x="566" y="596" on="1"/>
        <pt x="566" y="578" on="0"/>
        <pt x="556" y="546" on="0"/>
        <pt x="534" y="521" on="0"/>
        <pt x="499" y="506" on="0"/>
        <pt x="474" y="506" on="1"/>
        <pt x="423" y="506" on="0"/>
        <pt x="373" y="556" on="0"/>
        <pt x="373" y="596" on="1"/>
        <pt x="373" y="634" on="0"/>
        <pt x="426" y="676" on="0"/>
      </contour>
    </TTGlyph>
    <TTGlyph name="divide" xMin="38" yMin="-2" xMax="506" yMax="525">
      <contour>
        <pt x="506" y="305" on="1"/>
        <pt x="506" y="279" on="0"/>
        <pt x="502" y="244" on="0"/>
        <pt x="493" y="221" on="1"/>
        <pt x="453" y="221" on="0"/>
        <pt x="400" y="222" on="0"/>
        <pt x="378" y="222" on="1"/>
        <pt x="281" y="222" on="1"/>
        <pt x="217" y="222" on="0"/>
        <pt x="103" y="220" on="0"/>
        <pt x="38" y="219" on="1"/>
        <pt x="38" y="238" on="0"/>
        <pt x="43" y="286" on="0"/>
        <pt x="51" y="305" on="1"/>
      </contour>
      <contour>
        <pt x="269" y="525" on="1"/>
        <pt x="304" y="525" on="0"/>
        <pt x="354" y="486" on="0"/>
        <pt x="354" y="452" on="1"/>
        <pt x="354" y="412" on="0"/>
        <pt x="311" y="358" on="0"/>
        <pt x="273" y="358" on="1"/>
        <pt x="225" y="358" on="0"/>
        <pt x="180" y="402" on="0"/>
        <pt x="180" y="441" on="1"/>
        <pt x="180" y="462" on="0"/>
        <pt x="195" y="493" on="0"/>
        <pt x="220" y="514" on="0"/>
        <pt x="252" y="524" on="0"/>
      </contour>
      <contour>
        <pt x="275" y="-2" on="1"/>
        <pt x="238" y="-2" on="0"/>
        <pt x="189" y="45" on="0"/>
        <pt x="189" y="80" on="1"/>
        <pt x="189" y="115" on="0"/>
        <pt x="227" y="163" on="0"/>
        <pt x="273" y="163" on="1"/>
        <pt x="320" y="163" on="0"/>
        <pt x="361" y="118" on="0"/>
        <pt x="361" y="80" on="1"/>
        <pt x="361" y="42" on="0"/>
        <pt x="311" y="-2" on="0"/>
      </contour>
    </TTGlyph>
    <TTGlyph name="dollar" xMin="36" yMin="-83" xMax="516" yMax="753">
      <contour>
        <pt x="219" y="-8" on="1"/>
        <pt x="202" y="-7" on="0"/>
        <pt x="187" y="-6" on="1"/>
        <pt x="158" y="-3" on="0"/>
        <pt x="109" y="10" on="0"/>
        <pt x="63" y="31" on="0"/>
        <pt x="36" y="46" on="1"/>
        <pt x="46" y="87" on="0"/>
        <pt x="52" y="182" on="0"/>
        <pt x="52" y="223" on="1"/>
        <pt x="75" y="231" on="0"/>
        <pt x="131" y="235" on="0"/>
        <pt x="152" y="235" on="1"/>
        <pt x="153" y="198" on="0"/>
        <pt x="162" y="138" on="0"/>
        <pt x="184" y="96" on="0"/>
        <pt x="204" y="84" on="1"/>
        <pt x="211" y="81" on="0"/>
        <pt x="219" y="78" on="1"/>
        <pt x="219" y="249" on="1"/>
        <pt x="208" y="255" on="0"/>
        <pt x="196" y="261" on="1"/>
        <pt x="157" y="280" on="0"/>
        <pt x="88" y="338" on="0"/>
        <pt x="43" y="425" on="0"/>
        <pt x="43" y="492" on="1"/>
        <pt x="43" y="540" on="0"/>
        <pt x="80" y="612" on="0"/>
        <pt x="143" y="660" on="0"/>
        <pt x="185" y="672" on="1"/>
        <pt x="207" y="679" on="0"/>
        <pt x="231" y="682" on="1"/>
        <pt x="231" y="753" on="1"/>
        <pt x="253" y="753" on="0"/>
        <pt x="298" y="746" on="0"/>
        <pt x="318" y="737" on="1"/>
        <pt x="318" y="716" on="0"/>
        <pt x="317" y="683" on="1"/>
        <pt x="351" y="681" on="0"/>
        <pt x="380" y="674" on="1"/>
        <pt x="426" y="663" on="0"/>
        <pt x="452" y="648" on="1"/>
        <pt x="452" y="603" on="0"/>
        <pt x="457" y="517" on="0"/>
        <pt x="461" y="491" on="1"/>
        <pt x="440" y="479" on="0"/>
        <pt x="388" y="471" on="0"/>
        <pt x="363" y="471" on="1"/>
        <pt x="357" y="512" on="0"/>
        <pt x="339" y="564" on="0"/>
        <pt x="327" y="579" on="1"/>
        <pt x="322" y="585" on="0"/>
        <pt x="316" y="590" on="1"/>
        <pt x="316" y="491" on="1"/>
        <pt x="316" y="430" on="1"/>
        <pt x="333" y="423" on="0"/>
        <pt x="351" y="415" on="1"/>
        <pt x="394" y="397" on="0"/>
        <pt x="467" y="343" on="0"/>
        <pt x="516" y="263" on="0"/>
        <pt x="516" y="203" on="1"/>
        <pt x="516" y="155" on="0"/>
        <pt x="477" y="77" on="0"/>
        <pt x="407" y="21" on="0"/>
        <pt x="359" y="6" on="1"/>
        <pt x="334" y="-2" on="0"/>
        <pt x="305" y="-6" on="1"/>
        <pt x="306" y="-50" on="0"/>
        <pt x="306" y="-83" on="1"/>
        <pt x="287" y="-83" on="0"/>
        <pt x="232" y="-75" on="0"/>
        <pt x="219" y="-67" on="1"/>
      </contour>
      <contour>
        <pt x="210" y="491" on="1"/>
        <pt x="220" y="483" on="0"/>
        <pt x="231" y="475" on="1"/>
        <pt x="231" y="600" on="1"/>
        <pt x="218" y="597" on="0"/>
        <pt x="208" y="590" on="1"/>
        <pt x="186" y="576" on="0"/>
        <pt x="186" y="544" on="1"/>
        <pt x="186" y="512" on="0"/>
      </contour>
      <contour>
        <pt x="304" y="81" on="1"/>
        <pt x="316" y="86" on="0"/>
        <pt x="325" y="93" on="1"/>
        <pt x="350" y="114" on="0"/>
        <pt x="350" y="141" on="1"/>
        <pt x="350" y="171" on="0"/>
        <pt x="327" y="190" on="1"/>
        <pt x="317" y="199" on="0"/>
        <pt x="304" y="207" on="1"/>
        <pt x="304" y="191" on="1"/>
      </contour>
    </TTGlyph>
    <TTGlyph name="dotlessi" xMin="27" yMin="-3" xMax="365" yMax="467">
      <contour>
        <pt x="291" y="162" on="1"/>
        <pt x="291" y="137" on="0"/>
        <pt x="297" y="104" on="0"/>
        <pt x="312" y="85" on="0"/>
        <pt x="337" y="76" on="0"/>
        <pt x="357" y="75" on="1"/>
        <pt x="362" y="61" on="0"/>
        <pt x="365" y="22" on="0"/>
        <pt x="365" y="-3" on="1"/>
        <pt x="356" y="-2" on="0"/>
        <pt x="320" y="-1" on="0"/>
        <pt x="274" y="0" on="0"/>
        <pt x="248" y="0" on="1"/>
        <pt x="144" y="0" on="1"/>
        <pt x="118" y="0" on="0"/>
        <pt x="72" y="-1" on="0"/>
        <pt x="36" y="-2" on="0"/>
        <pt x="27" y="-3" on="1"/>
        <pt x="27" y="22" on="0"/>
        <pt x="31" y="61" on="0"/>
        <pt x="36" y="75" on="1"/>
        <pt x="56" y="76" on="0"/>
        <pt x="81" y="85" on="0"/>
        <pt x="96" y="104" on="0"/>
        <pt x="101" y="137" on="0"/>
        <pt x="101" y="162" on="1"/>
        <pt x="101" y="289" on="1"/>
        <pt x="101" y="324" on="0"/>
        <pt x="72" y="354" on="0"/>
        <pt x="27" y="359" on="1"/>
        <pt x="27" y="378" on="0"/>
        <pt x="32" y="418" on="0"/>
        <pt x="40" y="434" on="1"/>
        <pt x="77" y="434" on="0"/>
        <pt x="145" y="440" on="0"/>
        <pt x="201" y="449" on="0"/>
        <pt x="244" y="461" on="0"/>
        <pt x="256" y="467" on="1"/>
        <pt x="273" y="459" on="0"/>
        <pt x="291" y="429" on="0"/>
        <pt x="291" y="403" on="1"/>
      </contour>
    </TTGlyph>
    <TTGlyph name="dotlessj" xMin="15" yMin="-249" xMax="291" yMax="467">
      <contour>
        <pt x="101" y="289" on="1"/>
        <pt x="101" y="324" on="0"/>
        <pt x="72" y="354" on="0"/>
        <pt x="27" y="359" on="1"/>
        <pt x="27" y="378" on="0"/>
        <pt x="32" y="418" on="0"/>
        <pt x="40" y="434" on="1"/>
        <pt x="77" y="434" on="0"/>
        <pt x="145" y="440" on="0"/>
        <pt x="201" y="449" on="0"/>
        <pt x="244" y="461" on="0"/>
        <pt x="256" y="467" on="1"/>
        <pt x="273" y="459" on="0"/>
        <pt x="291" y="429" on="0"/>
        <pt x="291" y="403" on="1"/>
        <pt x="291" y="83" on="1"/>
        <pt x="291" y="17" on="0"/>
        <pt x="245" y="-90" on="0"/>
        <pt x="177" y="-173" on="0"/>
        <pt x="96" y="-232" on="0"/>
        <pt x="62" y="-249" on="1"/>
        <pt x="43" y="-239" on="0"/>
        <pt x="18" y="-199" on="0"/>
        <pt x="15" y="-175" on="1"/>
        <pt x="39" y="-151" on="0"/>
        <pt x="72" y="-105" on="0"/>
        <pt x="92" y="-56" on="0"/>
        <pt x="101" y="1" on="0"/>
        <pt x="101" y="37" on="1"/>
      </contour>
    </TTGlyph>
    <TTGlyph name="e" xMin="30" yMin="-9" xMax="515" yMax="467">
      <contour>
        <pt x="252" y="182" on="1"/>
        <pt x="238" y="181" on="0"/>
        <pt x="224" y="180" on="1"/>
        <pt x="233" y="150" on="0"/>
        <pt x="249" y="127" on="1"/>
        <pt x="282" y="83" on="0"/>
        <pt x="356" y="83" on="1"/>
        <pt x="388" y="83" on="0"/>
        <pt x="460" y="104" on="0"/>
        <pt x="482" y="121" on="1"/>
        <pt x="493" y="114" on="0"/>
        <pt x="509" y="74" on="0"/>
        <pt x="509" y="52" on="1"/>
        <pt x="471" y="25" on="0"/>
        <pt x="367" y="-9" on="0"/>
        <pt x="302" y="-9" on="1"/>
        <pt x="227" y="-9" on="0"/>
        <pt x="124" y="26" on="0"/>
        <pt x="59" y="88" on="0"/>
        <pt x="30" y="172" on="0"/>
        <pt x="30" y="221" on="1"/>
        <pt x="30" y="282" on="0"/>
        <pt x="68" y="375" on="0"/>
        <pt x="137" y="436" on="0"/>
        <pt x="235" y="467" on="0"/>
        <pt x="295" y="467" on="1"/>
        <pt x="353" y="467" on="0"/>
        <pt x="437" y="428" on="0"/>
        <pt x="491" y="365" on="0"/>
        <pt x="515" y="285" on="0"/>
        <pt x="514" y="245" on="1"/>
        <pt x="506" y="210" on="0"/>
        <pt x="481" y="186" on="1"/>
        <pt x="448" y="186" on="0"/>
        <pt x="372" y="185" on="0"/>
        <pt x="292" y="184" on="0"/>
      </contour>
      <contour>
        <pt x="236" y="359" on="1"/>
        <pt x="218" y="328" on="0"/>
        <pt x="217" y="256" on="1"/>
        <pt x="351" y="256" on="1"/>
        <pt x="351" y="316" on="0"/>
        <pt x="319" y="393" on="0"/>
        <pt x="287" y="393" on="1"/>
        <pt x="255" y="393" on="0"/>
      </contour>
    </TTGlyph>
    <TTGlyph name="eacute" xMin="30" yMin="-9" xMax="515" yMax="727">
      <component glyphName="e" x="0" y="0" flags="0x204"/>
      <component glyphName="acute" x="7" y="8" flags="0x4"/>
    </TTGlyph>
    <TTGlyph name="ecircumflex" xMin="30" yMin="-9" xMax="515" yMax="731">
      <component glyphName="e" x="0" y="0" flags="0x204"/>
      <component glyphName="circumflex" x="23" y="8" flags="0x4"/>
    </TTGlyph>
    <TTGlyph name="edieresis" xMin="30" yMin="-9" xMax="515" yMax="684">
      <component glyphName="e" x="0" y="0" flags="0x204"/>
      <component glyphName="dieresis" x="-51" y="8" flags="0x4"/>
    </TTGlyph>
    <TTGlyph name="egrave" xMin="30" yMin="-9" xMax="515" yMax="725">
      <component glyphName="e" x="0" y="0" flags="0x204"/>
      <component glyphName="grave" x="117" y="8" flags="0x4"/>
    </TTGlyph>
    <TTGlyph name="eight" xMin="40" yMin="-9" xMax="539" yMax="637">
      <contour>
        <pt x="118" y="308" on="1"/>
        <pt x="124" y="312" on="0"/>
        <pt x="131" y="316" on="1"/>
        <pt x="103" y="335" on="0"/>
        <pt x="83" y="359" on="1"/>
        <pt x="46" y="401" on="0"/>
        <pt x="46" y="458" on="1"/>
        <pt x="46" y="539" on="0"/>
        <pt x="171" y="637" on="0"/>
        <pt x="292" y="637" on="1"/>
        <pt x="342" y="637" on="0"/>
        <pt x="425" y="620" on="0"/>
        <pt x="485" y="586" on="0"/>
        <pt x="519" y="537" on="0"/>
        <pt x="519" y="504" on="1"/>
        <pt x="519" y="473" on="0"/>
        <pt x="487" y="419" on="0"/>
        <pt x="461" y="398" on="1"/>
        <pt x="441" y="383" on="0"/>
        <pt x="417" y="372" on="1"/>
        <pt x="462" y="344" on="0"/>
        <pt x="490" y="315" on="1"/>
        <pt x="539" y="263" on="0"/>
        <pt x="539" y="189" on="1"/>
        <pt x="539" y="85" on="0"/>
        <pt x="407" y="-9" on="0"/>
        <pt x="286" y="-9" on="1"/>
        <pt x="217" y="-9" on="0"/>
        <pt x="122" y="13" on="0"/>
        <pt x="65" y="57" on="0"/>
        <pt x="40" y="120" on="0"/>
        <pt x="40" y="161" on="1"/>
        <pt x="40" y="188" on="0"/>
        <pt x="55" y="241" on="0"/>
        <pt x="90" y="288" on="0"/>
      </contour>
      <contour>
        <pt x="265" y="247" on="1"/>
        <pt x="254" y="254" on="0"/>
        <pt x="240" y="261" on="1"/>
        <pt x="239" y="258" on="1"/>
        <pt x="231" y="226" on="0"/>
        <pt x="231" y="185" on="1"/>
        <pt x="231" y="134" on="0"/>
        <pt x="270" y="69" on="0"/>
        <pt x="302" y="69" on="1"/>
        <pt x="325" y="69" on="0"/>
        <pt x="349" y="103" on="0"/>
        <pt x="349" y="130" on="1"/>
        <pt x="349" y="148" on="0"/>
        <pt x="336" y="186" on="0"/>
        <pt x="298" y="226" on="0"/>
      </contour>
      <contour>
        <pt x="288" y="440" on="1"/>
        <pt x="302" y="431" on="0"/>
        <pt x="322" y="421" on="1"/>
        <pt x="339" y="447" on="0"/>
        <pt x="339" y="491" on="1"/>
        <pt x="339" y="526" on="0"/>
        <pt x="307" y="569" on="0"/>
        <pt x="280" y="569" on="1"/>
        <pt x="259" y="569" on="0"/>
        <pt x="235" y="540" on="0"/>
        <pt x="235" y="515" on="1"/>
        <pt x="235" y="500" on="0"/>
        <pt x="244" y="476" on="0"/>
        <pt x="268" y="452" on="0"/>
      </contour>
    </TTGlyph>
    <TTGlyph name="ellipsis" xMin="60" yMin="-8" xMax="939" yMax="192">
      <component glyphName="period" x="0" y="0" flags="0x4"/>
      <component glyphName="period" x="340" y="0" flags="0x4"/>
      <component glyphName="period" x="672" y="0" flags="0x4"/>
    </TTGlyph>
    <TTGlyph name="emdash" xMin="60" yMin="230" xMax="996" yMax="320">
      <contour>
        <pt x="996" y="320" on="1"/>
        <pt x="996" y="296" on="0"/>
        <pt x="988" y="252" on="0"/>
        <pt x="981" y="235" on="1"/>
        <pt x="761" y="235" on="1"/>
        <pt x="652" y="235" on="0"/>
        <pt x="425" y="234" on="0"/>
        <pt x="187" y="232" on="0"/>
        <pt x="60" y="230" on="1"/>
        <pt x="60" y="256" on="0"/>
        <pt x="69" y="306" on="0"/>
        <pt x="75" y="320" on="1"/>
      </contour>
    </TTGlyph>
    <TTGlyph name="endash" xMin="60" yMin="228" xMax="536" yMax="320">
      <contour>
        <pt x="536" y="320" on="1"/>
        <pt x="536" y="295" on="0"/>
        <pt x="528" y="249" on="0"/>
        <pt x="520" y="234" on="1"/>
        <pt x="415" y="234" on="1"/>
        <pt x="366" y="234" on="0"/>
        <pt x="261" y="233" on="0"/>
        <pt x="139" y="230" on="0"/>
        <pt x="60" y="228" on="1"/>
        <pt x="60" y="252" on="0"/>
        <pt x="69" y="304" on="0"/>
        <pt x="76" y="320" on="1"/>
      </contour>
    </TTGlyph>
    <TTGlyph name="equal" xMin="41" yMin="117" xMax="496" yMax="391">
      <contour>
        <pt x="495" y="206" on="1"/>
        <pt x="495" y="183" on="0"/>
        <pt x="489" y="138" on="0"/>
        <pt x="481" y="118" on="1"/>
        <pt x="451" y="118" on="0"/>
        <pt x="403" y="119" on="0"/>
        <pt x="380" y="119" on="1"/>
        <pt x="213" y="119" on="1"/>
        <pt x="186" y="119" on="0"/>
        <pt x="132" y="118" on="0"/>
        <pt x="75" y="117" on="0"/>
        <pt x="41" y="117" on="1"/>
        <pt x="41" y="140" on="0"/>
        <pt x="47" y="187" on="0"/>
        <pt x="55" y="206" on="1"/>
      </contour>
      <contour>
        <pt x="496" y="391" on="1"/>
        <pt x="496" y="366" on="0"/>
        <pt x="492" y="325" on="0"/>
        <pt x="482" y="303" on="1"/>
        <pt x="452" y="303" on="0"/>
        <pt x="405" y="304" on="0"/>
        <pt x="382" y="304" on="1"/>
        <pt x="215" y="304" on="1"/>
        <pt x="188" y="304" on="0"/>
        <pt x="134" y="303" on="0"/>
        <pt x="78" y="302" on="0"/>
        <pt x="44" y="302" on="1"/>
        <pt x="44" y="330" on="0"/>
        <pt x="50" y="371" on="0"/>
        <pt x="58" y="391" on="1"/>
      </contour>
    </TTGlyph>
    <TTGlyph name="eth" xMin="40" yMin="-8" xMax="563" yMax="687">
      <contour>
        <pt x="188" y="575" on="1"/>
        <pt x="141" y="592" on="0"/>
        <pt x="79" y="601" on="1"/>
        <pt x="79" y="622" on="0"/>
        <pt x="88" y="661" on="0"/>
        <pt x="100" y="675" on="1"/>
        <pt x="212" y="669" on="0"/>
        <pt x="298" y="638" on="1"/>
        <pt x="318" y="631" on="1"/>
        <pt x="447" y="687" on="1"/>
        <pt x="456" y="670" on="0"/>
        <pt x="465" y="624" on="0"/>
        <pt x="465" y="605" on="1"/>
        <pt x="437" y="595" on="0"/>
        <pt x="407" y="584" on="1"/>
        <pt x="426" y="571" on="0"/>
        <pt x="443" y="557" on="1"/>
        <pt x="502" y="506" on="0"/>
        <pt x="563" y="366" on="0"/>
        <pt x="563" y="282" on="1"/>
        <pt x="563" y="205" on="0"/>
        <pt x="518" y="96" on="0"/>
        <pt x="442" y="25" on="0"/>
        <pt x="340" y="-8" on="0"/>
        <pt x="282" y="-8" on="1"/>
        <pt x="154" y="-8" on="0"/>
        <pt x="40" y="115" on="0"/>
        <pt x="40" y="223" on="1"/>
        <pt x="40" y="285" on="0"/>
        <pt x="85" y="380" on="0"/>
        <pt x="159" y="444" on="0"/>
        <pt x="250" y="477" on="0"/>
        <pt x="297" y="477" on="1"/>
        <pt x="307" y="477" on="0"/>
        <pt x="320" y="475" on="1"/>
        <pt x="314" y="485" on="0"/>
        <pt x="306" y="495" on="1"/>
        <pt x="291" y="513" on="0"/>
        <pt x="272" y="529" on="1"/>
        <pt x="197" y="495" on="0"/>
        <pt x="130" y="459" on="1"/>
        <pt x="121" y="475" on="0"/>
        <pt x="109" y="523" on="0"/>
        <pt x="111" y="541" on="1"/>
      </contour>
      <contour>
        <pt x="372" y="237" on="1"/>
        <pt x="372" y="306" on="0"/>
        <pt x="362" y="359" on="1"/>
        <pt x="357" y="364" on="0"/>
        <pt x="353" y="366" on="1"/>
        <pt x="334" y="378" on="0"/>
        <pt x="312" y="378" on="1"/>
        <pt x="295" y="378" on="0"/>
        <pt x="266" y="361" on="0"/>
        <pt x="244" y="322" on="0"/>
        <pt x="231" y="255" on="0"/>
        <pt x="231" y="206" on="1"/>
        <pt x="231" y="140" on="0"/>
        <pt x="274" y="79" on="0"/>
        <pt x="305" y="79" on="1"/>
        <pt x="319" y="79" on="0"/>
        <pt x="343" y="89" on="0"/>
        <pt x="361" y="122" on="0"/>
        <pt x="372" y="184" on="0"/>
      </contour>
    </TTGlyph>
    <TTGlyph name="exclam" xMin="101" yMin="-8" xMax="310" yMax="717">
      <contour>
        <pt x="270" y="717" on="1"/>
        <pt x="291" y="712" on="0"/>
        <pt x="304" y="676" on="0"/>
        <pt x="298" y="635" on="1"/>
        <pt x="293" y="600" on="0"/>
        <pt x="283" y="508" on="0"/>
        <pt x="272" y="404" on="0"/>
        <pt x="262" y="296" on="0"/>
        <pt x="258" y="245" on="1"/>
        <pt x="231" y="245" on="0"/>
        <pt x="177" y="248" on="0"/>
        <pt x="156" y="258" on="1"/>
        <pt x="146" y="364" on="0"/>
        <pt x="119" y="572" on="0"/>
        <pt x="101" y="675" on="1"/>
        <pt x="121" y="676" on="0"/>
        <pt x="167" y="685" on="0"/>
        <pt x="212" y="697" on="0"/>
        <pt x="253" y="710" on="0"/>
      </contour>
      <contour>
        <pt x="212" y="192" on="1"/>
        <pt x="234" y="192" on="0"/>
        <pt x="271" y="176" on="0"/>
        <pt x="296" y="150" on="0"/>
        <pt x="310" y="116" on="0"/>
        <pt x="310" y="98" on="1"/>
        <pt x="310" y="55" on="0"/>
        <pt x="257" y="-8" on="0"/>
        <pt x="206" y="-8" on="1"/>
        <pt x="158" y="-8" on="0"/>
        <pt x="103" y="46" on="0"/>
        <pt x="103" y="93" on="1"/>
        <pt x="103" y="140" on="0"/>
        <pt x="165" y="192" on="0"/>
      </contour>
    </TTGlyph>
    <TTGlyph name="exclamdown" xMin="87" yMin="-245" xMax="314" yMax="467">
      <contour>
        <pt x="145" y="-245" on="1"/>
        <pt x="124" y="-240" on="0"/>
        <pt x="111" y="-204" on="0"/>
        <pt x="117" y="-164" on="1"/>
        <pt x="121" y="-130" on="0"/>
        <pt x="132" y="-40" on="0"/>
        <pt x="143" y="62" on="0"/>
        <pt x="153" y="168" on="0"/>
        <pt x="157" y="218" on="1"/>
        <pt x="184" y="218" on="0"/>
        <pt x="238" y="215" on="0"/>
        <pt x="259" y="205" on="1"/>
        <pt x="269" y="101" on="0"/>
        <pt x="296" y="-103" on="0"/>
        <pt x="314" y="-204" on="1"/>
        <pt x="294" y="-205" on="0"/>
        <pt x="248" y="-213" on="0"/>
        <pt x="203" y="-225" on="0"/>
        <pt x="161" y="-238" on="0"/>
      </contour>
      <contour>
        <pt x="185" y="267" on="1"/>
        <pt x="162" y="267" on="0"/>
        <pt x="126" y="283" on="0"/>
        <pt x="101" y="309" on="0"/>
        <pt x="87" y="343" on="0"/>
        <pt x="87" y="361" on="1"/>
        <pt x="87" y="404" on="0"/>
        <pt x="140" y="467" on="0"/>
        <pt x="191" y="467" on="1"/>
        <pt x="239" y="467" on="0"/>
        <pt x="294" y="413" on="0"/>
        <pt x="294" y="366" on="1"/>
        <pt x="294" y="319" on="0"/>
        <pt x="232" y="267" on="0"/>
      </contour>
    </TTGlyph>
    <TTGlyph name="f" xMin="27" yMin="-3" xMax="504" yMax="717">
      <contour>
        <pt x="102" y="448" on="1"/>
        <pt x="102" y="477" on="1"/>
        <pt x="102" y="538" on="0"/>
        <pt x="139" y="628" on="0"/>
        <pt x="206" y="688" on="0"/>
        <pt x="298" y="717" on="0"/>
        <pt x="353" y="717" on="1"/>
        <pt x="374" y="717" on="0"/>
        <pt x="418" y="712" on="0"/>
        <pt x="459" y="703" on="0"/>
        <pt x="493" y="691" on="0"/>
        <pt x="504" y="684" on="1"/>
        <pt x="501" y="669" on="0"/>
        <pt x="498" y="633" on="0"/>
        <pt x="497" y="595" on="0"/>
        <pt x="498" y="560" on="0"/>
        <pt x="499" y="546" on="1"/>
        <pt x="490" y="542" on="0"/>
        <pt x="460" y="536" on="0"/>
        <pt x="427" y="533" on="0"/>
        <pt x="394" y="532" on="0"/>
        <pt x="380" y="533" on="1"/>
        <pt x="380" y="584" on="0"/>
        <pt x="353" y="641" on="0"/>
        <pt x="332" y="641" on="1"/>
        <pt x="321" y="641" on="0"/>
        <pt x="306" y="631" on="0"/>
        <pt x="296" y="603" on="0"/>
        <pt x="292" y="552" on="0"/>
        <pt x="292" y="511" on="1"/>
        <pt x="292" y="448" on="1"/>
        <pt x="409" y="448" on="1"/>
        <pt x="409" y="424" on="0"/>
        <pt x="405" y="378" on="0"/>
        <pt x="399" y="365" on="1"/>
        <pt x="370" y="365" on="0"/>
        <pt x="321" y="359" on="0"/>
        <pt x="292" y="349" on="1"/>
        <pt x="292" y="197" on="1"/>
        <pt x="292" y="165" on="0"/>
        <pt x="302" y="120" on="0"/>
        <pt x="328" y="92" on="0"/>
        <pt x="369" y="77" on="0"/>
        <pt x="401" y="75" on="1"/>
        <pt x="407" y="58" on="0"/>
        <pt x="410" y="16" on="0"/>
        <pt x="410" y="-3" on="1"/>
        <pt x="396" y="-2" on="0"/>
        <pt x="354" y="-1" on="0"/>
        <pt x="305" y="0" on="0"/>
        <pt x="279" y="0" on="1"/>
        <pt x="174" y="0" on="1"/>
        <pt x="146" y="0" on="0"/>
        <pt x="92" y="-1" on="0"/>
        <pt x="45" y="-2" on="0"/>
        <pt x="28" y="-3" on="1"/>
        <pt x="28" y="24" on="0"/>
        <pt x="31" y="61" on="0"/>
        <pt x="35" y="75" on="1"/>
        <pt x="55" y="76" on="0"/>
        <pt x="81" y="86" on="0"/>
        <pt x="96" y="110" on="0"/>
        <pt x="102" y="152" on="0"/>
        <pt x="102" y="187" on="1"/>
        <pt x="102" y="357" on="1"/>
        <pt x="79" y="364" on="0"/>
        <pt x="41" y="369" on="0"/>
        <pt x="27" y="369" on="1"/>
        <pt x="27" y="390" on="0"/>
        <pt x="33" y="434" on="0"/>
        <pt x="41" y="448" on="1"/>
      </contour>
    </TTGlyph>
    <TTGlyph name="f.calt" xMin="27" yMin="-3" xMax="436" yMax="717">
      <contour>
        <pt x="102" y="448" on="1"/>
        <pt x="102" y="477" on="1"/>
        <pt x="102" y="537" on="0"/>
        <pt x="142" y="627" on="0"/>
        <pt x="206" y="687" on="0"/>
        <pt x="289" y="717" on="0"/>
        <pt x="333" y="717" on="1"/>
        <pt x="371" y="717" on="0"/>
        <pt x="420" y="702" on="0"/>
        <pt x="436" y="692" on="1"/>
        <pt x="433" y="677" on="0"/>
        <pt x="428" y="640" on="0"/>
        <pt x="426" y="600" on="0"/>
        <pt x="426" y="562" on="0"/>
        <pt x="427" y="546" on="1"/>
        <pt x="408" y="539" on="0"/>
        <pt x="361" y="535" on="0"/>
        <pt x="332" y="535" on="1"/>
        <pt x="332" y="563" on="0"/>
        <pt x="329" y="597" on="0"/>
        <pt x="323" y="615" on="0"/>
        <pt x="315" y="621" on="0"/>
        <pt x="310" y="621" on="1"/>
        <pt x="305" y="621" on="0"/>
        <pt x="298" y="614" on="0"/>
        <pt x="294" y="590" on="0"/>
        <pt x="292" y="547" on="0"/>
        <pt x="292" y="511" on="1"/>
        <pt x="292" y="448" on="1"/>
        <pt x="409" y="448" on="1"/>
        <pt x="409" y="424" on="0"/>
        <pt x="405" y="378" on="0"/>
        <pt x="399" y="365" on="1"/>
        <pt x="370" y="365" on="0"/>
        <pt x="321" y="359" on="0"/>
        <pt x="292" y="349" on="1"/>
        <pt x="292" y="197" on="1"/>
        <pt x="292" y="165" on="0"/>
        <pt x="302" y="120" on="0"/>
        <pt x="328" y="92" on="0"/>
        <pt x="369" y="77" on="0"/>
        <pt x="401" y="75" on="1"/>
        <pt x="407" y="58" on="0"/>
        <pt x="410" y="16" on="0"/>
        <pt x="410" y="-3" on="1"/>
        <pt x="396" y="-2" on="0"/>
        <pt x="354" y="-1" on="0"/>
        <pt x="305" y="0" on="0"/>
        <pt x="279" y="0" on="1"/>
        <pt x="174" y="0" on="1"/>
        <pt x="146" y="0" on="0"/>
        <pt x="92" y="-1" on="0"/>
        <pt x="45" y="-2" on="0"/>
        <pt x="28" y="-3" on="1"/>
        <pt x="28" y="24" on="0"/>
        <pt x="31" y="61" on="0"/>
        <pt x="35" y="75" on="1"/>
        <pt x="55" y="76" on="0"/>
        <pt x="81" y="86" on="0"/>
        <pt x="96" y="110" on="0"/>
        <pt x="102" y="152" on="0"/>
        <pt x="102" y="187" on="1"/>
        <pt x="102" y="357" on="1"/>
        <pt x="79" y="364" on="0"/>
        <pt x="41" y="369" on="0"/>
        <pt x="27" y="369" on="1"/>
        <pt x="27" y="390" on="0"/>
        <pt x="33" y="434" on="0"/>
        <pt x="41" y="448" on="1"/>
      </contour>
    </TTGlyph>
</ttFont>
